<svg xmlns="http://www.w3.org/2000/svg" width="47" height="57" viewBox="0 0 47 57">
    <g fill="#A4A4A4" fill-rule="nonzero">
        <path d="M30.361 5.677l2.497-4.162A1 1 0 1 0 31.143.486l-2.635 4.392A14.9 14.9 0 0 0 23.501 4a14.9 14.9 0 0 0-5.007.878L15.859.486a.999.999 0 1 0-1.715 1.029l2.497 4.162c-4.827 2.495-8.14 7.525-8.14 13.324a1 1 0 0 0 1 1h28a1 1 0 0 0 1-1c-.001-5.798-3.313-10.828-8.14-13.324zM10.539 18.001c.512-6.703 6.13-12 12.962-12s12.45 5.297 12.962 12H10.539z"/>
        <path d="M30.478 11.364H29.16a.659.659 0 0 0-.659.659v1.318c0 .364.295.659.659.659h1.319a.659.659 0 0 0 .659-.659v-1.318a.66.66 0 0 0-.66-.659zM17.841 11.364h-1.319a.659.659 0 0 0-.659.659v1.318c0 .364.295.659.659.659h1.319a.659.659 0 0 0 .659-.659v-1.318a.659.659 0 0 0-.659-.659zM37.5 21.001h-28a1 1 0 0 0-1 1v20.171a4.837 4.837 0 0 0 4.834 4.829H14.5v6.006a4.001 4.001 0 0 0 4 3.994c2.206 0 4-1.792 4-3.994v-6.006h2v6.006a4.001 4.001 0 0 0 4 3.994c2.206 0 4-1.792 4-3.994v-6.006h1.166a4.836 4.836 0 0 0 4.834-4.829V22.001a1 1 0 0 0-1-1zm-1 21.171a2.834 2.834 0 0 1-2.834 2.829H31.5a1 1 0 0 0-1 1v7.006a2 2 0 1 1-4 0v-7.006a1 1 0 0 0-1-1h-4a1 1 0 0 0-1 1v7.006a2 2 0 1 1-4 0v-7.006a1 1 0 0 0-1-1h-2.165a2.836 2.836 0 0 1-2.835-2.829V23.001h26v19.171zM43 21.001c-1.93 0-3.5 1.572-3.5 3.504v13.992a3.506 3.506 0 0 0 3.5 3.504c1.93 0 3.5-1.572 3.5-3.504V24.505a3.506 3.506 0 0 0-3.5-3.504zm1.5 17.496c0 .829-.673 1.504-1.5 1.504s-1.5-.675-1.5-1.504V24.505c0-.829.673-1.504 1.5-1.504s1.5.675 1.5 1.504v13.992zM4 21.001c-1.93 0-3.5 1.572-3.5 3.504v13.992A3.506 3.506 0 0 0 4 42.001c1.93 0 3.5-1.572 3.5-3.504V24.505A3.506 3.506 0 0 0 4 21.001zm1.5 17.496c0 .829-.673 1.504-1.5 1.504s-1.5-.675-1.5-1.504V24.505c0-.829.673-1.504 1.5-1.504s1.5.675 1.5 1.504v13.992z"/>
    </g>
</svg>
