<svg xmlns="http://www.w3.org/2000/svg" width="60" height="41" viewBox="0 0 60 41">
    <g fill="#A4A4A4" fill-rule="nonzero">
        <path d="M29.6 4.8c-8.4 0-15.2 6.8-15.2 15.2 0 8.4 6.8 15.2 15.2 15.2 8.4 0 15.2-6.8 15.2-15.2 0-8.3-6.8-15.2-15.2-15.2zm0 28.6c-7.4 0-13.3-6-13.3-13.3 0-7.4 6-13.3 13.3-13.3 7.3 0 13.3 6 13.3 13.3 0 7.3-5.9 13.3-13.3 13.3z"/>
        <path d="M29.6 9.6c-5.8 0-10.4 4.7-10.4 10.4 0 5.8 4.7 10.4 10.4 10.4C35.4 30.4 40 25.7 40 20S35.3 9.6 29.6 9.6zm0 1.9c4.7 0 8.5 3.8 8.5 8.5s-3.8 8.5-8.5 8.5-8.5-3.8-8.5-8.5c-.1-4.7 3.8-8.5 8.5-8.5z"/>
        <path d="M24.8 23.6l1.7-.8-.3-.6c-1.8-3.9 1.1-6 1.3-6.1l.5-.4-1.1-1.6-.5.4c-1.6 1.2-3.8 4.3-1.9 8.4l.3.7z"/>
        <path d="M53 0H6.8C3.1 0 0 3 0 6.8v27.1c0 3.7 3 6.8 6.8 6.8H53c3.7 0 6.8-3 6.8-6.8V6.8C59.8 3.1 56.7 0 53 0zm4.7 33.9c0 2.6-2.1 4.6-4.6 4.6H6.8c-2.6 0-4.6-2.1-4.6-4.6V6.8c0-2.6 2.1-4.6 4.6-4.6H53c2.6 0 4.6 2.1 4.6 4.6v27.1h.1z"/>
    </g>
</svg>
