<svg xmlns="http://www.w3.org/2000/svg" width="72" height="54" viewBox="0 0 72 54">
    <g fill="none" fill-rule="nonzero">
        <path fill="#A4A4A4" d="M29.6 17.8c-8.4 0-15.2 6.8-15.2 15.2 0 8.4 6.8 15.2 15.2 15.2 8.4 0 15.2-6.8 15.2-15.2 0-8.3-6.8-15.2-15.2-15.2zm0 28.6c-7.4 0-13.3-6-13.3-13.3 0-7.4 6-13.3 13.3-13.3 7.3 0 13.3 6 13.3 13.3 0 7.3-5.9 13.3-13.3 13.3z"/>
        <path fill="#A4A4A4" d="M29.6 22.6c-5.8 0-10.4 4.7-10.4 10.4 0 5.8 4.7 10.4 10.4 10.4C35.4 43.4 40 38.7 40 33s-4.7-10.4-10.4-10.4zm0 1.9c4.7 0 8.5 3.8 8.5 8.5s-3.8 8.5-8.5 8.5-8.5-3.8-8.5-8.5c-.1-4.7 3.8-8.5 8.5-8.5z"/>
        <path fill="#A4A4A4" d="M24.8 36.6l1.7-.8-.3-.6c-1.8-3.9 1.1-6 1.3-6.1l.5-.4-1.1-1.6-.5.4c-1.6 1.2-3.8 4.3-1.9 8.4l.3.7z"/>
        <path fill="#A4A4A4" d="M53 13H6.8C3.1 13 0 16 0 19.8v27.1c0 3.7 3 6.8 6.8 6.8H53c3.7 0 6.8-3 6.8-6.8V19.8c0-3.7-3.1-6.8-6.8-6.8zm4.7 33.9c0 2.6-2.1 4.6-4.6 4.6H6.8c-2.6 0-4.6-2.1-4.6-4.6V19.8c0-2.6 2.1-4.6 4.6-4.6H53c2.6 0 4.6 2.1 4.6 4.6v27.1h.1z"/>
        <rect width="24" height="24" x="47" y="1" fill="#FFF" stroke="#979797" stroke-width="2" rx="12"/>
        <path fill="#A4A4A4" stroke="#979797" d="M56.104 9.232a4.517 4.517 0 0 1 5.855-.154l-1.34.05a.31.31 0 0 0 .011.622h.012l2.058-.076a.31.31 0 0 0 .3-.31V9.34v-.013l-.076-2.028a.311.311 0 0 0-.623.023l.048 1.271a5.08 5.08 0 0 0-2.971-1.133 5.091 5.091 0 0 0-3.692 1.313 5.094 5.094 0 0 0-1.541 4.99.31.31 0 0 0 .376.228.31.31 0 0 0 .228-.375c-.387-1.6.13-3.28 1.355-4.384zM64.856 12.237a.31.31 0 0 0-.602.147 4.48 4.48 0 0 1-4.355 5.54 4.478 4.478 0 0 1-2.868-1.032l1.352-.122a.31.31 0 1 0-.057-.618l-2.044.184a.31.31 0 0 0-.28.338l.183 2.043a.31.31 0 0 0 .308.283c.01 0 .019 0 .028-.002a.31.31 0 0 0 .28-.338l-.11-1.244a5.071 5.071 0 0 0 3.21 1.131 5.075 5.075 0 0 0 3.419-1.32 5.104 5.104 0 0 0 1.536-4.99z"/>
    </g>
</svg>
