<svg xmlns="http://www.w3.org/2000/svg" width="38" height="50" viewBox="0 0 38 50">
    <g fill="#A4A4A4" fill-rule="nonzero">
        <path d="M37 15.7c.4 0 .8-.4.8-.8V8.5c0-.4-.2-.8-.5-1.1l-6.2-6.2c-.3-.3-.7-.5-1.2-.5H3.5C2.1.7 1 1.8 1 3.2v8.7c-.5.3-.8.8-.8 1.4v3.4c0 .9.7 1.6 1.6 1.6h.9v2.6c0 .5-.4.9-.9.9-.4 0-.8.4-.8.8v24.3c0 1.4 1.1 2.5 2.5 2.5h10.1c.4 0 .8-.4.8-.8 0-.5.4-.9.9-.9h8.4c.5 0 .9.4.9.9 0 .4.4.8.8.8h10.1c1.4 0 2.5-1.1 2.5-2.5V18.3c0-.4-.4-.8-.8-.8-.5 0-.9-.4-.9-.9-.1-.5.3-.9.7-.9zm-35.2 1s-.1-.1 0 0l-.1-3.4s0-.1.1-.1c.5 0 .9.4.9.9v2.6h-.9zm34.5-2.4c-1 .3-1.7 1.3-1.7 2.3 0 1.1.7 2 1.7 2.3v27.9c0 .5-.4.9-.9.9H26c-.3-1-1.3-1.7-2.3-1.7h-8.4c-1.1 0-2 .7-2.3 1.7H3.6c-.5 0-.9-.4-.9-.9V23.1c1-.3 1.7-1.3 1.7-2.3v-6.7c0-1.1-.7-2-1.7-2.3V3.2c0-.5.4-.9.9-.9H30l6.2 6.2v5.8h.1z"/>
        <path d="M30.3 8.3H8.5C7.1 8.3 6 9.4 6 10.8V41c0 1.4 1.1 2.5 2.5 2.5h21.8c1.4 0 2.5-1.1 2.5-2.5V10.7c0-1.3-1.1-2.4-2.5-2.4zm.9 32.6c0 .5-.4.9-.9.9H8.5c-.5 0-.9-.4-.9-.9V10.7c0-.5.4-.9.9-.9h21.8c.5 0 .9.4.9.9v30.2z"/>
    </g>
</svg>
