<svg xmlns="http://www.w3.org/2000/svg" width="53" height="52" viewBox="0 0 53 52">
    <path fill="#A4A4A4" fill-rule="nonzero" d="M43.9 12.329c0-2.188-1.8-4.077-4.1-4.077h-4.9V1.094C34.9.497 34.4 0 33.8 0c-.6 0-1.1.497-1.1 1.094v7.158h-5.2V1.094C27.5.497 27 0 26.4 0c-.6 0-1.1.497-1.1 1.094v7.158h-5.6V1.094C19.7.497 19.2 0 18.6 0c-.6 0-1.1.497-1.1 1.094v7.158h-4.6c-2.2 0-4.1 1.79-4.1 4.077v4.673H1.1c-.6 0-1.1.497-1.1 1.094 0 .596.5 1.093 1.1 1.093h7.7v5.27H1.1c-.6 0-1.1.497-1.1 1.094 0 .596.5 1.093 1.1 1.093h7.7v5.568H1.1c-.6 0-1.1.497-1.1 1.094 0 .596.5 1.094 1.1 1.094h7.7v4.673c0 2.187 1.8 4.076 4.1 4.076h4.8v7.755c0 .597.5 1.094 1.1 1.094.6 0 1.1-.497 1.1-1.094v-7.755h5.3v7.755c0 .597.5 1.094 1.1 1.094.6 0 1.1-.497 1.1-1.094v-7.755H33v7.755c0 .597.5 1.094 1.1 1.094.6 0 1.1-.497 1.1-1.094v-7.755h4.7c2.2 0 4.1-1.79 4.1-4.076V34.6h7.9c.6 0 1.1-.497 1.1-1.093 0-.597-.5-1.094-1.1-1.094H44v-5.27h7.9c.6 0 1.1-.497 1.1-1.093 0-.597-.5-1.094-1.1-1.094H44v-5.468h7.9c.6 0 1.1-.498 1.1-1.094 0-.597-.5-1.094-1.1-1.094H44V12.33h-.1zm-2.2 26.746c0 1.093-.9 1.889-1.9 1.889H13c-1.1 0-1.9-.895-1.9-1.89V12.33c0-1.094.9-1.89 1.9-1.89h26.8c1.1 0 1.9.896 1.9 1.89v26.746z"/>
</svg>
