<?xml version="1.0" encoding="utf-8"?>
<!-- Generator: Adobe Illustrator 19.0.0, SVG Export Plug-In . SVG Version: 6.00 Build 0)  -->
<svg width="30" height="30" version="1.1" id="Capa_1" xmlns="http://www.w3.org/2000/svg" xmlns:xlink="http://www.w3.org/1999/xlink" x="0px" y="0px"
	 viewBox="0 0 83.3 83.3" style="enable-background:new 0 0 83.3 83.3;" xml:space="preserve">
<style type="text/css">
	.st0{fill:#00A5AD;}
</style>
<g id="XMLID_31_">
	<path id="XMLID_24_" class="st0" d="M9.7,33.3c-0.7,0-1.4-0.3-2-0.8c-1.1-1.1-1.1-2.9,0-4c18.7-18.7,49.2-18.7,67.9,0
		c1.1,1.1,1.1,2.9,0,4c-1.1,1.1-2.9,1.1-4,0c-16.5-16.5-43.5-16.5-60,0C11.1,33,10.4,33.3,9.7,33.3"/>
	<path id="XMLID_23_" class="st0" d="M19.1,42.7c-0.7,0-1.4-0.3-2-0.8c-1.1-1.1-1.1-2.9,0-4c6.6-6.6,15.3-10.2,24.6-10.2h0
		c9.3,0,18,3.6,24.6,10.2c1.1,1.1,1.1,2.9,0,4c-1.1,1.1-2.9,1.1-4,0c-5.5-5.5-12.8-8.5-20.6-8.5h0c-7.8,0-15.1,3-20.6,8.5
		C20.5,42.4,19.8,42.7,19.1,42.7"/>
	<path id="XMLID_22_" class="st0" d="M29,52.6c-0.7,0-1.4-0.3-2-0.8c-1.1-1.1-1.1-2.9,0-4c8.1-8.1,21.2-8.1,29.3,0
		c1.1,1.1,1.1,2.9,0,4c-1.1,1.1-2.9,1.1-4,0c-5.9-5.9-15.5-5.9-21.4,0C30.4,52.3,29.7,52.6,29,52.6"/>
	<path id="XMLID_21_" class="st0" d="M41.7,55.8c-1.7,0-3.3,0.6-4.6,1.9c-2.5,2.5-2.5,6.7,0,9.2c1.3,1.3,2.9,1.9,4.6,1.9
		c1.7,0,3.3-0.6,4.6-1.9c2.5-2.5,2.5-6.7,0-9.2C45,56.5,43.3,55.8,41.7,55.8"/>
</g>
</svg>
