<?xml version="1.0" encoding="utf-8"?>
<!-- Generator: Adobe Illustrator 19.0.0, SVG Export Plug-In . SVG Version: 6.00 Build 0)  -->
<svg version="1.1" id="Capa_1" xmlns="http://www.w3.org/2000/svg" xmlns:xlink="http://www.w3.org/1999/xlink" x="0px" y="0px"
	 viewBox="-234 236 30 30" style="enable-background:new -234 236 30 30;" xml:space="preserve">
<style type="text/css">
	.st0{fill:#00A5AD;}
</style>
<g>
	<g>
		<path class="st0" d="M-219,238.1L-219,238.1c3.5,0,6.8,1.5,9.1,3.8c2.4,2.4,3.8,5.6,3.8,9.1s-1.5,6.8-3.8,9.1
			c-2.4,2.4-5.6,3.8-9.1,3.8s-6.8-1.5-9.1-3.8c-2.4-2.4-3.8-5.6-3.8-9.1s1.5-6.8,3.8-9.1C-225.8,239.6-222.5,238.1-219,238.1
			L-219,238.1L-219,238.1z M-215.4,239.9c0.6,0.6,1,1.4,1.5,2.2c0.2,0.5,0.5,1,0.7,1.6c0.7-0.5,1.4-0.9,1.9-1.4
			C-212.4,241.3-213.9,240.5-215.4,239.9L-215.4,239.9z M-210.3,243.1c-0.8,0.7-1.6,1.3-2.4,1.7c0.5,1.7,0.8,3.5,0.8,5.6h4.7
			C-207.5,247.7-208.6,245.1-210.3,243.1L-210.3,243.1z M-207.3,251.7h-4.7c0,2.1-0.3,3.9-0.8,5.6c0.9,0.5,1.7,1,2.4,1.7
			C-208.6,257.2-207.5,254.5-207.3,251.7L-207.3,251.7z M-211.3,259.9c-0.6-0.6-1.3-1-1.9-1.4c-0.2,0.6-0.5,1.1-0.7,1.6
			c-0.5,0.8-0.9,1.6-1.5,2.2C-213.9,261.7-212.4,260.9-211.3,259.9L-211.3,259.9z M-222.6,262.3c-0.6-0.6-1-1.4-1.5-2.2
			c-0.2-0.5-0.5-1-0.7-1.6c-0.7,0.5-1.4,0.9-1.9,1.4C-225.6,260.9-224.1,261.7-222.6,262.3L-222.6,262.3z M-227.7,259.1
			c0.8-0.7,1.6-1.3,2.4-1.7c-0.5-1.7-0.8-3.5-0.8-5.6h-4.7C-230.5,254.5-229.4,257.2-227.7,259.1L-227.7,259.1z M-230.7,250.5h4.7
			c0-2.1,0.3-3.9,0.8-5.6c-0.9-0.5-1.7-1-2.4-1.7C-229.4,245.1-230.5,247.7-230.7,250.5L-230.7,250.5z M-226.7,242.3
			c0.6,0.6,1.3,1,1.9,1.4c0.2-0.6,0.5-1.1,0.7-1.6c0.5-0.8,0.9-1.6,1.5-2.2C-224.1,240.5-225.6,241.3-226.7,242.3L-226.7,242.3z
			 M-214,245.4L-214,245.4c-1.4,0.6-2.8,0.9-4.4,1v4h5.1C-213.3,248.7-213.5,247-214,245.4L-214,245.4z M-219.6,246.4
			c-1.6-0.1-3.1-0.5-4.4-1l0,0c-0.5,1.5-0.7,3.2-0.7,5h5.1V246.4L-219.6,246.4z M-223.7,244.3h0.1c1.3,0.5,2.5,0.8,3.9,0.9v-5.8
			c-1.3,0.3-2.5,1.5-3.4,3.2C-223.2,243.1-223.4,243.7-223.7,244.3L-223.7,244.3z M-218.4,245.2c1.4-0.1,2.7-0.3,4-0.9h0.1
			c-0.2-0.6-0.5-1.1-0.7-1.6c-0.9-1.7-2.1-3-3.4-3.2V245.2L-218.4,245.2z M-224,256.8L-224,256.8c1.4-0.6,2.8-0.9,4.4-1v-4h-5.1
			C-224.7,253.5-224.5,255.2-224,256.8L-224,256.8z M-218.4,255.8c1.5,0.1,3,0.5,4.3,0.9l0,0c0,0,0.1,0,0.1,0.1
			c0.5-1.5,0.7-3.2,0.7-5h-5.1L-218.4,255.8L-218.4,255.8z M-214.3,258c-0.1,0-0.1-0.1-0.2-0.1l0,0c-1.1-0.5-2.5-0.8-3.9-0.8v5.8
			c1.3-0.3,2.5-1.5,3.4-3.2C-214.8,259.1-214.6,258.5-214.3,258L-214.3,258z M-219.6,257c-1.4,0.1-2.7,0.3-4,0.9h-0.1
			c0.2,0.6,0.5,1.1,0.7,1.6c0.9,1.7,2.1,3,3.4,3.2V257L-219.6,257z"/>
	</g>
</g>
</svg>
