<?xml version="1.0" encoding="utf-8"?>
<!-- Generator: Adobe Illustrator 19.0.0, SVG Export Plug-In . SVG Version: 6.00 Build 0)  -->
<svg width="30" height="30" version="1.1" id="Capa_1" xmlns="http://www.w3.org/2000/svg" xmlns:xlink="http://www.w3.org/1999/xlink" x="0px" y="0px"
	 viewBox="0 0 83.3 83.3" style="enable-background:new 0 0 83.3 83.3;" xml:space="preserve">
<style type="text/css">
	.st0{fill:#00A5AD;}
</style>
<g id="XMLID_1_">
	<path id="XMLID_28_" class="st0" d="M59.8,75c-12.5,0-25.4-5.7-35.4-15.7L24.3,59C14,48.7,8.2,35.5,8.6,22.7l0-0.9l0.6-0.7
		c0.9-1.1,1.8-2.1,2.7-3.1c3.4-3.4,7.4-6,11.9-7.7c0.5-0.2,1.2-0.3,1.8-0.3c1.5,0,4.9,0.8,5.8,3.2c1.5,4.2,3.5,9.8,4.9,15.1
		c0.4,1.5-0.1,5.1-2.1,6.4l-4.9,3.1c0,0,0,0.8,0.7,1.7c1.9,2.6,4.1,5.2,6.6,7.7c2.5,2.4,5.1,4.7,7.7,6.5c0.5,0.4,1.1,0.6,1.5,0.6
		c0.2,0,0.3,0,0.3,0l3-4.8c1.4-2.1,4.8-2.2,5.2-2.2c0.4,0,0.8,0,1.1,0.1c6.5,1.5,10.4,2.7,15.4,5c2.2,1,3.6,5,2.6,7.5
		c-1.7,4.5-4.3,8.5-7.7,11.9c-0.9,0.9-2,1.9-3.1,2.7l-0.7,0.6L59.8,75z M14.1,23.8c0,10.8,5.3,22.4,14.1,31.3l0.3,0.3
		c8.9,8.8,20.2,14,31.2,14c0.7-0.5,1.3-1.1,1.9-1.7c2.8-2.8,5-6.2,6.5-9.9c0,0-0.1-0.4-0.3-0.6c-4.3-1.9-7.9-3-13.7-4.4
		c-0.1,0-0.4,0.1-0.7,0.1l-2.8,4.4c-1.8,2.8-6.4,3.3-9.7,0.8c-2.8-2.1-5.6-4.4-8.3-7.1c-2.7-2.7-5.1-5.6-7.2-8.4
		c-1.4-1.9-1.9-4.1-1.5-6.1c0.3-1.6,1.2-2.8,2.4-3.6l4.4-2.8c0.1-0.3,0.1-0.6,0.1-0.8c-1.2-4.6-3-9.7-4.4-13.7
		c-0.2-0.1-0.5-0.2-0.8-0.2c-3.6,1.4-6.9,3.6-9.7,6.4C15.3,22.5,14.7,23.1,14.1,23.8"/>
	<path id="XMLID_27_" class="st0" d="M72,43.8c-1.5,0-2.8-1.3-2.8-2.8C69.2,26.1,57.1,14,42.1,14c-1.5,0-2.8-1.3-2.8-2.8
		c0-1.5,1.3-2.8,2.8-2.8c18,0,32.7,14.7,32.7,32.7C74.8,42.6,73.5,43.8,72,43.8"/>
	<path id="XMLID_26_" class="st0" d="M63.2,43.8c-1.5,0-2.8-1.3-2.8-2.8c0-10.1-8.2-18.3-18.3-18.3c-1.5,0-2.8-1.3-2.8-2.8
		c0-1.5,1.3-2.8,2.8-2.8C55.3,17.1,66,27.9,66,41C66,42.6,64.8,43.8,63.2,43.8"/>
	<path id="XMLID_25_" class="st0" d="M54,43.8c-1.5,0-2.8-1.3-2.8-2.8c0-5-4.1-9.1-9.1-9.1c-1.5,0-2.8-1.3-2.8-2.8
		c0-1.5,1.3-2.8,2.8-2.8c8.1,0,14.7,6.6,14.7,14.6C56.8,42.6,55.5,43.8,54,43.8"/>
</g>
</svg>
