<?xml version="1.0" encoding="utf-8"?>
<!-- Generator: Adobe Illustrator 19.0.0, SVG Export Plug-In . SVG Version: 6.00 Build 0)  -->
<svg width="30" height="30" version="1.1" id="Capa_1" xmlns="http://www.w3.org/2000/svg" xmlns:xlink="http://www.w3.org/1999/xlink" x="0px" y="0px"
	 viewBox="0 0 83.3 83.3" style="enable-background:new 0 0 83.3 83.3;" xml:space="preserve">
<style type="text/css">
	.st0{fill:#00A5AD;}
</style>
<g id="XMLID_32_">
	<path id="XMLID_18_" class="st0" d="M54.4,76.2c-11.5,0-23.4-5.3-32.7-14.5l-0.2-0.2C12,51.8,6.8,39.7,7,28l0-0.9l0.6-0.7
		c0.8-1.1,1.7-2,2.5-2.8c3.2-3.1,6.8-5.6,11-7.2c0.5-0.2,1.1-0.3,1.8-0.3c1.4,0,4.7,0.7,5.5,3c1.4,3.9,3.2,9,4.5,13.9
		c0.4,1.4,0,4.9-2,6.1l-4.4,2.8c0,0.2,0.1,0.8,0.5,1.3c1.7,2.4,3.8,4.8,6.1,7.1c2.3,2.3,4.6,4.2,7,6c0.7,0.5,1.2,0.5,1.3,0.5
		c0,0,0,0,0,0l2.8-4.4c1.3-2,4.6-2.1,5-2.1c0.4,0,0.7,0,1.1,0.1c6,1.3,9.6,2.5,14.2,4.6c2.1,1,3.5,4.8,2.5,7.2
		c-1.6,4.1-4,7.8-7.1,11c-0.9,0.9-1.8,1.7-2.9,2.5l-0.7,0.6L54.4,76.2z M25.5,57.5l0.3,0.3c8.1,8.1,18.5,12.8,28.4,12.8
		c0.6-0.5,1.1-1,1.6-1.5c2.5-2.5,4.5-5.5,5.8-8.9c0-0.1-0.1-0.3-0.1-0.5C57.6,58,54.3,57,49,55.8c-0.1,0-0.2,0.1-0.4,0.1l-2.5,4
		c-1.7,2.7-6.1,3.1-9.3,0.8c-2.6-1.9-5.2-4.1-7.7-6.6c-2.5-2.5-4.7-5.1-6.6-7.8c-1.3-1.8-1.8-3.9-1.5-5.8c0.3-1.5,1.1-2.7,2.3-3.5
		l4-2.5c0-0.2,0.1-0.4,0.1-0.6c-1.1-4.1-2.7-8.7-4-12.4c-0.1,0-0.3-0.1-0.4-0.1c-3.3,1.3-6.3,3.3-8.9,5.8c-0.5,0.5-1,1-1.5,1.6
		C12.7,38.9,17.5,49.5,25.5,57.5"/>
	<path id="XMLID_17_" class="st0" d="M40.8,39.2h7c0.7,0,1.2,0.1,1.6,0.4c0.4,0.3,0.6,0.7,0.6,1.2c0,0.4-0.1,0.8-0.4,1.1
		c-0.3,0.3-0.7,0.5-1.3,0.5h-9.9c-0.7,0-1.2-0.2-1.6-0.6c-0.4-0.4-0.6-0.8-0.6-1.3c0-0.3,0.1-0.8,0.4-1.3c0.2-0.5,0.5-1,0.8-1.3
		c1.2-1.2,2.3-2.3,3.2-3.2c1-0.9,1.6-1.5,2.1-1.7c0.7-0.5,1.3-1,1.8-1.6c0.5-0.5,0.9-1.1,1.1-1.6c0.3-0.6,0.4-1.1,0.4-1.6
		c0-0.6-0.1-1.1-0.4-1.5c-0.3-0.5-0.6-0.8-1.1-1.1c-0.5-0.3-1-0.4-1.5-0.4c-1.2,0-2.1,0.5-2.8,1.5c-0.1,0.1-0.2,0.5-0.5,1.1
		c-0.2,0.6-0.4,1.1-0.7,1.4c-0.3,0.3-0.7,0.5-1.2,0.5c-0.4,0-0.8-0.1-1.1-0.4c-0.3-0.3-0.4-0.7-0.4-1.2c0-0.6,0.1-1.3,0.4-1.9
		c0.3-0.7,0.7-1.3,1.2-1.8c0.6-0.5,1.3-1,2.1-1.3c0.9-0.3,1.8-0.5,3-0.5c1.4,0,2.5,0.2,3.5,0.6c0.6,0.3,1.2,0.7,1.7,1.2
		c0.5,0.5,0.8,1.1,1.1,1.7c0.3,0.7,0.4,1.3,0.4,2.1c0,1.1-0.3,2.1-0.8,3c-0.6,0.9-1.1,1.6-1.7,2.1c-0.6,0.5-1.5,1.3-2.9,2.4
		c-1.4,1.1-2.3,2-2.8,2.6C41.2,38.6,41,38.9,40.8,39.2"/>
	<path id="XMLID_14_" class="st0" d="M59.3,40.7v-2.5h-6.8c-0.9,0-1.5-0.2-1.9-0.6c-0.4-0.4-0.6-0.9-0.6-1.6c0-0.2,0-0.3,0.1-0.5
		c0.1-0.2,0.2-0.4,0.3-0.6c0.1-0.2,0.3-0.4,0.4-0.6c0.1-0.2,0.3-0.4,0.5-0.7l7.1-9.5c0.5-0.6,0.9-1.1,1.2-1.4
		c0.3-0.3,0.7-0.4,1.1-0.4c1.4,0,2,0.8,2,2.3v10.4h0.6c0.7,0,1.2,0.1,1.7,0.3c0.4,0.2,0.6,0.6,0.6,1.2c0,0.5-0.2,0.9-0.5,1.1
		c-0.3,0.2-0.9,0.4-1.5,0.4h-0.8v2.5c0,0.7-0.2,1.2-0.5,1.5c-0.3,0.3-0.7,0.5-1.2,0.5c-0.5,0-0.9-0.2-1.2-0.5
		C59.4,41.9,59.3,41.4,59.3,40.7 M53.5,35.2h5.8v-7.8L53.5,35.2z"/>
	<path id="XMLID_13_" class="st0" d="M69.9,54.1c-0.5,0-1-0.1-1.4-0.4c-1.3-0.8-1.8-2.5-1-3.8c2.1-3.7,3.3-8,3.3-12.4
		c0-13.7-11.2-24.9-24.9-24.9c-4.4,0-8.8,1.2-12.6,3.4c-1.3,0.8-3,0.3-3.8-1c-0.8-1.3-0.3-3,1-3.8c4.7-2.8,10-4.2,15.5-4.2
		c16.8,0,30.5,13.7,30.5,30.5c0,5.3-1.4,10.6-4,15.2C71.8,53.6,70.8,54.1,69.9,54.1"/>
</g>
</svg>
