<?xml version="1.0" encoding="utf-8"?>
<!-- Generator: Adobe Illustrator 19.0.0, SVG Export Plug-In . SVG Version: 6.00 Build 0)  -->
<svg width="30" height="30" version="1.1" id="Capa_1" xmlns="http://www.w3.org/2000/svg" xmlns:xlink="http://www.w3.org/1999/xlink" x="0px" y="0px"
	 viewBox="0 0 83.3 83.3" style="enable-background:new 0 0 83.3 83.3;" xml:space="preserve">
<style type="text/css">
	.st0{fill:#00A5AD;}
</style>
<g id="XMLID_33_">
	<path id="XMLID_10_" class="st0" d="M19.1,79.5c-0.3,0-0.7-0.1-1-0.3c-0.6-0.3-0.9-1-0.9-1.6V66C9,59.2,4.3,49.6,4.3,39.3
		c0-19.5,16.8-35.4,37.4-35.4C62.3,3.8,79,19.7,79,39.3c0,19.5-16.8,35.4-37.4,35.4c-3.5,0-7-0.5-10.3-1.4l-11.4,6
		C19.7,79.4,19.4,79.5,19.1,79.5 M41.7,7.7C23.2,7.7,8.1,21.8,8.1,39.3c0,9.4,4.4,18.3,12.1,24.3c0.5,0.4,0.7,0.9,0.7,1.5v9.3
		l9.2-4.8c0.4-0.2,1-0.3,1.4-0.1c3.2,0.9,6.6,1.4,10,1.4c18.5,0,33.5-14.2,33.5-31.6S60.1,7.7,41.7,7.7"/>
	<path id="XMLID_9_" class="st0" d="M20.9,42.4c0,0,1.9,1.7,3.9,1.7c0.8,0,1.7-0.3,1.7-1.3c0-2-7.4-1.9-7.4-7c0-3.1,2.5-5.1,5.8-5.1
		c3.5,0,5.3,1.9,5.3,1.9l-1.7,3.3c0,0-1.7-1.5-3.6-1.5c-0.8,0-1.7,0.4-1.7,1.3c0,2.1,7.4,1.7,7.4,7c0,2.8-2.1,5.2-5.8,5.2
		c-3.9,0-6-2.4-6-2.4L20.9,42.4z"/>
	<path id="XMLID_8_" class="st0" d="M34.1,31h4.4l2.4,7c0.4,1.1,0.8,2.8,0.8,2.8h0c0,0,0.5-1.7,0.8-2.8l2.4-7h4.4l1.3,16.7h-4
		l-0.5-7.5c-0.1-1.3,0-2.8,0-2.8h0c0,0-0.6,1.7-0.9,2.8l-1.7,4.8H40l-1.7-4.8c-0.4-1-0.9-2.8-0.9-2.8h0c0,0,0.1,1.5,0,2.8l-0.5,7.5
		h-4L34.1,31z"/>
	<path id="XMLID_7_" class="st0" d="M54.9,42.4c0,0,1.9,1.7,3.9,1.7c0.8,0,1.7-0.3,1.7-1.3c0-2-7.4-1.9-7.4-7c0-3.1,2.5-5.1,5.8-5.1
		c3.5,0,5.3,1.9,5.3,1.9l-1.7,3.3c0,0-1.6-1.5-3.6-1.5c-0.8,0-1.7,0.4-1.7,1.3c0,2.1,7.4,1.7,7.4,7c0,2.8-2.1,5.2-5.8,5.2
		c-3.8,0-6-2.4-6-2.4L54.9,42.4z"/>
</g>
</svg>
