<?xml version="1.0" encoding="utf-8"?>
<!-- Generator: Adobe Illustrator 19.0.0, SVG Export Plug-In . SVG Version: 6.00 Build 0)  -->
<svg version="1.1" id="Capa_1" xmlns="http://www.w3.org/2000/svg" xmlns:xlink="http://www.w3.org/1999/xlink" x="0px" y="0px"
	 viewBox="0 0 49.8 22.9" style="enable-background:new 0 0 49.8 22.9;" xml:space="preserve">
<style type="text/css">
	.st0{fill:#FD040C;}
	.st1{fill:#FFFFFF;}
	.st2{fill:none;stroke:#0678FD;stroke-width:0.23;stroke-miterlimit:10;}
	.st3{fill:#008DF4;}
	.st4{fill:none;stroke:#FFFFFF;stroke-width:0.9618;stroke-miterlimit:10;}
</style>
<g>
	<circle class="st0" cx="11.3" cy="11.5" r="11.3"/>
	<g>
		<g>
			<path class="st1" d="M7.1,13.8c0,0.1,0.1,0.2,0.2,0.2c0.1,0.1,0.2,0.1,0.3,0.1c0.1,0,0.2,0,0.3-0.1C8,14,8,13.9,8.1,13.7l0,0.3
				h0.9v-3.8H8.3v2.9c0,0.2-0.1,0.3-0.3,0.3c-0.2,0-0.3-0.1-0.3-0.3v-2.9H7v2.5c0,0.3,0,0.5,0,0.6C7,13.6,7,13.7,7.1,13.8L7.1,13.8z
				"/>
			<path class="st1" d="M6.5,11c0-0.1-0.1-0.3-0.2-0.4c-0.1-0.1-0.2-0.2-0.3-0.3c-0.1-0.1-0.3-0.1-0.5-0.1c-0.2,0-0.4,0.1-0.6,0.2
				c-0.2,0.1-0.3,0.3-0.3,0.5c-0.1,0.2-0.1,0.5-0.1,0.8v1c0,0.3,0,0.6,0,0.7c0,0.2,0.1,0.3,0.2,0.4C4.7,13.9,4.9,14,5,14.1
				c0.1,0.1,0.3,0.1,0.5,0.1c0.2,0,0.3,0,0.5-0.1c0.1-0.1,0.2-0.2,0.3-0.3c0.1-0.1,0.1-0.3,0.2-0.5c0-0.2,0-0.4,0-0.8v-0.9
				C6.5,11.3,6.5,11.1,6.5,11z M5.8,13.2c0,0.2-0.2,0.4-0.3,0.4c-0.2,0-0.3-0.2-0.3-0.4v-2c0-0.2,0.2-0.4,0.3-0.4
				c0.2,0,0.3,0.2,0.3,0.4V13.2z"/>
			<polygon class="st1" points="2.8,14.2 3.6,14.2 3.6,11.3 4.5,8.8 3.6,8.8 3.1,10.7 2.6,8.8 1.7,8.8 2.8,11.3 			"/>
		</g>
		<g>
			<path class="st1" d="M19.1,7.7h-7.7c-1,0-1.9,0.8-1.9,1.8v4c0,1,0.8,1.8,1.9,1.8h7.7c1,0,1.9-0.8,1.9-1.8v-4
				C20.9,8.5,20.1,7.7,19.1,7.7z M11.9,14h-0.8V9.7l-0.8,0V9.1l2.5,0v0.6h-0.9V14z M14.8,14l-0.6,0l0-0.5c-0.2,0.4-0.9,0.7-1.2,0.4
				c-0.2-0.1-0.2-0.4-0.2-0.6c0-0.1,0-0.4,0-0.7l0-2.2h0.8l0,2.3c0,0.3,0,0.5,0,0.6c0.1,0.3,0.4,0.2,0.5,0c0-0.1,0-0.2,0-0.6v-2.3
				h0.8h0V14z M16,13.6l-0.1,0.3l-0.6,0l0-4.8l0.8,0l0,1.4c0.7-0.6,1.3-0.2,1.3,0.6l0,1.9C17.3,13.9,16.8,14.4,16,13.6z M17.8,12.7
				v-1.1c0-0.3,0-0.6,0.1-0.8c0.1-0.2,0.2-0.3,0.3-0.4c0.5-0.3,1.4-0.2,1.5,0.4c0,0.2,0,0.6,0,1v0.5h-1.4v0.9c0,0.2,0.1,0.3,0.3,0.3
				h0.1c0.2,0,0.3-0.1,0.3-0.3v-0.3c0,0,0-0.1,0-0.1l0.6,0C20.1,14.3,17.8,14.6,17.8,12.7z"/>
			<path class="st1" d="M16.4,10.7c-0.2,0-0.3,0.1-0.3,0.3v2.1c0,0.2,0.2,0.3,0.3,0.3s0.3-0.1,0.3-0.3V11
				C16.7,10.8,16.6,10.7,16.4,10.7z"/>
			<path class="st1" d="M19.2,11.2c0-0.2-0.2-0.4-0.4-0.4h0c-0.2,0-0.4,0.2-0.4,0.4l0,0.4h0.7L19.2,11.2z"/>
		</g>
	</g>
	<g>
		<circle class="st2" cx="38.3" cy="11.5" r="11.3"/>
	</g>
	<g>
		<g>
			<path class="st3" d="M40.2,5.1c-0.2,0-0.4,0.2-0.4,0.3c0,0-0.8,3.8-1.8,7c-1-3.2-1.8-7-1.8-7c-0.1-0.2-0.2-0.3-0.4-0.3l-3.8,0
				l0.3,0.6L36,17.6c0.1,0.2,0.2,0.3,0.4,0.3h0.1h2.9h0.1c0.2,0,0.4-0.1,0.4-0.3c0,0,3-9.2,3.8-11.8C43.8,5.4,44,5.1,44,5.1H40.2z"
				/>
		</g>
		<g>
			<g>
				<g>
					<path class="st4" d="M45.3,15.8c0,1.7-1.4,3.1-3.1,3.1c-1.7,0-3.1-1.4-3.1-3.1c0-1.7,1.4-3.1,3.1-3.1
						C44,12.7,45.3,14.1,45.3,15.8"/>
					<path class="st0" d="M45.3,15.8c0,1.7-1.4,3.1-3.1,3.1c-1.7,0-3.1-1.4-3.1-3.1c0-1.7,1.4-3.1,3.1-3.1
						C44,12.7,45.3,14.1,45.3,15.8"/>
				</g>
				<path class="st1" d="M41.8,17.4v-1h0.4l0.8,1h0.8l-0.9-1.2c0.3-0.2,0.5-0.5,0.5-0.9c0-0.6-0.5-1.1-1.1-1.1h-1v3.3H41.8z
					 M41.8,14.7h0.4c0.3,0,0.5,0.2,0.5,0.5c0,0.3-0.2,0.5-0.5,0.5h-0.4V14.7z"/>
			</g>
		</g>
	</g>
</g>
</svg>
