<?xml version="1.0" encoding="utf-8"?>
<!-- Generator: Adobe Illustrator 19.0.0, SVG Export Plug-In . SVG Version: 6.00 Build 0)  -->
<svg version="1.1" id="Capa_1" xmlns="http://www.w3.org/2000/svg" xmlns:xlink="http://www.w3.org/1999/xlink" x="0px" y="0px"
	 viewBox="0 0 50.5 24.6" style="enable-background:new 0 0 50.5 24.6;" xml:space="preserve">
<style type="text/css">
	.st0{fill:#EFEFEF;}
	.st1{fill:#67B168;}
	.st2{fill:#FFFFFF;}
	.st3{fill:#39A635;}
	.st4{fill:#FBFBFB;}
	.st5{fill:#37A636;}
</style>
<g id="XMLID_1_">
	<g id="XMLID_10_">
		<path id="XMLID_13_" class="st0" d="M0,22.9l1.5-5.3C0.5,16,0,14.1,0,12.2C0,6.5,4.7,1.7,10.5,1.7s10.6,4.7,10.6,10.5
			c0,5.8-4.8,10.7-10.6,10.7c-1.8,0-3.6-0.6-5.1-1.5L0,22.9z"/>
		<path id="XMLID_12_" class="st1" d="M5.7,19.5L6,19.7c1.3,0.8,2.9,1.3,4.6,1.3c4.8,0,8.8-4,8.8-8.8c0-4.9-4-8.7-8.8-8.7
			s-8.7,3.9-8.7,8.7c0,1.7,0.5,3.3,1.3,4.7l0.2,0.3l-0.8,3.1L5.7,19.5z"/>
		<path id="XMLID_11_" class="st2" d="M7.7,7.3L7,7.3c-0.2,0-0.4,0.1-0.6,0.2c-0.3,0.3-0.9,0.8-1,1.6c-0.3,1.1,0.1,2.4,1.1,3.7
			s2.8,3.4,6,4.3c1,0.3,1.8,0.1,2.5-0.3c0.5-0.3,0.8-0.8,0.9-1.4l0.1-0.5c0-0.1,0-0.3-0.2-0.4l-2.3-1.1c-0.1-0.1-0.3,0-0.4,0.1
			l-0.9,1.2c-0.1,0.1-0.2,0.1-0.3,0.1c-0.6-0.2-2.7-1.1-3.8-3.3c0-0.1,0-0.2,0-0.3l0.9-1c0.1-0.1,0.1-0.3,0.1-0.4L8,7.6
			C8,7.5,7.9,7.3,7.7,7.3"/>
	</g>
	<g id="XMLID_2_">
		<circle id="XMLID_9_" class="st3" cx="38.2" cy="12.3" r="12.3"/>
		<g id="XMLID_3_">
			<path id="XMLID_8_" class="st4" d="M38.3,5c1.3,0,2.6,0.2,3.9,0.8c1.1,0.5,2.1,1.1,3,2c0.7,0.8,1.3,1.7,1.5,2.8
				c0.2,0.6,0.2,1.2,0.2,1.9c-0.1,1-0.4,1.9-1,2.8c-0.5,0.7-1.1,1.4-1.7,1.9c-1,0.9-2,1.7-3.1,2.4c-0.7,0.5-1.4,0.9-2.2,1.4
				c-0.2,0.1-0.5,0.3-0.7,0.3c-0.1,0-0.1,0-0.2,0c-0.2,0-0.3-0.1-0.3-0.3c0-0.1,0-0.3,0-0.4c0-0.3,0.1-0.7,0.1-1c0-0.1,0-0.2,0-0.3
				c0-0.1-0.1-0.3-0.2-0.3c-0.2-0.1-0.4-0.2-0.6-0.2c-1.7-0.2-3.2-0.8-4.5-1.9c-0.9-0.7-1.6-1.5-2-2.5c-0.3-0.6-0.4-1.2-0.5-1.8
				c-0.1-1,0-2,0.5-2.9c0.4-0.9,0.9-1.6,1.6-2.2c1-1,2.3-1.6,3.6-2C36,5.2,36.6,5.1,37.2,5C37.5,5,37.9,5,38.3,5z"/>
			<path id="XMLID_7_" class="st5" d="M38.2,11.8C38.2,11.8,38.2,11.8,38.2,11.8c0,0.8,0,1.5,0,2.2c0,0.1-0.1,0.2-0.2,0.2
				c-0.2,0-0.4,0-0.5,0c-0.1,0-0.2-0.1-0.2-0.2c0-1.2,0-2.4,0-3.7c0-0.1,0.1-0.2,0.2-0.2c0.2,0,0.4,0,0.5,0c0.1,0,0.1,0,0.2,0.1
				c0.5,0.7,1.1,1.5,1.6,2.2c0,0,0,0,0,0.1c0,0,0,0,0-0.1c0-0.7,0-1.4,0-2.1c0-0.2,0.1-0.2,0.2-0.2c0.2,0,0.3,0,0.5,0
				c0.1,0,0.2,0.1,0.2,0.2c0,1.2,0,2.4,0,3.7c0,0.1-0.1,0.2-0.2,0.2c-0.2,0-0.3,0-0.5,0c-0.1,0-0.2,0-0.2-0.1
				C39.4,13.3,38.8,12.6,38.2,11.8C38.3,11.8,38.3,11.8,38.2,11.8z"/>
			<path id="XMLID_6_" class="st5" d="M41.4,12.1c0-0.6,0-1.2,0-1.8c0-0.2,0.1-0.2,0.2-0.2c0.8,0,1.5,0,2.3,0c0.2,0,0.2,0.1,0.2,0.2
				c0,0.2,0,0.4,0,0.5c0,0.1-0.1,0.2-0.2,0.2c-0.5,0-1,0-1.5,0c0,0-0.1,0-0.1,0.1c0,0.2,0,0.3,0,0.5c0,0.1,0,0.1,0.1,0.1
				c0.5,0,1,0,1.5,0c0.1,0,0.1,0,0.2,0c0,0,0.1,0.1,0.1,0.1c0,0.2,0,0.4,0,0.6c0,0.1-0.1,0.2-0.2,0.2c-0.4,0-0.8,0-1.2,0
				c-0.1,0-0.3,0-0.4,0c0,0-0.1,0,0,0.1c0,0.2,0,0.4,0,0.5c0,0,0,0.1,0.1,0.1c0.5,0,1,0,1.5,0c0.2,0,0.2,0.1,0.2,0.2
				c0,0.2,0,0.4,0,0.5c0,0.1-0.1,0.2-0.2,0.2c-0.8,0-1.6,0-2.3,0c-0.1,0-0.2-0.1-0.2-0.2C41.4,13.3,41.4,12.7,41.4,12.1z"/>
			<path id="XMLID_5_" class="st5" d="M32.5,12.1c0-0.6,0-1.2,0-1.8c0-0.2,0.1-0.2,0.2-0.2c0.2,0,0.3,0,0.5,0c0.2,0,0.2,0.1,0.2,0.2
				c0,0.9,0,1.9,0,2.8c0,0.1,0,0.1,0.1,0.1c0.5,0,1,0,1.5,0c0.2,0,0.2,0.1,0.2,0.2c0,0.2,0,0.4,0,0.5c0,0.1-0.1,0.2-0.2,0.2
				c-0.8,0-1.6,0-2.3,0c-0.1,0-0.2-0.1-0.2-0.2C32.5,13.3,32.5,12.7,32.5,12.1z"/>
			<path id="XMLID_4_" class="st5" d="M35.8,12.1c0-0.6,0-1.2,0-1.8c0-0.2,0.1-0.2,0.2-0.2c0.2,0,0.4,0,0.5,0c0.1,0,0.2,0.1,0.2,0.2
				c0,1.2,0,2.4,0,3.7c0,0.1-0.1,0.2-0.2,0.2c-0.2,0-0.4,0-0.5,0c-0.1,0-0.2-0.1-0.2-0.2C35.8,13.3,35.8,12.7,35.8,12.1z"/>
		</g>
	</g>
</g>
</svg>
