<?xml version="1.0" encoding="utf-8"?>
<!-- Generator: Adobe Illustrator 19.0.0, SVG Export Plug-In . SVG Version: 6.00 Build 0)  -->
<svg  width="30" height="30" version="1.1" id="Capa_1" xmlns="http://www.w3.org/2000/svg" xmlns:xlink="http://www.w3.org/1999/xlink" x="0px" y="0px"
	 viewBox="0 0 83.3 83.3" style="enable-background:new 0 0 83.3 83.3;" xml:space="preserve">
<style type="text/css">
	.st0{fill:#EFEFEF;}
	.st1{fill:#67B168;}
	.st2{fill:#FFFFFF;}
</style>
<g id="XMLID_35_">
	<path id="XMLID_4_" class="st0" d="M3.9,79.5l5.2-18.9c-3.4-5.9-5.2-12.4-5.2-19.2c0-20.6,16.9-37.5,37.7-37.5
		c20.7,0,37.9,16.9,37.9,37.5c0,20.6-17.2,38.1-37.9,38.1c-6.5,0-12.8-2.1-18.4-5.2L3.9,79.5z"/>
	<path id="XMLID_3_" class="st1" d="M24.2,67.5l1.2,0.7c4.8,3,10.4,4.8,16.3,4.8c17.1,0,31.3-14.2,31.3-31.5c0-17.3-14.2-31-31.4-31
		s-31.2,13.8-31.2,31c0,6,1.7,11.9,4.8,16.8l0.8,1.2l-3,11L24.2,67.5z"/>
	<path id="XMLID_2_" class="st2" d="M31.5,23.9L29,23.8c-0.8,0-1.6,0.3-2.1,0.8c-1.2,1-3.1,3-3.7,5.6c-0.9,3.9,0.5,8.6,3.9,13.3
		c3.4,4.7,9.9,12.3,21.4,15.5c3.6,1,6.5,0.4,8.9-1c1.8-1.2,3-3,3.4-5l0.4-1.8c0.1-0.5-0.1-1.2-0.6-1.4L52.4,46
		c-0.5-0.3-1.2-0.1-1.6,0.4l-3.3,4.2c-0.3,0.3-0.6,0.4-1,0.3c-2.2-0.8-9.6-3.9-13.7-11.7c-0.1-0.4-0.1-0.8,0.1-1l3.1-3.5
		c0.3-0.4,0.4-0.9,0.3-1.3l-3.8-8.5C32.4,24.3,32,23.9,31.5,23.9"/>
</g>
</svg>
