<?xml version="1.0" encoding="UTF-8"?>
<svg width="26px" height="34px" viewBox="0 0 26 34" version="1.1" xmlns="http://www.w3.org/2000/svg" xmlns:xlink="http://www.w3.org/1999/xlink">
    <!-- Generator: Sketch 55.2 (78181) - https://sketchapp.com -->
    <title>Group 2</title>
    <desc>Created with Sketch.</desc>
    <g id="Page-1" stroke="none" stroke-width="1" fill="none" fill-rule="evenodd">
        <g id="Group-2" transform="translate(0.000000, 0.618000)" fill-rule="nonzero">
            <path d="M24.064,9.115 L24.064,9.114 L25.9190048,30.329 C25.921,31.91 24.666,33.163 23.124,33.163 L2.797,33.163 C1.25365844,33.16245 0.00220625175,31.9123401 0,30.369 L1.859,9.074 C1.857,7.574 3.112,6.321 4.654,6.321 L7.488,6.321 L7.488,5.465 C7.488,2.452 9.943,0 12.96,0 C15.978,0 18.433,2.452 18.433,5.465 L18.433,6.321 L21.267,6.321 C22.8103416,6.32155001 24.0617937,7.57165992 24.064,9.115 Z M8.416,5.465 L8.417,5.465 L8.417,6.321 L17.504,6.321 L17.504,5.465 C17.4995888,2.95821885 15.4667848,0.92809897 12.96,0.927 C10.4532152,0.92809897 8.42041117,2.95821885 8.416,5.465 Z" id="Combined-Shape-Copy" fill="#FFD700"></path>
            <path d="M23.124,32.236 L2.797,32.236 C1.767,32.236 0.929,31.399 0.927,30.41 L2.786,9.114 C2.786,8.086 3.624,7.249 4.654,7.249 L7.488,7.249 L7.488,10.35 C7.488,10.6062601 7.69573988,10.814 7.952,10.814 C8.20826012,10.814 8.416,10.6062601 8.416,10.35 L8.416,7.249 L17.504,7.249 L17.504,10.35 C17.504,10.6068124 17.7121876,10.815 17.969,10.815 C18.2258124,10.815 18.434,10.6068124 18.434,10.35 L18.434,7.249 L21.267,7.249 C22.297,7.249 23.135,8.086 23.137,9.155 L24.992,30.369 C24.9903469,31.3998204 24.1548212,32.2348988 23.124,32.236 L23.124,32.236 Z" id="Shape-path-Copy" fill="#FFD700"></path>
            <path d="M11.377,18.713 L13.82,18.713 C15.0985392,18.713 16.135,17.6765392 16.135,16.398 C16.135,15.1194608 15.0985392,14.083 13.82,14.083 L11.377,14.083 C10.09687,14.083 9.05865534,15.1198711 9.057,16.4 L9.057,19.933 C9.057,19.933 9.601,18.713 11.377,18.713 M14.308,19.8569996 L11.615,19.8569996 C10.9367601,19.8567346 10.2862229,20.1260468 9.80663487,20.6056349 C9.32704681,21.0852229 9.0577346,21.7357601 9.0579996,22.414 L9.0579996,26.304 C9.0579996,26.304 9.657,24.966 11.615,24.966 L14.308,24.966 C15.7188114,24.966 16.8625,23.8223114 16.8625,22.4115 C16.8625,21.0006886 15.7188114,19.8569996 14.308,19.8569996" id="Shape-Copy" fill="#00768A"></path>
        </g>
    </g>
</svg>