<?xml version="1.0" encoding="UTF-8"?>
<svg width="42px" height="42px" viewBox="0 0 42 42" version="1.1" xmlns="http://www.w3.org/2000/svg" xmlns:xlink="http://www.w3.org/1999/xlink">
    <!-- Generator: Sketch 49.3 (51167) - http://www.bohemiancoding.com/sketch -->
    <title>Group 23</title>
    <desc>Created with Sketch.</desc>
    <defs></defs>
    <g id="Landing-Huawei-P20-Pro---Cambios" stroke="none" stroke-width="1" fill="none" fill-rule="evenodd">
        <g id="Landing-Huawei-P20-Pro" transform="translate(-451.000000, -5802.000000)">
            <g id="Reserva" transform="translate(1.000000, 5460.000000)">
                <g id="Group-48" transform="translate(206.000000, 109.000000)">
                    <g id="Group-23" transform="translate(244.000000, 233.000000)">
                        <g id="Group-25">
                            <path d="M21,42 C9.40202025,42 0,32.5979797 0,21 C0,9.40202025 9.40202025,0 21,0 C32.5979797,0 42,9.40202025 42,21 C42,32.5979797 32.5979797,42 21,42 Z M21,41 C32.045695,41 41,32.045695 41,21 C41,9.954305 32.045695,1 21,1 C9.954305,1 1,9.954305 1,21 C1,32.045695 9.954305,41 21,41 Z" id="Oval-6" fill="#E0E0E0" fill-rule="nonzero"></path>
                            <path d="M22,20 L30,20 C30.5522847,20 31,20.4477153 31,21 C31,21.5522847 30.5522847,22 30,22 L22,22 L22,30 C22,30.5522847 21.5522847,31 21,31 C20.4477153,31 20,30.5522847 20,30 L20,22 L12,22 C11.4477153,22 11,21.5522847 11,21 C11,20.4477153 11.4477153,20 12,20 L20,20 L20,12 C20,11.4477153 20.4477153,11 21,11 C21.5522847,11 22,11.4477153 22,12 L22,20 Z" id="Combined-Shape" fill="#129EA2"></path>
                        </g>
                    </g>
                </g>
            </g>
        </g>
    </g>
</svg>