<?xml version="1.0" encoding="UTF-8"?>
<svg width="51px" height="51px" viewBox="0 0 51 51" version="1.1" xmlns="http://www.w3.org/2000/svg" xmlns:xlink="http://www.w3.org/1999/xlink">
    <!-- Generator: Sketch 49.3 (51167) - http://www.bohemiancoding.com/sketch -->
    <title>Group 29</title>
    <desc>Created with Sketch.</desc>
    <defs></defs>
    <g id="Landing-Huawei-P20-Pro" stroke="none" stroke-width="1" fill="none" fill-rule="evenodd">
        <g transform="translate(-911.000000, -5886.000000)" id="Reserva">
            <g transform="translate(0.000000, 5460.000000)">
                <g id="Group-48" transform="translate(207.000000, 109.000000)">
                    <g id="Group-41" transform="translate(600.000000, 106.000000)">
                        <g id="Group-40" transform="translate(11.000000, 79.000000)">
                            <g id="Group-37">
                                <g id="Group-35" transform="translate(0.000000, 133.000000)">
                                    <g id="Group-32" transform="translate(80.000000, 0.000000)">
                                        <g id="Group-29" transform="translate(14.000000, 0.000000)">
                                            <circle id="Oval-2-Copy" stroke="#CFCFCF" fill="#FFFFFF" cx="24.5" cy="24.5" r="24.5"></circle>
                                            <g id="Llamadas" transform="translate(17.000000, 10.000000)">
                                                <path d="M2.017902,24.7687945 C1.59157245,24.7687945 1.24512542,24.4271261 1.24512542,24.0058206 L1.24512542,21.6783649 L13.3377765,21.6783649 L13.3377765,24.0058206 C13.3377765,24.4271261 12.9904612,24.7687945 12.5641317,24.7687945 L2.017902,24.7687945 Z M1.24512542,20.4504136 L13.3377765,20.4504136 L13.3377765,8.98267769 L1.24512542,8.98267769 L1.24512542,20.4504136 Z M12.5641317,5.70985358 C12.9904612,5.70985358 13.3377765,6.05237835 13.3377765,6.47197118 L13.3377765,7.75472641 L1.24512542,7.75472641 L1.24512542,6.47197118 C1.24512542,6.05237835 1.59157245,5.70985358 2.017902,5.70985358 L12.5641317,5.70985358 Z M2.017902,4.48275862 C0.905624693,4.48275862 0,5.37503563 0,6.47197118 L3.55271368e-14,24.0058206 C3.55271368e-14,25.1036125 0.905624693,25.9967458 2.017902,25.9967458 L12.5641317,25.9967458 C13.676409,25.9967458 14.5820337,25.1036125 14.5820337,24.0058206 L14.5820337,6.47197118 C14.5820337,5.37503563 13.676409,4.48275862 12.5641317,4.48275862 L2.017902,4.48275862 Z" id="Fill-1" fill="#393939" fill-rule="evenodd"></path>
                                                <path d="M8.89991342,22.4137931 L6.07710816,22.4137931 C5.73413429,22.4137931 5.45454545,22.6886692 5.45454545,23.0286251 C5.45454545,23.3668683 5.73413429,23.6426007 6.07710816,23.6426007 L8.89991342,23.6426007 C9.24375558,23.6426007 9.52247612,23.3668683 9.52247612,23.0286251 C9.52247612,22.6886692 9.24375558,22.4137931 8.89991342,22.4137931" id="Fill-4" fill="#393939" fill-rule="evenodd"></path>
                                                <path d="M7.31007061,7.28031594 C7.55232304,7.28031594 7.7485562,7.0551059 7.7485562,6.77766085 C7.7485562,6.5010721 7.55232304,6.27586207 7.31007061,6.27586207 L6.80212195,6.27586207 C6.55986952,6.27586207 6.36363636,6.5010721 6.36363636,6.77766085 C6.36363636,7.0551059 6.55986952,7.28031594 6.80212195,7.28031594 L7.31007061,7.28031594 Z" id="Fill-6" fill="#393939" fill-rule="evenodd"></path>
                                                <path d="M14.5454545,2.68965517 C16.3192472,3.65916846 17.2061435,5.14262302 17.2061435,7.14001886" id="Path-2" stroke="#595959" stroke-width="1.3"></path>
                                                <path d="M15.4909446,0.105064655 C18.4561435,1.65768678 19.9387429,3.97552981 19.9387429,7.05859375" id="Path-3" stroke="#5A5A5A" stroke-width="1.3"></path>
                                            </g>
                                        </g>
                                    </g>
                                </g>
                            </g>
                        </g>
                    </g>
                </g>
            </g>
        </g>
    </g>
</svg>