<?xml version="1.0" encoding="UTF-8"?>
<svg width="51px" height="51px" viewBox="0 0 51 51" version="1.1" xmlns="http://www.w3.org/2000/svg" xmlns:xlink="http://www.w3.org/1999/xlink">
    <!-- Generator: Sketch 49.3 (51167) - http://www.bohemiancoding.com/sketch -->
    <title>Group 28</title>
    <desc>Created with Sketch.</desc>
    <defs></defs>
    <g id="Landing-Huawei-P20-Pro" stroke="none" stroke-width="1" fill="none" fill-rule="evenodd">
        <g transform="translate(-991.000000, -5886.000000)" id="Reserva">
            <g transform="translate(0.000000, 5460.000000)">
                <g id="Group-48" transform="translate(207.000000, 109.000000)">
                    <g id="Group-41" transform="translate(600.000000, 106.000000)">
                        <g id="Group-40" transform="translate(11.000000, 79.000000)">
                            <g id="Group-37">
                                <g id="Group-35" transform="translate(0.000000, 133.000000)">
                                    <g id="Group-33" transform="translate(160.000000, 0.000000)">
                                        <g id="Group-28" transform="translate(14.000000, 0.000000)">
                                            <circle id="Oval-2-Copy-2" stroke="#CFCFCF" fill="#FFFFFF" cx="24.5" cy="24.5" r="24.5"></circle>
                                            <g id="MSN" transform="translate(11.000000, 15.000000)" fill="#3D3D3D">
                                                <path d="M24.9948,11.4365 C24.9948,12.854 23.8093714,14.0065 22.3513714,14.0065 L13.9029429,14.0065 L6.51008571,18.099 L8.46051429,14.0065 L4.51722857,14.0065 C3.05922857,14.0065 1.8738,12.854 1.8738,11.4365 L1.8738,4.474 C1.8738,3.0565 3.05922857,1.90275 4.51722857,1.90275 L22.3513714,1.90275 C23.8093714,1.90275 24.9948,3.0565 24.9948,4.474 L24.9948,11.4365 Z M22.3513714,0.65275 L4.51722857,0.65275 C2.3508,0.65275 0.588085714,2.3665 0.588085714,4.474 L0.588085714,11.4365 C0.588085714,13.54275 2.3508,15.2565 4.51722857,15.2565 L6.44837143,15.2565 L4.97108571,18.35275 C4.78722857,18.74025 4.8798,19.19275 5.20251429,19.4815 C5.3928,19.65025 5.6358,19.739 5.88137143,19.739 C6.05108571,19.739 6.22208571,19.69525 6.37765714,19.61025 L14.2436571,15.2565 L22.3513714,15.2565 C24.5178,15.2565 26.2805143,13.54275 26.2805143,11.4365 L26.2805143,4.474 C26.2805143,2.3665 24.5178,0.65275 22.3513714,0.65275 Z" id="Fill-1"></path>
                                                <path d="M9.8424,9.244125 C9.8424,9.569125 9.75754286,9.860375 9.58525714,10.119125 C9.41297143,10.377875 9.16097143,10.580375 8.82925714,10.727875 C8.49754286,10.874125 8.10411429,10.946625 7.65025714,10.946625 C7.10511429,10.946625 6.65511429,10.846625 6.30154286,10.646625 C6.05082857,10.502875 5.84768571,10.311625 5.69082857,10.069125 C5.53268571,9.830375 5.45425714,9.595375 5.45425714,9.369125 C5.45425714,9.236625 5.50182857,9.124125 5.59568571,9.029125 C5.69082857,8.936625 5.80911429,8.889125 5.95568571,8.889125 C6.07268571,8.889125 6.17297143,8.925375 6.25525714,8.999125 C6.33625714,9.071625 6.40568571,9.180375 6.46354286,9.324125 C6.53425714,9.495375 6.61011429,9.637875 6.6924,9.752875 C6.7734,9.867875 6.88782857,9.962875 7.03568571,10.037875 C7.18482857,10.111625 7.37897143,10.149125 7.6194,10.149125 C7.95111429,10.149125 8.22111429,10.074125 8.42811429,9.922875 C8.6364,9.774125 8.73925714,9.585375 8.73925714,9.361625 C8.73925714,9.182875 8.68397143,9.039125 8.57211429,8.926625 C8.46025714,8.816625 8.31625714,8.731625 8.13882857,8.672875 C7.9614,8.614125 7.72482857,8.551625 7.42782857,8.486625 C7.03054286,8.395375 6.70011429,8.289125 6.43268571,8.170375 C6.16525714,8.047875 5.95311429,7.884125 5.79625714,7.674125 C5.63811429,7.466625 5.55968571,7.206625 5.55968571,6.896625 C5.55968571,6.601625 5.64197143,6.339125 5.80782857,6.109125 C5.97368571,5.880375 6.21411429,5.704125 6.52782857,5.579125 C6.84154286,5.457875 7.21054286,5.395375 7.63482857,5.395375 C7.97425714,5.395375 8.2674,5.436625 8.51554286,5.519125 C8.7624,5.600375 8.96682857,5.709125 9.13011429,5.842875 C9.2934,5.980375 9.41297143,6.121625 9.48882857,6.270375 C9.5634,6.419125 9.60197143,6.564125 9.60197143,6.706625 C9.60197143,6.835375 9.5544,6.952875 9.46054286,7.056625 C9.36668571,7.160375 9.2484,7.211625 9.10825714,7.211625 C8.97968571,7.211625 8.88325714,7.181625 8.8164,7.117875 C8.74954286,7.056625 8.67754286,6.954125 8.59911429,6.812875 C8.49882857,6.610375 8.37797143,6.451625 8.23782857,6.339125 C8.09768571,6.224125 7.8714,6.167875 7.56025714,6.167875 C7.27097143,6.167875 7.03825714,6.230375 6.86211429,6.352875 C6.68468571,6.476625 6.59597143,6.624125 6.59597143,6.797875 C6.59597143,6.905375 6.62554286,6.997875 6.68597143,7.076625 C6.7464,7.154125 6.82868571,7.221625 6.93411429,7.277875 C7.03954286,7.334125 7.14625714,7.377875 7.25425714,7.409125 C7.36225714,7.441625 7.54097143,7.487875 7.78911429,7.549125 C8.10154286,7.619125 8.38311429,7.697875 8.6364,7.782875 C8.8884,7.867875 9.10311429,7.971625 9.28054286,8.094125 C9.45668571,8.216625 9.59554286,8.370375 9.69454286,8.557875 C9.79354286,8.744125 9.8424,8.972875 9.8424,9.244125" id="Fill-15"></path>
                                                <path d="M12.6561857,10.046125 L11.7716143,6.626125 L11.7716143,10.332375 C11.7716143,10.537375 11.7240429,10.691125 11.6301857,10.793625 C11.5363286,10.896125 11.4103286,10.947375 11.2547571,10.947375 C11.1043286,10.947375 10.9809,10.896125 10.8857571,10.794875 C10.7906143,10.694875 10.7430429,10.539875 10.7430429,10.332375 L10.7430429,6.083625 C10.7430429,5.849875 10.8060429,5.692375 10.9307571,5.608625 C11.0567571,5.528625 11.2264714,5.487375 11.4399,5.487375 L11.7857571,5.487375 C11.9940429,5.487375 12.1470429,5.504875 12.2409,5.541125 C12.3347571,5.578625 12.4041857,5.644875 12.4491857,5.739875 C12.4941857,5.834875 12.5456143,5.989875 12.6034714,6.204875 L13.4057571,9.144875 L14.2080429,6.204875 C14.2659,5.989875 14.3173286,5.834875 14.3623286,5.739875 C14.4073286,5.644875 14.4780429,5.578625 14.5719,5.541125 C14.6657571,5.504875 14.8174714,5.487375 15.0257571,5.487375 L15.3716143,5.487375 C15.5850429,5.487375 15.7547571,5.528625 15.8807571,5.608625 C16.0054714,5.692375 16.0684714,5.849875 16.0684714,6.083625 L16.0684714,10.332375 C16.0684714,10.537375 16.0221857,10.691125 15.9283286,10.793625 C15.8344714,10.896125 15.7071857,10.947375 15.5490429,10.947375 C15.4011857,10.947375 15.2790429,10.896125 15.1839,10.793625 C15.0887571,10.691125 15.0399,10.537375 15.0399,10.332375 L15.0399,6.626125 L14.1553286,10.046125 C14.0974714,10.268625 14.0511857,10.432375 14.0151857,10.536125 C13.9779,10.639875 13.9110429,10.733625 13.8120429,10.818625 C13.7143286,10.904875 13.5793286,10.947375 13.4057571,10.947375 C13.2746143,10.947375 13.1653286,10.918625 13.0740429,10.864875 C12.9840429,10.808625 12.9133286,10.739875 12.8631857,10.653625 C12.8130429,10.568625 12.7744714,10.474875 12.7449,10.369875 C12.7166143,10.267375 12.6857571,10.158625 12.6561857,10.046125" id="Fill-17"></path>
                                                <path d="M21.4138286,9.244125 C21.4138286,9.569125 21.3289714,9.860375 21.1566857,10.119125 C20.9844,10.377875 20.7324,10.580375 20.4006857,10.727875 C20.0689714,10.874125 19.6755429,10.946625 19.2216857,10.946625 C18.6765429,10.946625 18.2265429,10.846625 17.8729714,10.646625 C17.6222571,10.502875 17.4191143,10.311625 17.2622571,10.069125 C17.1041143,9.830375 17.0256857,9.595375 17.0256857,9.369125 C17.0256857,9.236625 17.0732571,9.124125 17.1671143,9.029125 C17.2622571,8.936625 17.3805429,8.889125 17.5271143,8.889125 C17.6441143,8.889125 17.7444,8.925375 17.8266857,8.999125 C17.9076857,9.071625 17.9771143,9.180375 18.0349714,9.324125 C18.1056857,9.495375 18.1815429,9.637875 18.2638286,9.752875 C18.3448286,9.867875 18.4592571,9.962875 18.6071143,10.037875 C18.7562571,10.111625 18.9504,10.149125 19.1908286,10.149125 C19.5225429,10.149125 19.7925429,10.074125 19.9995429,9.922875 C20.2078286,9.774125 20.3106857,9.585375 20.3106857,9.361625 C20.3106857,9.182875 20.2554,9.039125 20.1435429,8.926625 C20.0316857,8.816625 19.8876857,8.731625 19.7102571,8.672875 C19.5328286,8.614125 19.2962571,8.551625 18.9992571,8.486625 C18.6019714,8.395375 18.2715429,8.289125 18.0041143,8.170375 C17.7366857,8.047875 17.5245429,7.884125 17.3676857,7.674125 C17.2095429,7.466625 17.1311143,7.206625 17.1311143,6.896625 C17.1311143,6.601625 17.2134,6.339125 17.3792571,6.109125 C17.5451143,5.880375 17.7855429,5.704125 18.0992571,5.579125 C18.4129714,5.457875 18.7819714,5.395375 19.2062571,5.395375 C19.5456857,5.395375 19.8388286,5.436625 20.0869714,5.519125 C20.3338286,5.600375 20.5382571,5.709125 20.7015429,5.842875 C20.8648286,5.980375 20.9844,6.121625 21.0602571,6.270375 C21.1348286,6.419125 21.1734,6.564125 21.1734,6.706625 C21.1734,6.835375 21.1258286,6.952875 21.0319714,7.056625 C20.9381143,7.160375 20.8198286,7.211625 20.6796857,7.211625 C20.5511143,7.211625 20.4546857,7.181625 20.3878286,7.117875 C20.3209714,7.056625 20.2489714,6.954125 20.1705429,6.812875 C20.0702571,6.610375 19.9494,6.451625 19.8092571,6.339125 C19.6691143,6.224125 19.4428286,6.167875 19.1316857,6.167875 C18.8424,6.167875 18.6096857,6.230375 18.4335429,6.352875 C18.2561143,6.476625 18.1674,6.624125 18.1674,6.797875 C18.1674,6.905375 18.1969714,6.997875 18.2574,7.076625 C18.3178286,7.154125 18.4001143,7.221625 18.5055429,7.277875 C18.6109714,7.334125 18.7176857,7.377875 18.8256857,7.409125 C18.9336857,7.441625 19.1124,7.487875 19.3605429,7.549125 C19.6729714,7.619125 19.9545429,7.697875 20.2078286,7.782875 C20.4598286,7.867875 20.6745429,7.971625 20.8519714,8.094125 C21.0281143,8.216625 21.1669714,8.370375 21.2659714,8.557875 C21.3649714,8.744125 21.4138286,8.972875 21.4138286,9.244125" id="Fill-19"></path>
                                            </g>
                                        </g>
                                    </g>
                                </g>
                            </g>
                        </g>
                    </g>
                </g>
            </g>
        </g>
    </g>
</svg>