<svg xmlns="http://www.w3.org/2000/svg" width="59" height="33" viewBox="0 0 59 33">
    <path fill="#313233" fill-rule="evenodd" d="M57.127 20.778v-8.556h-3.05a.927.927 0 0 1-.936-.917V6.111c0-2.359-1.963-4.278-4.377-4.278H6.251c-2.414 0-4.378 1.92-4.378 4.278v20.778c0 2.359 1.964 4.278 4.378 4.278h42.513c2.414 0 4.377-1.92 4.377-4.278v-5.195c0-.506.42-.916.937-.916h3.049zm.936-10.39c.517 0 .937.411.937.917v10.39c0 .505-.42.916-.937.916h-3.049v4.278c0 3.37-2.804 6.111-6.25 6.111H6.251C2.804 33 0 30.259 0 26.889V6.111C0 2.741 2.804 0 6.25 0h42.514c3.446 0 6.25 2.741 6.25 6.111v4.278h3.05zM5.62 5.043c.517 0 .937.41.937.916v21.084c0 .506-.42.916-.937.916a.927.927 0 0 1-.936-.916V5.958c0-.506.42-.916.936-.916zm5.385 0c.517 0 .936.41.936.916v21.084c0 .506-.42.916-.936.916a.927.927 0 0 1-.937-.916V5.958c0-.506.42-.916.937-.916zm5.385 0c.517 0 .936.41.936.916v21.084c0 .506-.42.916-.936.916a.927.927 0 0 1-.937-.916V5.958c0-.506.42-.916.937-.916zm5.385 0c.517 0 .936.41.936.916v21.084c0 .506-.42.916-.936.916a.927.927 0 0 1-.937-.916V5.958c0-.506.42-.916.937-.916zm5.385 0c.517 0 .936.41.936.916v21.084c0 .506-.42.916-.936.916a.927.927 0 0 1-.937-.916V5.958c0-.506.42-.916.937-.916zm5.385 0c.517 0 .936.41.936.916v21.084c0 .506-.42.916-.936.916a.927.927 0 0 1-.937-.916V5.958c0-.506.42-.916.937-.916zm5.385 0c.517 0 .936.41.936.916v21.084c0 .506-.42.916-.936.916a.927.927 0 0 1-.937-.916V5.958c0-.506.42-.916.937-.916zm5.384 0c.517 0 .937.41.937.916v21.084c0 .506-.42.916-.937.916a.927.927 0 0 1-.936-.916V5.958c0-.506.42-.916.936-.916zm5.385 0c.517 0 .937.41.937.916v21.084c0 .506-.42.916-.937.916a.927.927 0 0 1-.936-.916V5.958c0-.506.42-.916.936-.916z"/>
</svg>
