<svg xmlns="http://www.w3.org/2000/svg" xmlns:xlink="http://www.w3.org/1999/xlink" width="300" height="137" viewBox="0 0 300 137">
    <defs>
        <filter id="prefix__a" width="102.3%" height="105.7%" x="-1.7%" y="-1.4%" filterUnits="objectBoundingBox">
            <feOffset dx="-3" dy="3" in="SourceAlpha" result="shadowOffsetOuter1"/>
            <feColorMatrix in="shadowOffsetOuter1" values="0 0 0 0 0 0 0 0 0 0 0 0 0 0 0 0 0 0 0.0942416958 0"/>
        </filter>
        <filter id="prefix__f" width="117.8%" height="132.2%" x="-8.9%" y="-12.1%" filterUnits="objectBoundingBox">
            <feOffset dy="3" in="SourceAlpha" result="shadowOffsetOuter1"/>
            <feGaussianBlur in="shadowOffsetOuter1" result="shadowBlurOuter1" stdDeviation="3.5"/>
            <feColorMatrix in="shadowBlurOuter1" values="0 0 0 0 0 0 0 0 0 0 0 0 0 0 0 0 0 0 0.12461757 0"/>
        </filter>
        <filter id="prefix__h" width="102.2%" height="110%" x="-1.6%" y="-2.5%" filterUnits="objectBoundingBox">
            <feOffset dx="-1" dy="1" in="SourceAlpha" result="shadowOffsetOuter1"/>
            <feColorMatrix in="shadowOffsetOuter1" values="0 0 0 0 0 0 0 0 0 0 0 0 0 0 0 0 0 0 0.197033435 0"/>
        </filter>
        <path id="prefix__c" d="M0 0.474L153.91 0.474 153.91 90 0 90z"/>
        <path id="prefix__g" d="M130.945 0c2.209 0 4 1.79 4 4v34.11c0 2.21-1.791 4-4 4H88.788L67.571 74.57l2.388-32.46H4c-2.21 0-4-1.79-4-4V4c0-2.21 1.79-4 4-4h126.945z"/>
        <path id="prefix__i" d="M22 11.278h3.053v19.428H22V11.278zm5.329 0h3.053V27.93h5.023v2.776H27.33V11.278zm9.547 0h3.053v19.428h-3.053V11.278zm5.33 0h4.357l1.943 13.905h.055l1.943-13.905h4.357v19.428h-2.886v-14.71h-.056l-2.22 14.71h-2.553l-2.22-14.71h-.056v14.71h-2.665V11.278zm14.931 0h3.053v19.428h-3.053V11.278zm7.716 2.775h-3.192v-2.775h9.437v2.775h-3.192v16.653h-3.053V14.053zm10.075-2.775h4.135l3.164 19.428h-3.053l-.555-3.858v.055H75.15l-.555 3.803h-2.831l3.164-19.428zm3.33 12.989l-1.36-9.603h-.055l-1.332 9.603h2.748zm5.44-12.99h4.663c1.518 0 2.655.408 3.414 1.222.759.814 1.138 2.007 1.138 3.58v9.825c0 1.573-.38 2.766-1.138 3.58-.759.815-1.896 1.222-3.414 1.222h-4.663V11.278zm4.608 16.653c.5 0 .883-.148 1.152-.444.268-.296.402-.777.402-1.443V15.94c0-.666-.134-1.147-.402-1.443-.269-.296-.653-.444-1.152-.444H86.75V27.93h1.555zm9.02-16.652h4.135l3.164 19.428h-3.053l-.555-3.858v.055h-3.469l-.555 3.803h-2.831l3.164-19.428zm3.33 12.989l-1.36-9.603h-.055l-1.332 9.603h2.748zm9.41 6.716c-1.48 0-2.6-.42-3.359-1.263-.759-.841-1.138-2.049-1.138-3.621v-1.11h2.887v1.332c0 1.258.527 1.887 1.582 1.887.518 0 .91-.153 1.18-.458.267-.305.402-.8.402-1.485 0-.814-.185-1.531-.555-2.151-.34-.568-.943-1.241-1.811-2.02l-.243-.214c-1.259-1.11-2.137-2.114-2.637-3.012-.5-.897-.75-1.91-.75-3.039 0-1.535.39-2.724 1.166-3.566.777-.842 1.906-1.263 3.386-1.263 1.462 0 2.568.42 3.317 1.263.75.842 1.124 2.049 1.124 3.622v.805h-2.886v-1c0-.666-.13-1.151-.389-1.457-.259-.305-.638-.458-1.138-.458-1.018 0-1.526.62-1.526 1.86 0 .703.19 1.36.569 1.97.347.56.955 1.229 1.824 2.006l.243.215c1.277 1.11 2.156 2.119 2.637 3.025.481.907.722 1.97.722 3.192 0 1.591-.394 2.812-1.18 3.664-.786.85-1.929 1.276-3.428 1.276z"/>
        <linearGradient id="prefix__e" x1="83.591%" x2="-12.176%" y1="32.87%" y2="81.707%">
            <stop offset="0%" stop-color="#B65398"/>
            <stop offset="100%" stop-color="#131B78"/>
        </linearGradient>
        <rect id="prefix__b" width="259" height="106" x="0" y="6" rx="7"/>
    </defs>
    <g fill="none" fill-rule="evenodd" transform="translate(3 4)">
        <use fill="#000" filter="url(#prefix__a)" xlink:href="#prefix__b"/>
        <use fill="#FCFCFC" xlink:href="#prefix__b"/>
        <text fill="#313233" font-family="BebasNeue-Regular, Bebas Neue" font-size="23">
            <tspan x="11" y="45">Todos nuestros </tspan> <tspan x="11" y="69">planes cuentan </tspan> <tspan x="11" y="93">con llamadas</tspan>
        </text>
        <g>
            <g transform="translate(126 42) translate(0 .526)">
                <mask id="prefix__d" fill="#fff">
                    <use xlink:href="#prefix__c"/>
                </mask>
                <path fill="#4CB9CA" d="M99.072.933c-1.697 0-3.39.374-4.677 1.12L2.325 55.56c-1.2.698-1.86 1.613-1.859 2.577 0 .97.672 1.892 1.89 2.595L50.13 88.417c2.597 1.5 6.81 1.5 9.39 0l92.07-53.505c1.197-.696 1.855-1.61 1.855-2.57-.002-.97-.675-1.893-1.894-2.597L103.778 2.058c-1.3-.75-3.005-1.125-4.706-1.125M54.832 90c-1.785 0-3.573-.393-4.935-1.18L2.124 61.134C.756 60.344.002 59.28 0 58.136c0-1.136.741-2.194 2.091-2.98l92.07-53.504c2.704-1.572 7.124-1.57 9.85.004l47.772 27.686c1.37.79 2.127 1.856 2.127 3 .002 1.133-.739 2.189-2.087 2.972L59.754 88.82C58.4 89.607 56.616 90 54.831 90" mask="url(#prefix__d)"/>
                <path fill="#E7E7E7" d="M140.638 30.634c2.353 1.358 2.365 3.56.028 4.919L58.063 83.556c-2.337 1.359-6.14 1.359-8.492 0L16.045 64.2c-2.352-1.358-2.364-3.56-.027-4.92L98.62 11.279c2.337-1.358 6.139-1.358 8.492 0l33.525 19.356z"/>
                <path fill="#E0F0F6" d="M116.639 11.8c-.34-.194-.88-.192-1.212 0-.332.194-.335.507.004.703l7.438 4.295c.334.192.88.192 1.212 0 .332-.193.33-.51-.004-.703l-7.438-4.294zm23.999 9.782c2.353 1.359 2.365 3.56.028 4.919L58.063 74.505c-2.337 1.358-6.14 1.358-8.491 0L16.045 55.149c-2.352-1.36-2.364-3.561-.027-4.92L98.62 2.227c2.337-1.358 6.139-1.358 8.492 0l33.525 19.356z"/>
                <path fill="#80AAD7" d="M140.666 26.501L58.062 74.504c-2.336 1.359-6.138 1.359-8.491 0L16.045 55.148c-1.184-.683-1.775-1.58-1.773-2.476l-.011 4.147c-.002.896.589 1.793 1.772 2.476L49.56 78.651c2.352 1.359 6.154 1.359 8.491 0l82.603-48.003c1.161-.675 1.742-1.558 1.744-2.442l.013-4.147c-.003.884-.584 1.767-1.745 2.442"/>
            </g>
            <path fill="url(#prefix__e)" d="M0.11 38.041L42.156 62.316 107.332 24.438 65.288 0.163z" transform="translate(126 42) translate(30 4.526)"/>
            <path fill="#80AAD7" d="M35.804 53.288l17.572 9.755c.483.269.59.735.239 1.041L49.81 66.41c-.35.306-1.023.337-1.505.068l-17.535-9.75c-.486-.27-.6-.737-.254-1.043l3.774-2.33c.348-.307 1.026-.336 1.513-.067z" transform="translate(126 42)"/>
            <g>
                <path fill="#FFF" d="M37.657 12.73c8.583 4.955 8.628 12.988.103 17.942-8.527 4.955-22.395 4.955-30.977 0-8.58-4.954-8.627-12.987-.1-17.942 8.525-4.955 22.394-4.955 30.974 0" opacity=".703" transform="translate(126 42) translate(64 11.526)"/>
                <path fill="#FFF" d="M33.231 15.302c6.121 3.534 6.154 9.264.072 12.797-6.08 3.535-15.971 3.535-22.092 0-6.123-3.533-6.155-9.263-.072-12.797 6.08-3.534 15.971-3.534 22.092 0" opacity=".388" transform="translate(126 42) translate(64 11.526)"/>
                <path fill="#FFF" d="M27.285 18.758c2.816 1.625 2.831 4.26.034 5.887-2.798 1.625-7.347 1.625-10.163 0-2.815-1.626-2.83-4.262-.033-5.887s7.347-1.625 10.162 0" transform="translate(126 42) translate(64 11.526)"/>
                <path fill="#80AAD7" d="M60.077 5.095c.334.193.336.51.004.702-.332.193-.878.193-1.212 0l-7.438-4.294c-.339-.196-.336-.51-.004-.702.332-.193.873-.196 1.212 0l7.438 4.294z" transform="translate(126 42) translate(64 11.526)"/>
            </g>
        </g>
        <g transform="translate(145)">
            <rect width="104.233" height="3.828" x="15" y="37" fill="#000" opacity=".223" rx="1.914"/>
            <use fill="#000" filter="url(#prefix__f)" xlink:href="#prefix__g"/>
            <use fill="#00A4A6" xlink:href="#prefix__g"/>
            <g fill-rule="nonzero">
                <use fill="#000" filter="url(#prefix__h)" xlink:href="#prefix__i"/>
                <use fill="#FFF" xlink:href="#prefix__i"/>
            </g>
        </g>
    </g>
</svg>
