<svg xmlns="http://www.w3.org/2000/svg" width="23" height="20" viewBox="0 0 23 20">
    <g fill="#008c95" fill-rule="evenodd">
        <path fill-rule="nonzero" d="M.63 2.522h.631v.631c0 .348.283.63.63.63.35 0 .631-.282.631-.63v-.63h.631c.348 0 .63-.283.63-.631 0-.348-.282-.63-.63-.63h-.63V.63C2.522.282 2.24 0 1.891 0c-.348 0-.63.282-.63.63v.631H.63c-.349 0-.631.283-.631.63 0 .35.282.631.63.631zM11.571 0c.73-.01 1.234.206 1.509.65.037.06.066.122.087.186.02.064.04.134.06.21.007.03.01.064.008.104-.002.04-.01.069-.026.088-.018.022-.045.036-.079.042-.033.006-.071.008-.113.008h-.457c-.034 0-.062-.003-.085-.01-.045-.02-.073-.05-.085-.091-.01-.042-.026-.083-.045-.125-.015-.037-.036-.077-.062-.118-.026-.042-.055-.074-.085-.096-.052-.038-.103-.07-.152-.096-.045-.02-.1-.035-.167-.048-.066-.013-.134-.022-.203-.026-.07-.003-.139-.002-.206.006-.068.007-.128.023-.181.045-.087.038-.154.082-.2.133-.048.05-.08.127-.1.229-.007.026-.009.055-.005.087.004.032.01.058.017.076.03.08.072.135.127.167.054.032.12.063.195.093.041.02.084.033.127.043.043.01.087.021.133.036.101.034.206.063.313.088.107.024.214.052.32.082.018.007.037.011.056.011.019 0 .037.004.056.011.076.027.154.051.235.074.08.022.153.054.217.096.102.064.19.128.263.192.073.064.142.147.206.249.019.03.035.064.048.101.013.038.027.076.042.113.004.011.006.022.006.031 0 .01.002.018.006.026.015.06.022.135.022.226.008.018.008.037 0 .056v.102l-.02.118c-.005.038-.014.076-.025.113-.022.068-.047.13-.073.187-.027.056-.059.11-.096.164-.015.018-.03.034-.046.048-.015.013-.028.029-.04.048-.018.022-.039.044-.061.065-.023.02-.047.04-.074.059-.018.015-.038.03-.059.045l-.065.045c-.064.042-.13.076-.2.102l-.218.08c-.053.018-.107.03-.164.036-.056.005-.113.014-.17.025-.026.008-.051.01-.075.009-.025-.002-.049 0-.071.008h-.045c-.008 0-.018 0-.031-.003-.014-.002-.024 0-.031.003-.02.004-.051.006-.096.006-.046 0-.078-.002-.096-.006h-.057c-.026-.007-.054-.01-.082-.008-.028.002-.054-.001-.076-.009-.019 0-.036 0-.051-.003-.015-.002-.032-.004-.05-.008-.046-.011-.093-.02-.142-.028-.049-.008-.094-.02-.136-.034-.184-.06-.346-.137-.485-.229-.14-.092-.256-.214-.35-.364-.06-.09-.108-.198-.142-.322-.007-.023-.012-.046-.014-.068-.002-.023-.007-.047-.014-.074-.008-.03-.013-.066-.017-.11-.004-.043.004-.076.023-.099.018-.03.046-.048.081-.053.036-.006.077-.009.122-.009h.452c.034 0 .064.006.09.017.042.02.066.05.074.093.007.044.02.088.04.133.014.045.033.087.056.124.022.038.047.074.073.108.019.022.04.043.062.062.023.019.045.036.068.05.083.053.185.097.305.13.026.008.052.012.076.012.025 0 .052.004.082.011h.028c.03.008.072.012.125.012.052 0 .094-.004.124-.012.011-.003.03-.005.056-.005l.06-.009c.02-.002.04-.006.06-.014.127-.034.229-.079.304-.136.075-.056.128-.15.158-.282.008-.026.009-.056.003-.09-.006-.034-.012-.06-.02-.08-.037-.101-.101-.18-.192-.237-.011-.007-.032-.019-.062-.034-.056-.033-.12-.06-.19-.081l-.205-.065c-.027-.008-.052-.015-.077-.02l-.081-.02c-.06-.019-.122-.035-.184-.048-.062-.013-.121-.03-.178-.048-.019-.008-.034-.011-.045-.011-.011 0-.025-.004-.04-.012-.03-.007-.057-.015-.082-.022-.024-.008-.051-.015-.081-.023-.087-.03-.17-.061-.249-.093-.08-.032-.153-.069-.22-.11-.087-.057-.166-.123-.238-.198-.071-.075-.128-.162-.17-.26-.014-.034-.025-.068-.033-.104-.007-.036-.017-.075-.028-.116-.008-.034-.013-.083-.017-.147-.004-.064-.002-.117.006-.158.003-.015.005-.038.005-.068.011-.041.02-.08.028-.118.008-.038.02-.076.034-.113.057-.132.13-.244.218-.337.088-.092.19-.176.308-.25.075-.046.156-.082.243-.108.086-.027.178-.051.276-.074.038-.007.075-.012.11-.014.036-.002.073-.006.11-.014.012-.004.03-.004.054 0 .025.004.04.002.048-.006zm2.199.085h.923c.062 0 .11.013.144.04.027.019.045.046.057.082l.034.104.065.184c.02.062.042.125.065.189.086.237.168.478.245.723.077.245.161.488.252.729.03.075.056.152.079.231.022.08.049.157.079.232l.022.056c.008.02.021.034.04.046l.023.01c.007.005.015.003.022-.005.03-.007.05-.03.062-.068l.034-.101c.03-.087.058-.173.082-.257.025-.085.052-.17.082-.257l.226-.692.226-.698.056-.178c.02-.058.038-.118.057-.178l.034-.09c.011-.03.032-.055.062-.074.022-.018.052-.028.087-.028h.972c.036 0 .063.008.082.023.041.022.062.065.062.127v3.63c0 .04 0 .081-.003.12-.002.04-.014.07-.036.088-.023.02-.051.03-.085.031-.034.002-.072.003-.113.003h-.424l-.076-.017c-.02-.004-.039-.017-.054-.04-.015-.018-.022-.043-.022-.073V2.141c-.004-.052-.006-.102-.006-.15v-.143c0-.03 0-.062.003-.094.002-.032-.001-.063-.009-.093-.007-.026-.011-.054-.011-.085 0-.03-.011-.049-.034-.056-.011-.004-.02-.002-.025.006l-.014.017c-.015.015-.028.033-.037.053-.01.02-.018.04-.026.06-.022.056-.044.114-.064.175l-.065.18c-.008.023-.015.046-.02.068-.006.023-.014.045-.026.068-.018.049-.035.098-.05.147-.016.049-.032.098-.051.147-.008.011-.012.023-.012.036 0 .014-.003.026-.01.037-.016.034-.028.07-.038.107-.01.038-.023.076-.042.113-.015.034-.027.07-.037.108-.01.037-.021.075-.036.113-.046.109-.085.22-.12.33-.033.111-.07.221-.112.33-.008.012-.011.023-.011.035 0 .01-.004.022-.012.033-.018.042-.034.084-.045.128-.011.043-.026.085-.045.127l-.031.073c-.01.023-.024.042-.042.057-.02.015-.038.023-.057.025-.019.002-.041.007-.068.014h-.13l-.093.003c-.036.002-.071.003-.107.003-.036 0-.069-.002-.099-.006s-.053-.011-.068-.022c-.03-.02-.05-.041-.062-.065l-.04-.088c-.018-.045-.034-.091-.048-.138-.013-.047-.029-.094-.048-.139l-.016-.05c-.02-.046-.036-.094-.051-.145-.015-.05-.032-.099-.051-.144l-.009-.03-.008-.032c-.019-.034-.034-.07-.045-.107-.012-.038-.025-.075-.04-.113-.004-.008-.006-.017-.008-.028-.002-.012-.005-.021-.009-.029-.015-.037-.027-.075-.037-.113-.009-.037-.023-.075-.042-.113-.03-.075-.058-.154-.085-.237-.026-.083-.054-.164-.084-.243-.034-.094-.066-.19-.096-.288-.03-.098-.066-.192-.108-.282-.019-.053-.04-.096-.062-.13-.007-.008-.015-.014-.022-.02-.008-.006-.017-.005-.029.003-.018.011-.028.03-.028.056 0 .027-.004.053-.011.08-.008.026-.01.053-.009.081.002.029.003.058.003.088v.124c0 .042-.002.083-.006.124v1.87c0 .03-.007.055-.022.074-.015.026-.043.043-.085.05-.026.008-.054.01-.085.009l-.09-.003h-.294c-.041 0-.079 0-.113-.003-.034-.002-.062-.012-.084-.03-.023-.02-.036-.049-.04-.088-.004-.04-.006-.08-.006-.122V.3c0-.03.002-.06.006-.088.004-.028.01-.05.017-.065.015-.026.045-.045.09-.056.008-.004.015-.005.023-.003s.015 0 .023-.003zM19.753 0c.73-.01 1.233.206 1.508.65.037.06.067.122.087.186.021.064.04.134.06.21.007.03.01.064.008.104-.002.04-.01.069-.025.088-.02.022-.045.036-.08.042-.033.006-.07.008-.112.008h-.458c-.034 0-.062-.003-.085-.01-.045-.02-.073-.05-.084-.091-.012-.042-.027-.083-.046-.125-.015-.037-.035-.077-.062-.118-.026-.042-.054-.074-.084-.096-.053-.038-.104-.07-.153-.096-.045-.02-.1-.035-.167-.048-.065-.013-.133-.022-.203-.026-.07-.003-.138-.002-.206.006-.068.007-.128.023-.18.045-.087.038-.154.082-.201.133-.047.05-.08.127-.1.229-.007.026-.009.055-.005.087.004.032.01.058.017.076.03.08.073.135.127.167.055.032.12.063.195.093.041.02.084.033.127.043.043.01.088.021.133.036.102.034.206.063.313.088.108.024.214.052.32.082.018.007.037.011.056.011.019 0 .038.004.057.011.075.027.153.051.234.074.08.022.153.054.217.096.102.064.19.128.263.192.074.064.142.147.206.249.02.03.035.064.048.101.013.038.028.076.043.113.003.011.005.022.005.031 0 .01.002.018.006.026.015.06.023.135.023.226.007.018.007.037 0 .056v.102c-.008.041-.015.08-.02.118-.006.038-.014.076-.026.113-.022.068-.047.13-.073.187-.026.056-.058.11-.096.164-.015.018-.03.034-.045.048-.015.013-.029.029-.04.048-.019.022-.04.044-.062.065-.023.02-.047.04-.073.059l-.06.045-.065.045c-.064.042-.13.076-.2.102l-.218.08c-.052.018-.107.03-.164.036-.056.005-.113.014-.169.025-.026.008-.052.01-.076.009-.025-.002-.048 0-.07.008h-.046c-.008 0-.018 0-.031-.003-.013-.002-.024 0-.031.003-.019.004-.051.006-.096.006-.045 0-.077-.002-.096-.006h-.057c-.026-.007-.053-.01-.082-.008-.028.002-.053-.001-.076-.009-.019 0-.036 0-.05-.003-.016-.002-.033-.004-.052-.008-.045-.011-.092-.02-.14-.028-.05-.008-.095-.02-.136-.034-.185-.06-.347-.137-.486-.229-.14-.092-.256-.214-.35-.364-.06-.09-.108-.198-.142-.322-.007-.023-.012-.046-.014-.068-.002-.023-.006-.047-.014-.074-.007-.03-.013-.066-.017-.11-.004-.043.004-.076.023-.099.019-.03.046-.048.082-.053.035-.006.076-.009.121-.009h.452c.034 0 .064.006.09.017.042.02.066.05.074.093.007.044.02.088.04.133.014.045.033.087.056.124.022.038.047.074.073.108.02.022.04.043.062.062.023.019.046.036.068.05.083.053.185.097.305.13.027.008.052.012.077.012.024 0 .051.004.081.011h.029c.03.008.071.012.124.012.053 0 .094-.004.124-.012.012-.003.03-.005.057-.005.019-.004.038-.007.059-.009.02-.002.04-.006.06-.014.127-.034.23-.079.304-.136.076-.056.128-.15.159-.282.007-.026.008-.056.002-.09-.005-.034-.012-.06-.02-.08-.037-.101-.101-.18-.191-.237-.012-.007-.032-.019-.063-.034-.056-.033-.12-.06-.189-.081-.07-.021-.138-.043-.206-.065-.026-.008-.052-.015-.076-.02l-.082-.02c-.06-.019-.122-.035-.184-.048-.062-.013-.121-.03-.178-.048-.019-.008-.034-.011-.045-.011-.011 0-.024-.004-.04-.012-.03-.007-.057-.015-.081-.022l-.082-.023c-.087-.03-.17-.061-.249-.093-.079-.032-.152-.069-.22-.11-.087-.057-.166-.123-.237-.198-.072-.075-.128-.162-.17-.26-.015-.034-.026-.068-.034-.104-.007-.036-.017-.075-.028-.116-.007-.034-.013-.083-.017-.147-.004-.064-.002-.117.006-.158.004-.015.005-.038.005-.068.012-.041.021-.08.029-.118.007-.038.018-.076.034-.113.056-.132.129-.244.217-.337.089-.092.191-.176.308-.25.075-.046.156-.082.243-.108.086-.027.179-.051.277-.074.037-.007.074-.012.11-.014.036-.002.072-.006.11-.014.011-.004.03-.004.054 0s.04.002.048-.006zM4.374 4.75c.999-1 2.625-1 3.624 0L9.81 6.561 6.91 9.46 5.46 8.01l-1.449 1.45 1.45 1.45-2.9 2.899L.75 11.998c-.999-1-.999-2.625 0-3.624zm2.864.678c-.603-.603-1.582-.604-2.182-.004L1.424 9.056c-.6.6-.599 1.58.004 2.182l1.093 1.093 1.452-1.452L2.516 9.42l2.905-2.905L6.88 7.973 8.33 6.521zM21.792 10.106c-.982-2.365-3.207-3.935-5.737-4.088-.044-.005-.094-.005-.143-.009h-.018c-.027 0-.054-.005-.08-.005H15.8c-.05 0-.099-.004-.153-.004-.874 0-1.727.17-2.538.507-1.642.678-2.92 1.957-3.598 3.6-.681 1.642-.681 3.45 0 5.088 1.032 2.496 3.445 4.111 6.145 4.111.036 0 .067 0 .103-.004.018 0 .04.004.059.004.009 0 .018 0 .022-.004.04 0 .076-.005.117-.005h.045c.013 0 .022 0 .035-.004.74-.04 1.467-.207 2.162-.494 1.642-.678 2.92-1.957 3.598-3.6.677-1.642.681-3.45 0-5.088-.005 0-.005 0-.005-.005 0 .005 0 .005 0 0zm-8.46-2.724c-.493.642-.887 1.481-1.147 2.455h-1.557c.606-1.086 1.548-1.943 2.705-2.455zm-3.108 3.348h1.768c-.103.606-.157 1.252-.157 1.93 0 .669.058 1.32.17 1.93h-1.78c-.449-1.257-.449-2.608 0-3.86zm.404 4.744h1.583c.279.991.7 1.849 1.216 2.504-1.175-.494-2.166-1.364-2.799-2.504zm4.741 2.88c-.928-.273-1.754-1.386-2.225-2.88h2.225v2.88zm0-3.769h-2.453c-.126-.61-.193-1.261-.193-1.93 0-.677.063-1.328.17-1.93h2.476v3.86zm0-4.743h-2.265c.453-1.544 1.278-2.635 2.265-2.886v2.886zm5.306-.005h-1.233c-.229-.857-.556-1.607-.969-2.208.91.512 1.677 1.27 2.202 2.208zm-4.418-2.886c.987.256 1.808 1.347 2.265 2.886h-2.265V6.951zm0 3.78h2.476c.112.6.17 1.247.17 1.929 0 .669-.067 1.32-.192 1.93h-2.454v-3.86zm0 7.624v-2.881h2.225c-.471 1.494-1.296 2.607-2.225 2.88zm2.126-.624c.435-.615.79-1.387 1.036-2.257h1.256c-.533.96-1.323 1.736-2.292 2.257zm2.696-3.146H19.62c.112-.61.17-1.256.17-1.93 0-.677-.053-1.324-.156-1.93h1.444c.448 1.257.448 2.608 0 3.86z"/>
        <path d="M8.302 16.958c.277-.16.277-.568 0-.73l-3.682-2.17c-.275-.163-.62.038-.62.365v4.34c0 .325.345.528.62.367l3.682-2.172z"/>
    </g>
</svg>
