<?xml version="1.0" encoding="UTF-8"?>
<svg width="42px" height="21px" viewBox="0 0 42 21" version="1.1" xmlns="http://www.w3.org/2000/svg" xmlns:xlink="http://www.w3.org/1999/xlink">
    <!-- Generator: Sketch 49.3 (51167) - http://www.bohemiancoding.com/sketch -->
    <title>Page 1</title>
    <desc>Created with Sketch.</desc>
    <defs></defs>
    <g id="Landing-Huawei-P20-Pro" stroke="none" stroke-width="1" fill="none" fill-rule="evenodd">
        <g id="Landing-Huawei-P20-Pro-Modal" transform="translate(-182.000000, -4877.000000)" fill="#4A4A4A">
            <g id="Modal" transform="translate(135.000000, 4750.000000)">
                <g id="Group-47" transform="translate(47.000000, 32.000000)">
                    <g id="Group-46">
                        <g id="Page-1" transform="translate(0.000000, 95.000000)">
                            <path d="M10.4313725,0.828947368 C5.13333333,0.828947368 0.823529412,5.16710526 0.823529412,10.5 C0.823529412,15.8328947 5.13333333,20.1710526 10.4313725,20.1710526 L31.5686275,20.1710526 C36.8666667,20.1710526 41.1764706,15.8328947 41.1764706,10.5 C41.1764706,5.16710526 36.8666667,0.828947368 31.5686275,0.828947368 L10.4313725,0.828947368 Z M31.5686275,21 L10.4313725,21 C4.66666667,21 0,16.3026316 0,10.5 C0,4.69736842 4.66666667,0 10.4313725,0 L31.5686275,0 C37.3333333,0 42,4.69736842 42,10.5 C42,16.3026316 37.3333333,21 31.5686275,21 Z" id="Fill-1"></path>
                            <path d="M31.1568627,3.17763158 C27.2313725,3.17763158 24.0196078,6.41052632 24.0196078,10.3618421 C24.0196078,14.3131579 27.2313725,17.5460526 31.1568627,17.5460526 C35.0823529,17.5460526 38.2941176,14.3131579 38.2941176,10.3618421 C38.2941176,6.41052632 35.0823529,3.17763158 31.1568627,3.17763158 M31.1568627,18.375 C26.7647059,18.375 23.1960784,14.7828947 23.1960784,10.3618421 C23.1960784,5.94078947 26.7647059,2.34868421 31.1568627,2.34868421 C35.5490196,2.34868421 39.1176471,5.94078947 39.1176471,10.3618421 C39.1176471,14.7828947 35.5490196,18.375 31.1568627,18.375" id="Fill-3"></path>
                            <path d="M31.1568627,4.80786711 C28.1098039,4.80786711 25.6392157,7.29470921 25.6392157,10.3618145 C25.6392157,13.4289197 28.1098039,15.9157618 31.1568627,15.9157618 C34.2039216,15.9157618 36.6745098,13.4289197 36.6745098,10.3618145 C36.6745098,7.29470921 34.2039216,4.80786711 31.1568627,4.80786711 M31.1568627,16.7447092 C27.6705882,16.7447092 24.8156863,13.871025 24.8156863,10.3618145 C24.8156863,6.85260395 27.6705882,3.97891974 31.1568627,3.97891974 C34.6431373,3.97891974 37.4980392,6.85260395 37.4980392,10.3618145 C37.4980392,13.871025 34.6431373,16.7447092 31.1568627,16.7447092" id="Fill-5"></path>
                            <path d="M31.1568627,6.49342105 C29.0343529,6.49342105 27.3137255,8.22536842 27.3137255,10.3618421 C27.3137255,12.4983158 29.0343529,14.2302632 31.1568627,14.2302632 C33.2793725,14.2302632 35,12.4983158 35,10.3618421 C35,8.22536842 33.2793725,6.49342105 31.1568627,6.49342105" id="Fill-7"></path>
                            <path d="M10.8431373,3.17763158 C6.91764706,3.17763158 3.70588235,6.41052632 3.70588235,10.3618421 C3.70588235,14.3131579 6.91764706,17.5460526 10.8431373,17.5460526 C14.7686275,17.5460526 17.9803922,14.3131579 17.9803922,10.3618421 C17.9803922,6.41052632 14.7686275,3.17763158 10.8431373,3.17763158 M10.8431373,18.375 C6.45098039,18.375 2.88235294,14.7828947 2.88235294,10.3618421 C2.88235294,5.94078947 6.45098039,2.34868421 10.8431373,2.34868421 C15.2352941,2.34868421 18.8039216,5.94078947 18.8039216,10.3618421 C18.8039216,14.7828947 15.2352941,18.375 10.8431373,18.375" id="Fill-9"></path>
                            <path d="M10.8431373,4.80786711 C7.79607843,4.80786711 5.3254902,7.29470921 5.3254902,10.3618145 C5.3254902,13.4289197 7.79607843,15.9157618 10.8431373,15.9157618 C13.8901961,15.9157618 16.3607843,13.4289197 16.3607843,10.3618145 C16.3607843,7.29470921 13.8901961,4.80786711 10.8431373,4.80786711 M10.8431373,16.7447092 C7.35686275,16.7447092 4.50196078,13.871025 4.50196078,10.3618145 C4.50196078,6.85260395 7.35686275,3.97891974 10.8431373,3.97891974 C14.3294118,3.97891974 17.1843137,6.85260395 17.1843137,10.3618145 C17.1843137,13.871025 14.3294118,16.7447092 10.8431373,16.7447092" id="Fill-11"></path>
                            <path d="M10.8431373,6.49342105 C8.72062745,6.49342105 7,8.22536842 7,10.3618421 C7,12.4983158 8.72062745,14.2302632 10.8431373,14.2302632 C12.9656471,14.2302632 14.6862745,12.4983158 14.6862745,10.3618421 C14.6862745,8.22536842 12.9656471,6.49342105 10.8431373,6.49342105" id="Fill-13"></path>
                        </g>
                    </g>
                </g>
            </g>
        </g>
    </g>
</svg>