<?xml version="1.0" encoding="utf-8"?>
<!-- Generator: Adobe Illustrator 19.0.0, SVG Export Plug-In . SVG Version: 6.00 Build 0)  -->
<svg version="1.1" id="Capa_1" xmlns="http://www.w3.org/2000/svg" xmlns:xlink="http://www.w3.org/1999/xlink" x="0px" y="0px"
	 viewBox="-324.1 143.1 18.5 37" style="enable-background:new -324.1 143.1 18.5 37;" xml:space="preserve">
<style type="text/css">
	.st0{fill:#FFFFFF;}
</style>
<title>Camara</title>
<desc>Created with Sketch.</desc>
<g id="Landing-Huawei-P20-Pro">
	<g id="Camara-2" transform="translate(-1192.000000, -1825.000000)">
		<g transform="translate(0.000000, 1560.000000)">
			<g id="Group-16-Copy" transform="translate(1150.000000, 159.000000)">
				<g id="Group-6" transform="translate(0.000000, 81.000000)">
					<g id="Camara" transform="translate(42.000000, 25.000000)">
						<g id="Page-1">
							<path id="Fill-1" class="st0" d="M-306.4,152.3c0-4.7-3.8-8.5-8.6-8.5s-8.6,3.8-8.6,8.5v18.6c0,4.7,3.8,8.5,8.6,8.5
								s8.6-3.8,8.6-8.5V152.3z M-324.1,170.9v-18.6c0-5.1,4.2-9.2,9.3-9.2c5.1,0,9.3,4.2,9.3,9.2v18.6c0,5.1-4.2,9.2-9.3,9.2
								C-320,180.1-324.1,176-324.1,170.9z"/>
							<path id="Fill-3" class="st0" d="M-308.4,170.6c0-3.4-2.8-6.3-6.4-6.3c-3.5,0-6.4,2.8-6.4,6.3c0,3.4,2.8,6.3,6.4,6.3
								C-311.3,176.8-308.4,174-308.4,170.6 M-321.8,170.6c0-3.9,3.2-7.1,7.1-7.1s7.1,3.2,7.1,7.1c0,3.9-3.2,7.1-7.1,7.1
								S-321.8,174.4-321.8,170.6"/>
							<path id="Fill-5" class="st0" d="M-309.8,170.6c0-2.6-2.2-4.9-4.9-4.9c-2.7,0-4.9,2.2-4.9,4.9c0,2.6,2.2,4.9,4.9,4.9
								C-312,175.4-309.8,173.2-309.8,170.6 M-320.4,170.6c0-3.1,2.6-5.6,5.7-5.6c3.1,0,5.7,2.6,5.7,5.6c0,3-2.6,5.6-5.7,5.6
								C-317.9,176.1-320.4,173.7-320.4,170.6"/>
							<path id="Fill-7" class="st0" d="M-311.3,170.6c0-1.9-1.5-3.4-3.4-3.4c-1.9,0-3.4,1.5-3.4,3.4c0,1.9,1.5,3.4,3.4,3.4
								C-312.8,173.9-311.3,172.4-311.3,170.6"/>
							<path id="Fill-9" class="st0" d="M-308.4,152.6c0-3.4-2.8-6.3-6.4-6.3c-3.5,0-6.4,2.8-6.4,6.3s2.8,6.3,6.4,6.3
								C-311.3,158.9-308.4,156.1-308.4,152.6 M-321.8,152.6c0-3.9,3.2-7.1,7.1-7.1s7.1,3.2,7.1,7.1s-3.2,7.1-7.1,7.1
								S-321.8,156.5-321.8,152.6"/>
							<path id="Fill-11" class="st0" d="M-309.8,152.6c0-2.6-2.2-4.9-4.9-4.9c-2.7,0-4.9,2.2-4.9,4.9c0,2.6,2.2,4.9,4.9,4.9
								C-312,157.5-309.8,155.3-309.8,152.6 M-320.4,152.6c0-3.1,2.6-5.6,5.7-5.6c3.1,0,5.7,2.6,5.7,5.6s-2.6,5.6-5.7,5.6
								C-317.9,158.2-320.4,155.7-320.4,152.6"/>
							<path id="Fill-13" class="st0" d="M-311.3,152.6c0-1.9-1.5-3.4-3.4-3.4c-1.9,0-3.4,1.5-3.4,3.4c0,1.9,1.5,3.4,3.4,3.4
								C-312.8,156-311.3,154.5-311.3,152.6"/>
						</g>
					</g>
				</g>
			</g>
		</g>
	</g>
</g>
</svg>
