<?xml version="1.0" encoding="UTF-8"?>
<svg width="19px" height="37px" viewBox="0 0 19 37" version="1.1" xmlns="http://www.w3.org/2000/svg" xmlns:xlink="http://www.w3.org/1999/xlink">
    <!-- Generator: Sketch 49.3 (51167) - http://www.bohemiancoding.com/sketch -->
    <title>pantalla</title>
    <desc>Created with Sketch.</desc>
    <defs></defs>
    <g id="Landing-Huawei-P20-Pro" stroke="none" stroke-width="1" fill="none" fill-rule="evenodd">
        <g transform="translate(-1205.000000, -3454.000000)" fill="#FFFFFF" id="Pantalla-2">
            <g transform="translate(0.000000, 3120.000000)">
                <g id="Group-16-Copy-6" transform="translate(1151.000000, 159.000000)">
                    <g id="Group-7" transform="translate(0.000000, 158.000000)">
                        <g id="pantalla" transform="translate(54.000000, 17.000000)">
                            <path d="M17.7936508,33.3902439 C17.7936508,33.901626 17.4015873,34.2926829 16.8888889,34.2926829 L2.11111111,34.2926829 C1.5984127,34.2926829 1.20634921,33.901626 1.20634921,33.3902439 L1.20634921,2.40650407 C1.20634921,1.89512195 1.5984127,1.50406504 2.11111111,1.50406504 L6.63492063,1.50406504 C6.63492063,2.34634146 7.2984127,3.00813008 8.14285714,3.00813008 L10.5555556,3.00813008 C11.4,3.00813008 12.0634921,2.34634146 12.0634921,1.50406504 L16.8888889,1.50406504 C17.4015873,1.50406504 17.7936508,1.89512195 17.7936508,2.40650407 L17.7936508,33.3902439 Z M16.8888889,0 L10.5555556,0 L8.14285714,0 L2.11111111,0 C0.934920635,0 0,0.932520325 0,2.10569106 L0,34.8943089 C0,36.0674797 0.934920635,37 2.11111111,37 L16.8888889,37 C18.0650794,37 19,36.0674797 19,34.8943089 L19,2.10569106 C19,0.932520325 18.0650794,0 16.8888889,0 Z" id="Page-1"></path>
                        </g>
                    </g>
                </g>
            </g>
        </g>
    </g>
</svg>