<?xml version="1.0" encoding="UTF-8"?>
<svg width="69px" height="57px" viewBox="0 0 69 57" version="1.1" xmlns="http://www.w3.org/2000/svg" xmlns:xlink="http://www.w3.org/1999/xlink">
    <!-- Generator: Sketch 49.3 (51167) - http://www.bohemiancoding.com/sketch -->
    <title>Fill 2</title>
    <desc>Created with Sketch.</desc>
    <defs></defs>
    <g id="Landing-Huawei-P20-Pro" stroke="none" stroke-width="1" fill="none" fill-rule="evenodd">
        <g transform="translate(-138.000000, -4369.000000)" fill="#333333" id="Procesador">
            <g transform="translate(0.000000, 3900.000000)">
                <g id="Group-19" transform="translate(138.000000, 255.000000)">
                    <g id="Group-17" transform="translate(0.000000, 214.000000)">
                        <g id="Page-1">
                            <path d="M64.400115,30.2272727 C62.81484,30.2272727 61.525115,28.9358485 61.525115,27.3484848 C61.525115,25.7611212 62.81484,24.469697 64.400115,24.469697 C65.98539,24.469697 67.275115,25.7611212 67.275115,27.3484848 C67.275115,28.9358485 65.98539,30.2272727 64.400115,30.2272727 Z M46.287615,41.4545455 L46.287615,47.7878788 L37.662615,47.7878788 L35.937615,47.7878788 L33.062615,47.7878788 L31.337615,47.7878788 L22.137615,47.7878788 L22.137615,36.8484848 L22.137615,35.1212121 L22.137615,10.3636364 L46.287615,10.3636364 L46.287615,39.7272727 L46.287615,41.4545455 Z M59.225115,37.7121212 C60.81039,37.7121212 62.100115,39.0035455 62.100115,40.5909091 C62.100115,42.1782727 60.81039,43.469697 59.225115,43.469697 C57.63984,43.469697 56.350115,42.1782727 56.350115,40.5909091 C56.350115,39.0035455 57.63984,37.7121212 59.225115,37.7121212 Z M4.600115,38.8636364 C3.01484,38.8636364 1.725115,37.5722121 1.725115,35.9848485 C1.725115,34.3974848 3.01484,33.1060606 4.600115,33.1060606 C6.18539,33.1060606 7.475115,34.3974848 7.475115,35.9848485 C7.475115,37.5722121 6.18539,38.8636364 4.600115,38.8636364 Z M10.925115,22.7424242 C9.33984,22.7424242 8.050115,21.451 8.050115,19.8636364 C8.050115,18.2762727 9.33984,16.9848485 10.925115,16.9848485 C12.51039,16.9848485 13.800115,18.2762727 13.800115,19.8636364 C13.800115,21.451 12.51039,22.7424242 10.925115,22.7424242 Z M64.400115,22.7424242 C61.960965,22.7424242 59.96399,24.6550909 59.81449,27.0606061 L48.012615,27.0606061 L48.012615,8.63636364 L37.662615,8.63636364 L37.662615,0 L35.937615,0 L35.937615,8.63636364 L33.062615,8.63636364 L33.062615,0 L31.337615,0 L31.337615,8.63636364 L20.412615,8.63636364 L20.412615,19 L15.441165,19 C15.03579,16.872 13.166465,15.2575758 10.925115,15.2575758 C8.38879,15.2575758 6.325115,17.3239697 6.325115,19.8636364 C6.325115,22.403303 8.38879,24.469697 10.925115,24.469697 C13.166465,24.469697 15.03579,22.8552727 15.441165,20.7272727 L20.412615,20.7272727 L20.412615,35.1212121 L9.116165,35.1212121 C8.71079,32.9932121 6.841465,31.3787879 4.600115,31.3787879 C2.06379,31.3787879 0.000115,33.4451818 0.000115,35.9848485 C0.000115,38.5245152 2.06379,40.5909091 4.600115,40.5909091 C6.841465,40.5909091 8.71079,38.9764848 9.116165,36.8484848 L20.412615,36.8484848 L20.412615,49.5151515 L31.337615,49.5151515 L31.337615,57 L33.062615,57 L33.062615,49.5151515 L35.937615,49.5151515 L35.937615,57 L37.662615,57 L37.662615,49.5151515 L48.012615,49.5151515 L48.012615,41.4545455 L54.709065,41.4545455 C55.11444,43.5825455 56.983765,45.1969697 59.225115,45.1969697 C61.76144,45.1969697 63.825115,43.1305758 63.825115,40.5909091 C63.825115,38.0512424 61.76144,35.9848485 59.225115,35.9848485 C56.983765,35.9848485 55.11444,37.5992727 54.709065,39.7272727 L48.012615,39.7272727 L48.012615,28.7878788 L60.03299,28.7878788 C60.638465,30.6239697 62.365765,31.9545455 64.400115,31.9545455 C66.93644,31.9545455 69.000115,29.8881515 69.000115,27.3484848 C69.000115,24.8088182 66.93644,22.7424242 64.400115,22.7424242 Z" id="Fill-2"></path>
                        </g>
                    </g>
                </g>
            </g>
        </g>
    </g>
</svg>