<svg xmlns="http://www.w3.org/2000/svg" width="19" height="34" viewBox="0 0 19 34">
    <path fill="#4A4A4A" fill-rule="evenodd" d="M17.794 30.493V4.281c0-.497-.392-.877-.905-.877H2.11c-.513 0-.905.38-.905.877v26.212c0 .497.392.877.905.877H16.89c.513 0 .905-.38.905-.877zM10.556 0h6.333C18.065 0 19 .906 19 2.046v29.908c0 1.14-.935 2.046-2.111 2.046H2.11C.935 34 0 33.094 0 31.954V2.046C0 .906.935 0 2.111 0h8.445zm-2.07.971a.486.486 0 1 0 0 .972h2.028a.486.486 0 1 0 0-.972H8.486zM15.5 2a.5.5 0 1 0 0-1 .5.5 0 0 0 0 1z"/>
</svg>
