<?xml version="1.0" encoding="UTF-8"?>
<svg width="35px" height="69px" viewBox="0 0 35 69" version="1.1" xmlns="http://www.w3.org/2000/svg" xmlns:xlink="http://www.w3.org/1999/xlink">
    <!-- Generator: Sketch 49.3 (51167) - http://www.bohemiancoding.com/sketch -->
    <title>Page 1</title>
    <desc>Created with Sketch.</desc>
    <defs></defs>
    <g id="Landing-Huawei-P20-Pro" stroke="none" stroke-width="1" fill="none" fill-rule="evenodd">
        <g transform="translate(-136.000000, -3592.000000)" fill="#4E4E4E" id="Pantalla-2">
            <g transform="translate(0.000000, 3120.000000)">
                <g id="Group-30" transform="translate(135.000000, 161.000000)">
                    <g id="Group-24" transform="translate(1.000000, 311.000000)">
                        <g id="pantalla-copy">
                            <path d="M32.7777778,62.2682927 C32.7777778,63.2219512 32.0555556,63.9512195 31.1111111,63.9512195 L3.88888889,63.9512195 C2.94444444,63.9512195 2.22222222,63.2219512 2.22222222,62.2682927 L2.22222222,4.48780488 C2.22222222,3.53414634 2.94444444,2.80487805 3.88888889,2.80487805 L12.2222222,2.80487805 C12.2222222,4.37560976 13.4444444,5.6097561 15,5.6097561 L19.4444444,5.6097561 C21,5.6097561 22.2222222,4.37560976 22.2222222,2.80487805 L31.1111111,2.80487805 C32.0555556,2.80487805 32.7777778,3.53414634 32.7777778,4.48780488 L32.7777778,62.2682927 Z M31.1111111,0 L19.4444444,0 L15,0 L3.88888889,0 C1.72222222,0 0,1.73902439 0,3.92682927 L0,65.0731707 C0,67.2609756 1.72222222,69 3.88888889,69 L31.1111111,69 C33.2777778,69 35,67.2609756 35,65.0731707 L35,3.92682927 C35,1.73902439 33.2777778,0 31.1111111,0 Z" id="Page-1"></path>
                        </g>
                    </g>
                </g>
            </g>
        </g>
    </g>
</svg>