<svg xmlns="http://www.w3.org/2000/svg" width="803" height="616" viewBox="0 0 803 616">
    <g fill="none" fill-rule="evenodd" opacity=".422">
        <path fill="#FF7DA0" d="M722.252 445.54L720 443.286c1.589-1.59 1.689-2.981 1.816-4.754.145-1.927.318-4.335 2.742-6.771 2.424-2.418 4.83-2.6 6.754-2.736 1.77-.127 3.17-.227 4.749-1.827 1.589-1.582 1.68-2.981 1.816-4.736.127-1.936.308-4.344 2.732-6.771 2.425-2.427 4.83-2.59 6.764-2.736 1.753-.127 3.142-.218 4.73-1.818 1.59-1.581 1.68-2.972 1.807-4.735.136-1.936.309-4.327 2.733-6.763 2.433-2.418 4.812-2.59 6.746-2.736 1.77-.118 3.16-.218 4.73-1.809 1.589-1.59 1.689-2.972 1.816-4.735.145-1.936.318-4.345 2.742-6.763 2.415-2.426 4.82-2.608 6.754-2.735 1.762-.137 3.142-.237 4.722-1.818 1.588-1.582 1.697-2.982 1.824-4.736.137-1.936.3-4.326 2.715-6.762 2.433-2.427 4.84-2.59 6.764-2.736 1.752-.127 3.15-.218 4.73-1.809l2.243 2.254c-2.424 2.427-4.812 2.59-6.737 2.736-1.77.118-3.16.218-4.74 1.809-1.579 1.581-1.688 2.972-1.806 4.735-.145 1.927-.309 4.327-2.733 6.763-2.415 2.418-4.82 2.59-6.764 2.727-1.752.136-3.132.236-4.72 1.827-1.59 1.581-1.69 2.972-1.817 4.735-.154 1.936-.317 4.345-2.732 6.763-2.424 2.426-4.83 2.59-6.755 2.735-1.761.128-3.15.219-4.73 1.81-1.598 1.58-1.68 2.971-1.816 4.735-.136 1.936-.309 4.326-2.724 6.762-2.424 2.427-4.83 2.6-6.773 2.745-1.743.118-3.15.218-4.712 1.809-1.607 1.59-1.698 2.981-1.825 4.736-.136 1.936-.308 4.344-2.733 6.771-2.424 2.427-4.83 2.609-6.773 2.745-1.752.127-3.14.227-4.73 1.818-1.598 1.59-1.707 2.99-1.816 4.754-.145 1.936-.317 4.335-2.741 6.771"/>
        <path fill="#4A90E2" d="M13.243 470.876L11 468.622c2.397-2.4 2.542-4.554 2.742-7.053.19-2.736.418-5.845 3.65-9.08 3.223-3.236 6.328-3.464 9.06-3.664 2.506-.181 4.667-.336 7.055-2.745 2.397-2.381 2.551-4.544 2.733-7.035.2-2.745.417-5.844 3.64-9.08 3.233-3.218 6.32-3.445 9.061-3.636 2.497-.182 4.649-.336 7.046-2.736 2.387-2.39 2.533-4.544 2.723-7.044.191-2.736.418-5.835 3.632-9.08 3.223-3.218 6.32-3.436 9.06-3.627 2.489-.182 4.64-.327 7.028-2.727 2.397-2.381 2.551-4.544 2.715-7.044.209-2.736.436-5.835 3.659-9.071l2.251 2.254c-2.397 2.382-2.542 4.545-2.733 7.044-.181 2.736-.417 5.836-3.631 9.072-3.232 3.235-6.337 3.444-9.07 3.644-2.488.173-4.64.328-7.018 2.709-2.397 2.4-2.56 4.554-2.733 7.062-.2 2.736-.409 5.827-3.64 9.062-3.224 3.227-6.32 3.454-9.062 3.645-2.487.182-4.648.337-7.027 2.727-2.397 2.39-2.57 4.554-2.733 7.044-.2 2.745-.417 5.845-3.659 9.08-3.213 3.227-6.319 3.455-9.06 3.654-2.506.182-4.649.337-7.055 2.745-2.397 2.391-2.542 4.554-2.733 7.054-.19 2.745-.426 5.853-3.658 9.08"/>
        <path fill="#6FD6F2" d="M199.997 189v-2.369c9.724 0 17.635-7.912 17.635-17.631 0-9.726-7.911-17.638-17.635-17.638-9.718 0-17.622 7.912-17.622 17.638H180c0-11.032 8.966-20 19.997-20 11.037 0 20.003 8.968 20.003 20s-8.966 20-20.003 20zm-18.895-16.998l-.102-.736 2.37-.266.088.668-2.356.334zm.558 2.588c-.081-.252-.136-.497-.197-.756l2.328-.538c.041.211.096.416.157.613l-2.288.681zm.885 2.467a13.262 13.262 0 0 1-.286-.722l2.233-.811c.069.19.157.388.239.579l-2.186.954zm1.219 2.337l-.374-.654 2.083-1.145.333.572-2.042 1.227zm1.49 2.146a17.459 17.459 0 0 1-.455-.6l1.94-1.39.395.518-1.88 1.472zm1.778 1.955l-.518-.51 1.689-1.69.483.49-1.654 1.71zm2.022 1.703l-.606-.463 1.477-1.874.524.402-1.395 1.935zm2.205 1.424a22.34 22.34 0 0 1-.68-.402l1.273-2.01c.184.116.367.218.551.32l-1.144 2.092zm2.376 1.124l-.694-.293.953-2.187.62.253-.879 2.227zm2.499.798l-.722-.205.674-2.282.647.17-.6 2.317zm2.6.456l-.735-.102.334-2.35.667.081-.266 2.371z"/>
        <path fill="#FF0" d="M180.478 470.942l-.563-.01.182-3.18zM153.658 444.65l-.01-.563h3.188z"/>
        <path fill="#FF8D19" d="M781.822 263.681a19.706 19.706 0 0 1-14.027-5.817c-7.727-7.744-7.727-20.342 0-28.086l2.251 2.254c-6.5 6.49-6.5 17.08 0 23.578 3.133 3.154 7.327 4.89 11.776 4.89 4.44 0 8.634-1.736 11.775-4.89 6.501-6.499 6.501-17.088 0-23.578l2.243-2.254c7.735 7.744 7.735 20.342 0 28.086a19.67 19.67 0 0 1-14.018 5.817zm-1.845-36.436l-.372-3.163c.336-.046.699-.064 1.044-.073l.09 3.172c-.263.01-.508.037-.762.064zm3.704 0a11.185 11.185 0 0 0-.826-.073l.209-3.172c.327.018.654.045.99.082l-.373 3.163zm-6.546.563l-.935-3.044c.336-.1.681-.191 1.017-.264l.654 3.108a9.72 9.72 0 0 0-.736.2zm9.388.01a14.818 14.818 0 0 0-.79-.219l.745-3.09c.317.082.644.173.962.273l-.917 3.036zm-12.111 1.063l-1.399-2.863.836-.391 1.389 2.863-.826.391zm14.835 0l-.79-.364 1.307-2.9.854.4-1.371 2.864zm-17.323 1.527l-1.852-2.6.78-.536 1.79 2.627-.718.509zm19.82.018l-.736-.518 1.789-2.627.744.518-1.798 2.627z"/>
        <path fill="#ADFF00" d="M587.086 227.385l-2.343-2.163.273-.291 2.351 2.163-1.226-1.018zM610.546 227.385l.944-1.309-1.235 1.018 2.252-2.254-1.126 1.127 1.226-1.036.281.29z"/>
        <path fill="#17A5EB" d="M4.494 110.306l13.81 13.825 13.8-13.825-13.8-13.816-13.81 13.816zm13.81 18.315L0 110.306 18.303 92l18.277 18.306-18.277 18.315z"/>
        <path fill="#BB1945" d="M635.484 430.597h14.136l-7.073-12.244-7.063 12.244zm19.629 3.181H630L642.547 412l12.566 21.778z"/>
        <path stroke="#3F94E5" stroke-width="3" d="M259.09 613.437L274.178 592H244z"/>
        <path fill="#FF2C6A" d="M546.169 97.888h14.699V83.18h-14.7v14.707zM543 101.06h21.036V80H543v21.06z"/>
        <path fill="#FCC081" d="M627.192 83.181c-5.52 0-10.023 4.5-10.023 10.026s4.503 10.025 10.023 10.025c5.51 0 10.005-4.499 10.005-10.025 0-5.527-4.494-10.026-10.005-10.026m0 23.233c-7.29 0-13.192-5.927-13.192-13.207C614 85.927 619.901 80 627.192 80c7.272 0 13.174 5.926 13.174 13.207 0 7.28-5.902 13.207-13.174 13.207"/>
        <path fill="#FFAA2F" d="M659.644 510.181h-21.77V507h27.2v27.232h-3.177v-21.797l-29.636 29.67L630 539.85l29.644-29.67z"/>
        <path fill="#FFA42D" d="M619.644 3.181h-21.788V0h27.22v27.24h-3.179V5.435l-29.645 29.67L590 32.852l29.644-29.67z"/>
        <path fill="#18B9EB" d="M78.988 208.189H70v-3.181h8.988V196h3.187v9.008h9.006v3.18h-9.006v9.017h-3.187v-9.016z"/>
        <path fill="#0149C6" d="M133.164 474.432L128 469.254l2.243-2.254 5.17 5.177 5.164-5.177 2.26 2.254-5.171 5.178 5.17 5.175-2.262 2.254-5.16-5.174-5.169 5.174-2.242-2.254 5.161-5.175z"/>
    </g>
</svg>
