<?xml version="1.0" encoding="UTF-8"?>
<svg width="16px" height="16px" viewBox="0 0 16 16" version="1.1" xmlns="http://www.w3.org/2000/svg" xmlns:xlink="http://www.w3.org/1999/xlink">
    <!-- Generator: Sketch 49.3 (51167) - http://www.bohemiancoding.com/sketch -->
    <title>Calendario</title>
    <desc>Created with Sketch.</desc>
    <defs></defs>
    <g id="Landing-Huawei-P20---Antes-del-20/05" stroke="none" stroke-width="1" fill="none" fill-rule="evenodd">
        <g id="Landing-Huawei-P20" transform="translate(-137.000000, -573.000000)" fill="#9B9B9B">
            <g id="Principal" transform="translate(135.000000, 159.000000)">
                <g id="Group-22" transform="translate(0.000000, 119.000000)">
                    <g id="Group-25" transform="translate(2.000000, 294.000000)">
                        <g id="Calendario" transform="translate(0.000000, 1.000000)">
                            <g id="Combined-Shape">
                                <path d="M15.2666667,0.666666667 L12,0.666666667 C12,0.266666667 11.7333333,0 11.3333333,0 C10.9333333,0 10.6666667,0.266666667 10.6666667,0.666666667 L5.33333333,0.666666667 C5.33333333,0.266666667 5.06666667,0 4.66666667,0 C4.26666667,0 4,0.266666667 4,0.666666667 L0.733333333,0.666666667 C0.333333333,0.666666667 0,1 0,1.4 L0,15.2666667 C0,15.6666667 0.333333333,16 0.733333333,16 L15.2666667,16 C15.6666667,16 16,15.6666667 16,15.2666667 L16,1.4 C16,1 15.6666667,0.666666667 15.2666667,0.666666667 Z M14.6666667,14.6666667 L1.33333333,14.6666667 L1.33333333,5.33333333 L14.6666667,5.33333333 L14.6666667,14.6666667 Z M14.6666667,4.66666667 L1.33333333,4.66666667 L1.33333333,2 L4,2 L4,2.66666667 C4,3.06666667 4.26666667,3.33333333 4.66666667,3.33333333 C5.06666667,3.33333333 5.33333333,3.06666667 5.33333333,2.66666667 L5.33333333,2 L10.6666667,2 L10.6666667,2.66666667 C10.6666667,3.06666667 10.9333333,3.33333333 11.3333333,3.33333333 C11.7333333,3.33333333 12,3.06666667 12,2.66666667 L12,2 L14.6666667,2 L14.6666667,4.66666667 Z M6.86666667,11.8 L5.46666667,10.4666667 C5.2,10.2 5.2,9.8 5.46666667,9.53333333 C5.73333333,9.26666667 6.13333333,9.26666667 6.4,9.53333333 L7.33333333,10.4666667 L9.6,8.13333333 C9.86666667,7.86666667 10.2666667,7.86666667 10.5333333,8.13333333 C10.8,8.4 10.8,8.8 10.5333333,9.06666667 L7.8,11.8 C7.53333333,12.0666667 7.13333333,12.0666667 6.86666667,11.8 Z" fill-rule="nonzero"></path>
                            </g>
                        </g>
                    </g>
                </g>
            </g>
        </g>
    </g>
</svg>