<?xml version="1.0" encoding="utf-8"?>
<!-- Generator: Adobe Illustrator 19.0.0, SVG Export Plug-In . SVG Version: 6.00 Build 0)  -->
<svg version="1.1" id="Capa_1" xmlns="http://www.w3.org/2000/svg" xmlns:xlink="http://www.w3.org/1999/xlink" x="0px" y="0px"
	 viewBox="0 0 48.8 52.8" style="enable-background:new 0 0 48.8 52.8;" xml:space="preserve">
<style type="text/css">
	.st0{fill:#008996;}
</style>
<g id="XMLID_3_">
	<path id="XMLID_39_" class="st0" d="M25,24.7c0.1,0,0.1,0,0.2,0h4.7c0.1,0,0.1,0,0.2,0c0.1,0,0.1,0,0.1,0.2c0,0.4,0,0.9,0,1.3
		c0,1.3-0.1,2.7-0.1,4c0,0.2,0,0.4,0,0.6c-0.3,0-4.7,0-5,0c0-0.1,0-0.3,0-0.4c0-1.3-0.1-2.5-0.1-3.8c0-0.2,0-0.3,0-0.5
		c0-0.4,0-0.8,0-1.1C24.8,24.7,24.8,24.7,25,24.7"/>
	<path id="XMLID_38_" class="st0" d="M38.4,23.3C38.4,23.3,38.3,23.3,38.4,23.3c-0.4,0-0.4,0-0.3-0.3c0-0.2,0.1-0.4,0.1-0.7
		c0.1-0.9,0.2-1.7,0.4-2.6c0.1-0.6,0.2-1.2,0.3-1.8c0,0,0-0.1,0.1-0.1c0.1,0,0.1,0,0.2,0c1.9,0,3.8,0,5.7,0c0.1,0,0.1,0,0.2,0
		c0,0,0,0,0,0.1c0,0.3-0.1,0.6-0.1,0.9c-0.2,1.4-0.5,2.8-0.7,4.1c-0.1,0.4-0.1,0.3-0.4,0.3C42,23.3,40.2,23.3,38.4,23.3"/>
	<path id="XMLID_37_" class="st0" d="M31.8,23.3c-0.1,0-0.1,0-0.2,0c-0.1,0-0.1,0-0.1-0.1c0-0.1,0-0.2,0-0.2c0-0.4,0-0.9,0-1.3
		c0-1,0.1-1.9,0.1-2.9c0-0.3,0-0.5,0-0.8c0,0,0-0.1,0.1-0.1c0.1,0,0.1,0,0.2,0c1.8,0,3.6,0,5.4,0c0.1,0,0.1,0,0.2,0c0,0,0,0,0.1,0.1
		c0,0.1,0,0.3,0,0.4c-0.1,0.9-0.2,1.7-0.4,2.6c-0.1,0.7-0.2,1.3-0.3,2c-0.1,0.3,0,0.3-0.3,0.3C34.9,23.3,33.3,23.3,31.8,23.3"/>
	<path id="XMLID_36_" class="st0" d="M31.3,30.4c0-1.5,0.1-3.1,0.1-4.6c0-0.3,0-0.6,0-0.9c0-0.2,0-0.2,0.1-0.2c0,0,0.1,0,0.1,0
		c1.6,0,3.1,0,4.7,0c0.1,0,0.1,0,0.2,0.1c-0.1,0.6-0.2,1.3-0.3,1.9c-0.1,1-0.3,2.1-0.4,3.1c0,0.3-0.1,0.6-0.1,1
		c0,0.1-0.1,0.1-0.1,0.1c-0.1,0-0.2,0-0.3,0c-1.3,0-2.5,0-3.8,0c-0.3,0-0.3,0-0.3-0.3C31.3,30.4,31.3,30.4,31.3,30.4"/>
	<path id="XMLID_35_" class="st0" d="M37.3,28.8c0.1-0.9,0.2-1.7,0.4-2.6c0.1-0.5,0.1-0.9,0.2-1.4c0,0,0-0.1,0-0.1
		c0.1,0,0.1,0,0.2,0c1.9,0,3.7,0,5.6,0c0.1,0,0.1,0,0.2,0c0,0.1,0,0.3-0.1,0.4c-0.2,1.1-0.4,2.2-0.6,3.3c-0.1,0.7-0.2,1.5-0.4,2.2
		c0,0.1,0,0.1-0.1,0.1c-0.1,0-0.2,0-0.3,0c-1.8,0-3.5,0-5.3,0c-0.1,0-0.1,0-0.2,0c-0.1,0-0.1,0-0.1-0.2C37.1,30,37.2,29.4,37.3,28.8
		"/>
	<path id="XMLID_34_" class="st0" d="M39.4,16.4c0,0-0.1,0-0.1,0c-0.2,0-0.2,0-0.2-0.3c0-0.4,0.1-0.8,0.2-1.2c0.1-1,0.3-2,0.4-3.1
		c0.1-0.5,0.1-1,0.2-1.5c0,0,0-0.1,0.1-0.1c0.1,0,0.2,0,0.3,0c1.9,0,3.9,0,5.8,0c0.1,0,0.2,0,0.3,0c0,0,0.1,0.1,0.1,0.1
		c0,0,0,0.1,0,0.1c0,0.1,0,0.2,0,0.3c0,0,0,0,0,0.1c-0.3,1.8-0.6,3.5-0.9,5.3c0,0.3,0,0.3-0.3,0.3c0,0-0.1,0-0.1,0
		C43.1,16.4,41.2,16.4,39.4,16.4"/>
	<path id="XMLID_33_" class="st0" d="M23.1,16.4c-0.1,0-0.1,0-0.2,0h-5.3c-0.1,0-0.1,0-0.2,0c-0.1,0-0.1,0-0.2-0.1c0,0,0-0.1,0-0.1
		c-0.1-0.8-0.2-1.6-0.3-2.4c-0.1-1-0.3-2-0.4-3.1c0-0.1,0-0.2,0-0.3c0-0.1,0-0.1,0.1-0.1c0.1,0,0.2,0,0.3,0h3h3c0.1,0,0.2,0,0.3,0
		c0.1,0,0.1,0,0.1,0.2c0,0.1,0,0.2,0,0.3c0,0.3,0,0.7,0,1c0,1.4,0.1,2.8,0.1,4.2c0,0.1,0,0.2,0,0.2C23.3,16.4,23.2,16.4,23.1,16.4"
		/>
	<path id="XMLID_32_" class="st0" d="M38.2,12.4c-0.1,0.9-0.2,1.7-0.4,2.5c-0.1,0.4-0.1,0.9-0.2,1.3c0,0.2,0,0.2-0.2,0.2
		c-0.1,0-0.1,0-0.2,0c-1.3,0-2.7,0-4,0c-0.5,0-0.9,0-1.4,0c-0.2,0-0.2,0-0.2-0.2c0,0,0-0.1,0-0.1c0-0.5,0-1,0-1.5
		c0-1.3,0.1-2.6,0.1-3.9c0-0.1,0-0.2,0-0.3c0,0,0-0.1,0.1-0.1c0.1,0,0.1,0,0.2,0c2.1,0,4.1,0,6.2,0c0.1,0,0.2,0,0.3,0
		c-0.1,0.4-0.1,0.9-0.2,1.3C38.3,11.9,38.3,12.1,38.2,12.4"/>
	<path id="XMLID_31_" class="st0" d="M10.3,17.8c0.1,0,0.2,0,0.3,0c1.7,0,3.5,0,5.2,0c0.1,0,0.1,0,0.2,0c0.2,0,0.2,0,0.2,0.2
		c0,0.3,0.1,0.7,0.1,1c0.1,1,0.3,2,0.4,3c0,0.4,0.1,0.7,0.1,1.1c0,0.1,0,0.2-0.2,0.1c-0.1,0-0.2,0-0.3,0c-1.7,0-3.3,0-5,0
		c-0.4,0-0.3,0-0.4-0.3c0,0,0-0.1,0-0.1c-0.2-1.2-0.4-2.5-0.6-3.7c-0.1-0.4-0.2-0.8-0.2-1.2C10.3,17.9,10.3,17.9,10.3,17.8"/>
	<path id="XMLID_30_" class="st0" d="M11.5,24.7c0.1,0,0.1,0,0.2,0h5.1c0.1,0,0.1,0,0.2,0c0.1,0,0.1,0,0.1,0.1c0,0,0,0.1,0,0.1
		c0.1,0.6,0.2,1.3,0.3,1.9c0.2,1.2,0.3,2.4,0.5,3.6c0,0.1,0,0.2,0,0.3c0,0,0,0-0.1,0.1c-0.1,0-0.1,0-0.2,0c-1.7,0-3.3,0-5,0h0
		c-0.2,0-0.2,0-0.3-0.3c0-0.3-0.1-0.6-0.1-0.9c-0.2-1.1-0.4-2.2-0.5-3.3c-0.1-0.5-0.2-1.1-0.3-1.6C11.4,24.8,11.4,24.7,11.5,24.7"/>
	<path id="XMLID_29_" class="st0" d="M9.1,10.3c0.1,0,0.2,0,0.3,0h5.3c0.1,0,0.1,0,0.2,0c0.1,0,0.2,0,0.2,0.2c0,0,0,0.1,0,0.1
		c0.1,0.4,0.1,0.9,0.2,1.3c0,0.3,0.1,0.7,0.1,1c0,0.1,0,0.2,0,0.3c0,0,0,0,0,0.1c0.1,0.4,0.1,0.9,0.2,1.3c0,0.1,0,0.1,0,0.2
		c0.1,0.4,0.1,0.8,0.2,1.2c0.1,0.4,0.1,0.4-0.3,0.4c-1.7,0-3.5,0-5.2,0c-0.1,0-0.1,0-0.2,0c-0.1,0-0.1,0-0.2-0.2c0-0.1,0-0.2,0-0.3
		c-0.3-1.7-0.5-3.3-0.8-5c0-0.2-0.1-0.4-0.1-0.6C9,10.3,9.1,10.3,9.1,10.3"/>
	<path id="XMLID_28_" class="st0" d="M24.5,10.3c0.1,0,0.2,0,0.3,0h2.7h2.7c0.1,0,0.2,0,0.3,0c0.1,0,0.1,0,0.1,0.1
		c0,0.1,0,0.1,0,0.2c0,0.6,0,1.2,0,1.8c0,1.3-0.1,2.6-0.1,3.8c0,0.2,0,0.2-0.2,0.2h-0.1l-5.2,0c-0.1,0-0.1,0-0.2,0
		c-0.1,0-0.1-0.1-0.1-0.1c0-0.1,0-0.1,0-0.2c0-1.1-0.1-2.2-0.1-3.3c0-0.7,0-1.5-0.1-2.2C24.4,10.5,24.4,10.4,24.5,10.3
		C24.4,10.3,24.4,10.3,24.5,10.3"/>
	<path id="XMLID_27_" class="st0" d="M24.8,17.8c1.8,0,3.5,0,5.3,0c0.1,0,0.1,0,0.2,0c0.1,0,0.1,0.1,0.1,0.1c0,0,0,0.1,0,0.1
		c0,0.4,0,0.8,0,1.1c0,1.1-0.1,2.2-0.1,3.3c0,0.2,0,0.4,0,0.6c0,0.2,0,0.2-0.2,0.2c0,0-0.1,0-0.1,0c-1.6,0-3.3,0-4.9,0
		c-0.3,0-0.3,0-0.3-0.3c0-1.1-0.1-2.1-0.1-3.2c0-0.3,0-0.5,0-0.8c0-0.4,0-0.7,0-1.1C24.6,17.8,24.7,17.8,24.8,17.8"/>
	<path id="XMLID_26_" class="st0" d="M18.5,24.7c0.1,0,0.1,0,0.2,0c1.5,0,3,0,4.5,0c0.1,0,0.1,0,0.2,0c0.1,0,0.1,0,0.1,0.1
		c0,0.1,0,0.1,0,0.2c0,0.9,0,1.8,0.1,2.7c0,0.9,0,1.9,0.1,2.8c0,0.1,0,0.2,0,0.3c0,0,0,0-0.1,0.1c0,0-0.1,0-0.1,0c-1.3,0-2.7,0-4,0
		c-0.1,0-0.1,0-0.2,0c0-0.1,0-0.2-0.1-0.3c-0.1-0.6-0.2-1.3-0.3-1.9c-0.1-0.9-0.2-1.8-0.4-2.6c0-0.4-0.1-0.7-0.1-1.1
		C18.4,24.8,18.4,24.7,18.5,24.7"/>
	<path id="XMLID_25_" class="st0" d="M17.5,17.9C17.5,17.9,17.5,17.8,17.5,17.9c0.1-0.1,0.2-0.1,0.3-0.1c1.7,0,3.5,0,5.2,0
		c0.1,0,0.2,0,0.3,0c0,0,0,0,0,0.1c0.1,0.1,0,0.2,0,0.2c0,0.3,0,0.7,0,1c0,1.3,0.1,2.5,0.1,3.8c0,0.3,0,0.3-0.3,0.3
		c-1.6,0-3.1,0-4.7,0c0,0-0.1,0-0.1,0c-0.1,0-0.2,0-0.2-0.2c-0.1-0.5-0.1-1-0.2-1.5c-0.1-0.9-0.2-1.7-0.4-2.6
		C17.6,18.6,17.5,18.3,17.5,17.9"/>
	<path id="XMLID_8_" class="st0" d="M0.2,2.7c0,0,0,0.1,0,0.1l0,0c0,0,0.1,0.1,0.1,0.1c0.2,0.3,0.5,0.4,0.8,0.5
		c0.7,0.2,1.4,0.4,2,0.5c0.5,0.1,0.9,0.2,1.4,0.4c0.1,0,0.2,0.1,0.2,0.3c0.2,1,0.3,2,0.5,3C5.5,9,5.8,10.3,6,11.7
		c0.2,1.3,0.4,2.7,0.7,4c0.2,1.3,0.4,2.7,0.7,4c0.2,1.3,0.4,2.7,0.7,4c0.2,1.2,0.4,2.4,0.6,3.6C8.8,28.6,9,29.8,9.2,31
		c0.2,1.4,0.5,2.7,0.7,4.1c0.1,0.7,0.2,1.3,0.3,2c0,0.1,0,0.2,0,0.3c0,0,0,0.1,0,0.1c0.1,0.6,0.2,1.3,0.3,1.9c0,0.3,0.1,0.5,0.1,0.8
		c0.2,0.9,0.9,1.4,1.5,1.4c0.1,0,0.3,0,0.4,0c9.7,0,19.5,0,29.2,0c0.2,0,0.4,0,0.6,0c0.7-0.2,1.1-0.7,1.2-1.5c0-0.1,0-0.2,0-0.3
		c0,0,0-0.1,0-0.1c0,0,0-0.1,0-0.1c0-0.1-0.1-0.2-0.1-0.3c-0.2-0.6-0.7-1-1.3-1.1c-0.2,0-0.4,0-0.6,0c-9.2,0-18.4,0-27.6,0
		c-0.1,0-0.2,0-0.3,0c-0.1,0-0.1-0.1-0.2-0.1c0-0.1,0-0.1,0-0.2c-0.2-1.1-0.4-2.2-0.6-3.4c-0.1-0.3-0.1-0.7-0.1-1c0,0,0-0.1,0-0.1
		c0.1,0,0.2,0,0.3,0c10.1,0,20.3,0,30.4,0c0.2,0,0.5,0,0.7-0.1c0.3-0.2,0.5-0.5,0.5-0.9c0-0.3,0.1-0.7,0.2-1c0.2-1.3,0.4-2.7,0.7-4
		c0.2-1.4,0.5-2.7,0.7-4.1c0.1-0.5,0.2-1,0.3-1.5c0-0.1,0-0.1,0-0.2c0-0.1,0-0.2,0-0.2c0.2-1.3,0.4-2.6,0.6-3.9
		c0.2-1.4,0.5-2.7,0.7-4.1c0.1-0.4,0.1-0.7,0.2-1.1c0.1-0.6,0.2-1.2,0.3-1.7c0.1-0.4,0.1-0.8,0.2-1.3c0-0.1,0-0.2,0-0.2
		c0-0.7-0.5-1.1-0.9-1.1c-0.3,0-0.7,0-1,0c0,0-0.1,0-0.1,0c-0.1,0-0.2,0-0.3,0c-12.5,0-24.9,0-37.4,0c-0.1,0-0.2,0-0.4,0
		c-0.1-0.3-0.1-0.7-0.2-1C8.2,5.4,8,4.1,7.8,2.8C7.6,1.9,7.2,1.4,6.5,1.2C5,0.8,3.5,0.5,2.1,0.1C1.8,0,1.4,0,1.1,0.1
		C0.7,0.2,0.4,0.6,0.2,1c0,0.1-0.1,0.1-0.1,0.2c0,0.1,0,0.1,0,0.2C0,1.9,0,2.3,0.2,2.7 M23.3,16.3c0,0.1,0,0.1-0.1,0.1
		c-0.1,0-0.1,0-0.2,0h-5.3c-0.1,0-0.1,0-0.2,0c-0.1,0-0.1,0-0.2-0.1c0,0,0-0.1,0-0.1c-0.1-0.8-0.2-1.6-0.3-2.4c-0.1-1-0.3-2-0.4-3.1
		c0-0.1,0-0.2,0-0.3c0-0.1,0-0.1,0.1-0.1c0.1,0,0.2,0,0.3,0h3h3c0.1,0,0.2,0,0.3,0c0.1,0,0.1,0,0.1,0.2c0,0.1,0,0.2,0,0.3
		c0,0.3,0,0.7,0,1c0,1.4,0.1,2.8,0.1,4.2C23.3,16.1,23.3,16.2,23.3,16.3 M38.5,10.3c-0.1,0.4-0.1,0.9-0.2,1.3c0,0.3-0.1,0.5-0.1,0.8
		c-0.1,0.9-0.2,1.7-0.4,2.5c-0.1,0.4-0.1,0.9-0.2,1.3c0,0.2,0,0.2-0.2,0.2c-0.1,0-0.1,0-0.2,0c-1.3,0-2.7,0-4,0c-0.5,0-0.9,0-1.4,0
		c-0.2,0-0.2,0-0.2-0.2c0,0,0-0.1,0-0.1c0-0.5,0-1,0-1.5c0-1.3,0.1-2.6,0.1-3.9c0-0.1,0-0.2,0-0.3c0,0,0-0.1,0.1-0.1
		c0.1,0,0.1,0,0.2,0c2.1,0,4.1,0,6.2,0C38.3,10.3,38.4,10.2,38.5,10.3 M45.1,16.4C45,16.4,45,16.4,45.1,16.4c-2,0-3.8,0-5.7,0
		c0,0-0.1,0-0.1,0c-0.2,0-0.2,0-0.2-0.3c0-0.4,0.1-0.8,0.2-1.2c0.1-1,0.3-2,0.4-3.1c0.1-0.5,0.1-1,0.2-1.5c0,0,0-0.1,0.1-0.1
		c0.1,0,0.2,0,0.3,0c1.9,0,3.9,0,5.8,0c0.1,0,0.2,0,0.3,0c0,0,0.1,0,0.1,0.1c0,0,0,0.1,0,0.1c0,0.1,0,0.2,0,0.3c0,0,0,0,0,0.1
		c-0.3,1.8-0.6,3.5-0.9,5.3C45.3,16.4,45.3,16.4,45.1,16.4 M43.8,23.3c-1.8,0-3.6,0-5.4,0c0,0-0.1,0-0.1,0c-0.3,0-0.3,0-0.2-0.3
		c0-0.2,0.1-0.4,0.1-0.7c0.1-0.9,0.2-1.7,0.4-2.6c0.1-0.6,0.2-1.2,0.3-1.8c0,0,0-0.1,0.1-0.1c0.1,0,0.1,0,0.2,0c1.9,0,3.8,0,5.7,0
		c0.1,0,0.1,0,0.2,0c0,0,0,0,0,0.1c0,0.3-0.1,0.6-0.1,0.9c-0.2,1.4-0.5,2.8-0.7,4.1C44.2,23.3,44.1,23.3,43.8,23.3 M37,30.6
		c0.1-0.6,0.2-1.2,0.3-1.9c0.1-0.9,0.2-1.7,0.4-2.6c0.1-0.5,0.1-0.9,0.2-1.4c0,0,0-0.1,0-0.1c0.1,0,0.1,0,0.2,0c1.9,0,3.7,0,5.6,0
		c0.1,0,0.1,0,0.2,0c0,0.1,0,0.3-0.1,0.4c-0.2,1.1-0.4,2.2-0.6,3.3c-0.1,0.7-0.2,1.5-0.4,2.2c0,0.1,0,0.1-0.1,0.1
		c-0.1,0-0.2,0-0.3,0c-1.8,0-3.5,0-5.3,0c-0.1,0-0.1,0-0.2,0C37,30.8,37,30.8,37,30.6 M36.5,23.3c-1.6,0-3.1,0-4.7,0
		c-0.1,0-0.1,0-0.2,0c-0.1,0-0.1,0-0.1-0.1c0-0.1,0-0.2,0-0.2c0-0.4,0-0.9,0-1.3c0-1,0-1.9,0.1-2.9c0-0.3,0-0.5,0-0.8
		c0,0,0-0.1,0.1-0.1c0.1,0,0.1,0,0.2,0c1.8,0,3.6,0,5.4,0c0.1,0,0.1,0,0.2,0c0,0,0,0,0,0.1c0,0.1,0,0.3,0,0.4
		c-0.1,0.9-0.2,1.7-0.4,2.6c-0.1,0.7-0.2,1.3-0.3,2C36.7,23.3,36.8,23.3,36.5,23.3 M31.3,30.5c0,0,0-0.1,0-0.1
		c0-1.5,0.1-3.1,0.1-4.6c0-0.3,0-0.6,0-0.9c0-0.2,0-0.2,0.1-0.2c0,0,0.1,0,0.1,0c1.6,0,3.1,0,4.7,0c0.1,0,0.1,0,0.2,0.1
		c-0.1,0.6-0.2,1.3-0.3,1.9c-0.1,1-0.3,2.1-0.4,3.1c0,0.3-0.1,0.6-0.1,1c0,0.1-0.1,0.1-0.1,0.1c-0.1,0-0.2,0-0.3,0
		c-1.3,0-2.5,0-3.8,0C31.2,30.8,31.3,30.8,31.3,30.5 M25,24.7c0.1,0,0.1,0,0.2,0h4.7c0.1,0,0.1,0,0.2,0c0.1,0,0.1,0,0.1,0.2
		c0,0.4,0,0.9,0,1.3c0,1.3-0.1,2.7-0.1,4c0,0.2,0,0.4,0,0.6c-0.3,0-4.7,0-5,0c0-0.1,0-0.3,0-0.4c0-1.3-0.1-2.5-0.1-3.8
		c0-0.2,0-0.3,0-0.5c0-0.4,0-0.8,0-1.1C24.8,24.7,24.8,24.7,25,24.7 M24.6,17.9c0-0.1,0.1-0.1,0.2-0.1c1.8,0,3.5,0,5.3,0
		c0.1,0,0.1,0,0.2,0c0.1,0,0.1,0.1,0.1,0.1c0,0,0,0.1,0,0.1c0,0.4,0,0.8,0,1.1c0,1.1-0.1,2.2-0.1,3.3c0,0.2,0,0.4,0,0.6
		c0,0.2,0,0.2-0.2,0.2c0,0-0.1,0-0.1,0c-1.6,0-3.3,0-4.9,0c-0.3,0-0.3,0-0.3-0.3c0-1.1-0.1-2.1-0.1-3.2c0-0.3,0-0.5,0-0.8
		C24.6,18.6,24.6,18.3,24.6,17.9 M24.4,10.4C24.4,10.3,24.4,10.3,24.4,10.4c0.2-0.1,0.2-0.1,0.3-0.1h2.7h2.7c0.1,0,0.2,0,0.3,0
		c0.1,0,0.1,0,0.1,0.1c0,0.1,0,0.1,0,0.2c0,0.6,0,1.2,0,1.8c0,1.3-0.1,2.6-0.1,3.8c0,0.2,0,0.2-0.2,0.2h-0.1l-5.2,0
		c-0.1,0-0.1,0-0.2,0c-0.1,0-0.1-0.1-0.1-0.1c0-0.1,0-0.1,0-0.2c0-1.1-0.1-2.2-0.1-3.3c0-0.7,0-1.5-0.1-2.2
		C24.4,10.5,24.4,10.4,24.4,10.4 M18.5,24.7c0.1,0,0.1,0,0.2,0c1.5,0,3,0,4.5,0c0.1,0,0.1,0,0.2,0c0.1,0,0.1,0,0.1,0.1
		c0,0.1,0,0.1,0,0.2c0,0.9,0,1.8,0.1,2.7c0,0.9,0,1.9,0.1,2.8c0,0.1,0,0.2,0,0.3c0,0,0,0-0.1,0.1c0,0-0.1,0-0.1,0c-1.3,0-2.7,0-4,0
		c-0.1,0-0.1,0-0.2,0c0-0.1,0-0.2-0.1-0.3c-0.1-0.6-0.2-1.3-0.3-1.9c-0.1-0.9-0.2-1.8-0.4-2.6c0-0.4-0.1-0.7-0.1-1.1
		C18.4,24.8,18.4,24.7,18.5,24.7 M18,21.6c-0.1-0.9-0.2-1.7-0.4-2.6c0-0.4-0.1-0.7-0.1-1.1c0,0,0-0.1,0.1-0.1c0.1,0,0.1,0,0.2,0
		c1.7,0,3.5,0,5.2,0c0.1,0,0.2,0,0.3,0c0,0,0,0,0,0.1c0.1,0.1,0,0.2,0,0.2c0,0.3,0,0.7,0,1c0,1.3,0.1,2.5,0.1,3.8
		c0,0.3,0,0.3-0.3,0.3c-1.6,0-3.1,0-4.7,0c0,0-0.1,0-0.1,0c-0.1,0-0.2,0-0.2-0.2C18.1,22.6,18,22.1,18,21.6 M11.5,24.7
		c0.1,0,0.1,0,0.2,0h5.1c0.1,0,0.1,0,0.2,0c0.1,0,0.1,0,0.1,0.1c0,0,0,0.1,0,0.1c0.1,0.6,0.2,1.3,0.3,1.9c0.2,1.2,0.3,2.4,0.5,3.6
		c0,0.1,0,0.2,0,0.3c0,0,0,0-0.1,0.1c-0.1,0-0.1,0-0.2,0c-1.7,0-3.3,0-5,0h0c-0.2,0-0.2,0-0.3-0.3c0-0.3-0.1-0.6-0.1-0.9
		c-0.2-1.1-0.4-2.2-0.5-3.3c-0.1-0.5-0.2-1.1-0.3-1.6C11.4,24.8,11.4,24.7,11.5,24.7 M10.3,17.8c0.1,0,0.2,0,0.3,0
		c1.7,0,3.5,0,5.2,0c0.1,0,0.1,0,0.2,0c0.2,0,0.2,0,0.2,0.2c0,0.3,0.1,0.7,0.1,1c0.1,1,0.3,2,0.4,3c0,0.4,0.1,0.7,0.1,1.1
		c0,0.1,0,0.2-0.2,0.1c-0.1,0-0.2,0-0.3,0c-1.7,0-3.3,0-5,0c-0.4,0-0.3,0-0.4-0.3c0,0,0-0.1,0-0.1c-0.2-1.2-0.4-2.5-0.6-3.7
		c-0.1-0.4-0.2-0.8-0.2-1.2C10.3,17.9,10.3,17.9,10.3,17.8 M9.1,10.3c0.1,0,0.2,0,0.3,0h5.3c0.1,0,0.1,0,0.2,0c0.1,0,0.2,0,0.2,0.2
		c0,0,0,0.1,0,0.1c0.1,0.4,0.1,0.9,0.2,1.3c0,0.3,0.1,0.7,0.1,1c0,0.1,0,0.2,0,0.3c0,0,0,0,0,0.1c0.1,0.4,0.1,0.9,0.2,1.3
		c0,0.1,0,0.1,0,0.2c0.1,0.4,0.1,0.8,0.2,1.2c0.1,0.4,0.1,0.4-0.3,0.4c-1.7,0-3.5,0-5.2,0c-0.1,0-0.1,0-0.2,0c-0.1,0-0.1,0-0.2-0.2
		c0-0.1,0-0.2,0-0.3c-0.3-1.7-0.5-3.3-0.8-5c0-0.2-0.1-0.4-0.1-0.6C9,10.3,9.1,10.3,9.1,10.3"/>
	<path id="XMLID_7_" class="st0" d="M13.8,47.3c0.1-0.1,0.1-0.1,0.1-0.2C14,47,14,46.9,14,46.8c0.7-2,2.7-3.1,4.6-2.6
		c2.7,0.7,4,4.1,2.5,6.7c-0.1,0.1-0.1,0.2-0.2,0.3c-0.1,0.1-0.1,0.2-0.2,0.2c-1.2,1.4-2.9,1.8-4.4,1.1c-1.5-0.7-2.5-2.3-2.5-4
		C13.8,48.1,13.8,47.7,13.8,47.3L13.8,47.3z"/>
	<path id="XMLID_6_" class="st0" d="M32.9,47.2c0.4-1.6,1.7-2.9,3.4-3.1c1.1-0.1,2,0.2,2.9,0.9c0.1,0.1,0.2,0.1,0.2,0.2
		c0,0.1,0.1,0.1,0.1,0.2c1,1.1,1.3,2.4,1.1,3.9c-0.4,2.1-2.3,3.9-4.6,3.5c-2-0.4-3.3-2.2-3.3-4.3c0-0.3,0.1-0.6,0.1-0.9
		C32.8,47.4,32.8,47.3,32.9,47.2"/>
</g>
</svg>
