<?xml version="1.0" encoding="utf-8"?>
<!-- Generator: Adobe Illustrator 19.0.0, SVG Export Plug-In . SVG Version: 6.00 Build 0)  -->
<svg version="1.1" id="Capa_1" xmlns="http://www.w3.org/2000/svg" xmlns:xlink="http://www.w3.org/1999/xlink" x="0px" y="0px"
	 viewBox="0 0 47.8 39.9" style="enable-background:new 0 0 47.8 39.9;" xml:space="preserve">
<style type="text/css">
	.st0{fill:#008996;}
</style>
<g id="XMLID_1_">
	<path class="st0" d="M4,4.3h20.7v17.9H4V4.3z M0,26.6h28.6V0H0V26.6z"/>
	<path class="st0" d="M16.2,33.5h10.9c1.1,0,2-1,2-2.2c0-1.2-0.9-2.2-2-2.2H16.2c-1.1,0-2,1-2,2.2C14.2,32.6,15.1,33.5,16.2,33.5"/>
	<path class="st0" d="M7.7,32.5c0.9,0,1.6,0.8,1.6,1.8c0,1-0.7,1.8-1.6,1.8c-0.9,0-1.6-0.8-1.6-1.8C6.1,33.3,6.8,32.5,7.7,32.5
		 M7.7,28.8c-2.8,0-5,2.5-5,5.5s2.3,5.5,5,5.5c2.8,0,5-2.5,5-5.5S10.5,28.8,7.7,28.8"/>
	<path class="st0" d="M35.2,12.9h4.5l4.1,8.9v5c-2-2.8-5.2-4.6-8.7-4.6V12.9 M31.2,8.6v19.3c1.1-0.8,2.5-1.3,3.9-1.3
		c3.7,0,6.7,3.1,7.1,7h5.6V20.8L42.1,8.6H31.2z"/>
	<path class="st0" d="M35.1,32.5c0.9,0,1.6,0.8,1.6,1.8c0,1-0.7,1.8-1.6,1.8c-0.9,0-1.6-0.8-1.6-1.8C33.5,33.3,34.2,32.5,35.1,32.5
		 M35.1,28.8c-2.8,0-5,2.5-5,5.5s2.3,5.5,5,5.5c2.8,0,5-2.5,5-5.5S37.9,28.8,35.1,28.8"/>
</g>
</svg>
