<?xml version="1.0" encoding="utf-8"?>
<!-- Generator: Adobe Illustrator 21.0.2, SVG Export Plug-In . SVG Version: 6.00 Build 0)  -->
<svg version="1.1" id="Capa_1" xmlns="http://www.w3.org/2000/svg" xmlns:xlink="http://www.w3.org/1999/xlink" x="0px" y="0px"
	 viewBox="0 0 114.5 114" style="enable-background:new 0 0 114.5 114;" xml:space="preserve">
<style type="text/css">
	.st0{fill:#008A98;}
</style>
<path class="st0" d="M12.7,83.6h37.5c1.5,0,2.7-1.2,2.7-2.7s-1.2-2.7-2.7-2.7H15.4V40.7h80.4v13.4c0,1.5,1.2,2.7,2.7,2.7
	c1.5,0,2.7-1.2,2.7-2.7V38c0-0.5-0.1-1-0.4-1.4L84.7,9.8c-0.5-0.8-1.4-1.3-2.3-1.3H28.8c-0.9,0-1.8,0.5-2.3,1.3L10.4,36.6
	C10.2,37,10,37.5,10,38v42.9C10,82.4,11.2,83.6,12.7,83.6z M58.3,13.9h22.6l12.9,21.4H58.3V13.9z M30.3,13.9h22.6v21.4H17.4
	L30.3,13.9z"/>
<path class="st0" d="M82.4,56.8c-13.3,0-24.1,10.8-24.1,24.1S69.1,105,82.4,105s24.1-10.8,24.1-24.1S95.7,56.8,82.4,56.8z
	 M82.4,99.6c-10.3,0-18.8-8.4-18.8-18.8S72,62.1,82.4,62.1s18.8,8.4,18.8,18.8S92.7,99.6,82.4,99.6z"/>
<path class="st0" d="M91.2,73.6L79.7,85.1L73.6,79c-1-1-2.7-1-3.8,0c-1,1-1,2.7,0,3.8l8,8c0.5,0.5,1.2,0.8,1.9,0.8s1.4-0.3,1.9-0.8
	L95,77.4c1-1,1-2.7,0-3.8C93.9,72.6,92.3,72.6,91.2,73.6z"/>
</svg>
