<?xml version="1.0" encoding="utf-8"?>
<!-- Generator: Adobe Illustrator 21.0.2, SVG Export Plug-In . SVG Version: 6.00 Build 0)  -->
<svg version="1.1" id="Capa_1" xmlns="http://www.w3.org/2000/svg" xmlns:xlink="http://www.w3.org/1999/xlink" x="0px" y="0px"
	 viewBox="0 0 114.5 114" style="enable-background:new 0 0 114.5 114;" xml:space="preserve">
<style type="text/css">
	.st0{fill:#008A98;}
</style>
<g>
	<path class="st0" d="M54.2,37l3.9-3c0.9-0.7,2.1-0.8,2.8,0l0.9,0.9l2.9,2.9l0.9,0.9c0.8,0.8,0.7,1.9,0,2.8l-3,3.9
		c1,1.7,1.8,3.6,2.3,5.6l4.8,0.6c1.1,0.1,2,0.9,2,2v1.3v4.1v1.3c0,1.1-0.9,1.9-2,2L65,63c-0.5,2-1.3,3.9-2.3,5.6l3,3.9
		c0.7,0.9,0.8,2,0,2.8l-0.9,0.9l-2.9,2.9L60.9,80c-0.8,0.8-1.9,0.7-2.8,0l-3.9-3c-1.7,1-3.6,1.8-5.6,2.3L48,84.2c-0.1,1.1-0.9,2-2,2
		h-1.3h-2.1V74.1c9.5,0,17.1-7.7,17.1-17.1c0-9.4-7.7-17.1-17.1-17.1V27.8h2.1H46c1.1,0,1.9,0.9,2,2l0.6,4.8
		C50.6,35.2,52.5,36,54.2,37z M42.7,48.2c2.4,0,4.6,1,6.2,2.6c1.6,1.6,2.6,3.8,2.6,6.2s-1,4.6-2.6,6.2c-1.6,1.6-3.8,2.6-6.2,2.6
		v-4.1c1.3,0,2.4-0.5,3.3-1.4c0.8-0.8,1.3-2,1.3-3.3c0-1.3-0.5-2.4-1.3-3.2c-0.8-0.8-2-1.4-3.3-1.4V48.2z"/>
	<path class="st0" d="M77.5,7.3H37c-3.3,0-6,2.7-6,6v87.4c0,3.3,2.7,6,6,6h40.5c3.3,0,6-2.7,6-6V87.3v-74C83.5,10,80.8,7.3,77.5,7.3
		z M53.8,12.9h14.4c0.9,0,1.6,0.7,1.6,1.6c0,0.8-0.7,1.6-1.6,1.6H53.8c-0.9,0-1.6-0.7-1.6-1.6C52.2,13.6,52.9,12.9,53.8,12.9z
		 M46.8,12.4c1.1,0,2,0.9,2,2s-0.9,2-2,2c-1.1,0-2-0.9-2-2S45.7,12.4,46.8,12.4z M57.2,103.5c-2.1,0-3.9-1.7-3.9-3.9
		c0-2.1,1.7-3.9,3.9-3.9s3.9,1.7,3.9,3.9C61.1,101.7,59.4,103.5,57.2,103.5z M77.9,92.5H36.6v-71h41.4V92.5z"/>
</g>
</svg>
