<?xml version="1.0" encoding="utf-8"?>
<!-- Generator: Adobe Illustrator 21.0.2, SVG Export Plug-In . SVG Version: 6.00 Build 0)  -->
<svg version="1.1" id="Capa_1" xmlns="http://www.w3.org/2000/svg" xmlns:xlink="http://www.w3.org/1999/xlink" x="0px" y="0px"
	 viewBox="0 0 114.5 114" style="enable-background:new 0 0 114.5 114;" xml:space="preserve">
<style type="text/css">
	.st0{fill:#008A98;}
</style>
<g>
	<path class="st0" d="M86.2,63.1c-3.6,0-6.9,0.8-10,2.3c-3.5-2.6-7.4-4.7-11.7-6.2c8.4-4.8,14.1-13.9,14.1-24.3
		c0-15.4-12.6-28-28-28c-15.4,0-28,12.6-28,28c0,10.4,5.8,19.6,14.3,24.4C20.3,65.1,8.4,81,8.4,99.6h6c0-20.2,16.4-36.7,36.5-36.7
		c7.4,0,14.2,2.2,20,6c-4.7,4.2-7.7,10.4-7.7,17.2c0,12.7,10.3,23,23,23s23-10.3,23-23S98.9,63.1,86.2,63.1z M28.7,34.9
		c0-12.1,9.9-22,22-22c12.1,0,22,9.9,22,22s-9.9,22-22,22C38.5,56.9,28.7,47,28.7,34.9z M86.2,103.1c-9.4,0-17-7.6-17-17
		s7.6-17,17-17s17,7.6,17,17S95.6,103.1,86.2,103.1z"/>
	<polygon class="st0" points="89.2,75.1 83.2,75.1 83.2,89.3 91.8,97.9 96,93.6 89.2,86.8 	"/>
</g>
</svg>
