<?xml version="1.0" encoding="utf-8"?>
<!-- Generator: Adobe Illustrator 21.0.2, SVG Export Plug-In . SVG Version: 6.00 Build 0)  -->
<svg version="1.1" id="Capa_1" xmlns="http://www.w3.org/2000/svg" xmlns:xlink="http://www.w3.org/1999/xlink" x="0px" y="0px"
	 viewBox="0 0 114.5 114" style="enable-background:new 0 0 114.5 114;" xml:space="preserve">
<style type="text/css">
	.st0{fill:#008A98;}
</style>
<path class="st0" d="M90.8,20.8c0-1.1-0.9-2.1-2.1-2.1H77.2v-3.6c-0.2-0.6-0.9-1-1.7-1h-8.9c-0.9-4.5-4.3-7.7-8.2-7.7
	c-3.9,0-7.3,3.3-8.2,7.7h-8.9c-0.7,0-1.3,0.3-1.7,0.8v3.7H28c-1.1,0-2.1,0.9-2.1,2.1v81.2c0,1.1,0.9,2.1,2.1,2.1h60.9
	c0.5,0,1-0.2,1.5-0.6c0.4-0.4,0.6-0.9,0.6-1.5L90.8,20.8z M30.1,100.1V22.9h9.6v5.2c0.3,0.5,0.9,0.8,1.7,0.8h34.4
	c0.7,0,1.5-0.4,1.7-1v-5.1h9.4l0.2,77H30.1V100.1z"/>
<polygon class="st0" points="66.7,51.9 55.5,63.1 50,57.7 46.1,61.5 55.5,70.8 70.5,55.7 "/>
</svg>
