<?xml version="1.0" encoding="utf-8"?>
<!-- Generator: Adobe Illustrator 21.0.2, SVG Export Plug-In . SVG Version: 6.00 Build 0)  -->
<svg version="1.1" id="Capa_1" xmlns="http://www.w3.org/2000/svg" xmlns:xlink="http://www.w3.org/1999/xlink" x="0px" y="0px"
	 viewBox="0 0 114.5 114" style="enable-background:new 0 0 114.5 114;" xml:space="preserve">
<style type="text/css">
	.st0{fill:#008A98;}
</style>
<path class="st0" d="M97.4,13.1H21.4c-1.9,0-3.4,1.5-3.4,3.4v75.9c0,1.9,1.5,3.4,3.4,3.4h75.9c1.9,0,3.4-1.5,3.4-3.4V16.5
	C100.8,14.6,99.3,13.1,97.4,13.1z M93.9,89H24.8V19.9h69.1V89z"/>
<polygon class="st0" points="80.9,40.6 73.2,33 59.4,46.8 45.6,33 37.9,40.6 51.7,54.5 37.9,68.3 45.6,76 59.4,62.2 73.2,76 
	80.9,68.3 67.1,54.5 "/>
</svg>
