<svg xmlns="http://www.w3.org/2000/svg" width="45" height="8" viewBox="0 0 45 8">
    <path fill="#FFF" fill-rule="nonzero" d="M.046 4.37L.093.737l.35-.346.35-.346L5.736.022c4.829-.023 4.951-.02 5.251.163.177.107.384.352.486.576.165.36.178.635.18 3.814L11.656 8H9.985V4.788c0-2.797-.02-3.23-.146-3.356-.121-.12-.409-.145-1.672-.145H6.64V8H5.06V1.287H3.498c-1.397 0-1.58.018-1.718.169-.137.15-.154.518-.154 3.356V8H0l.046-3.63zm13.955 3.446a1.731 1.731 0 0 1-.488-.482c-.174-.283-.184-.468-.184-3.334s.01-3.051.184-3.334c.102-.165.321-.382.488-.483.288-.174.474-.182 3.948-.183h3.645v1.287h-6.398l-.144.205c-.104.147-.145.43-.145 1.01v.806l3.168.024 3.169.024v1.288l-3.169.024-3.168.024v.806c0 .58.04.863.145 1.01l.144.205h6.398V8H17.95c-3.474 0-3.66-.01-3.948-.184zM23.359 4V0h1.672v8h-1.672V4zm3.563 3.866a.877.877 0 0 1-.315-1.008c.11-.33.455-.654 3.76-3.537.717-.627 1.528-1.34 1.8-1.587l.495-.447h-5.866V0h7.444l.272.269c.332.328.363.786.08 1.143-.106.133-1.245 1.163-2.531 2.288a197.767 197.767 0 0 0-2.85 2.528l-.511.48 2.995.003 2.995.002V8h-3.787c-3.17 0-3.819-.022-3.981-.134zm9.895-.075c-.636-.42-.64-.448-.64-4.32V0H37.755v3.172c0 3.05.007 3.18.185 3.357.177.174.31.184 2.68.184 2.297 0 2.505-.014 2.646-.169.137-.15.154-.518.154-3.356V0H45v3.552c0 3.401-.008 3.565-.187 3.853-.365.584-.44.595-4.248.595-3.414 0-3.434-.001-3.748-.209z" opacity=".496"/>
</svg>
