<?xml version="1.0" encoding="utf-8"?>
<!-- Generator: Adobe Illustrator 19.0.0, SVG Export Plug-In . SVG Version: 6.00 Build 0)  -->
<svg version="1.1" id="Capa_1" xmlns="http://www.w3.org/2000/svg" xmlns:xlink="http://www.w3.org/1999/xlink" x="0px" y="0px"
	 viewBox="0 0 38.5 38.2" style="enable-background:new 0 0 38.5 38.2;" xml:space="preserve">
<style type="text/css">
	.st0{fill:#797878;}
</style>
<g id="XMLID_220_">
	<path id="XMLID_239_" class="st0" d="M14.6,32c-1.5-0.3-3,0.4-3.6,1.9c0,0.1,0,0.1-0.1,0.2c0,0.1,0,0.1-0.1,0.2l0,0
		c0,0.3-0.1,0.6-0.1,0.8c0,1.2,0.8,2.4,2,2.9c1.2,0.5,2.6,0.2,3.5-0.8c0.1-0.1,0.1-0.1,0.2-0.2c0-0.1,0.1-0.1,0.1-0.2
		C17.7,34.9,16.7,32.5,14.6,32"/>
	<path id="XMLID_238_" class="st0" d="M31,32.7c-0.1,0-0.1-0.1-0.2-0.1c-0.7-0.5-1.4-0.7-2.3-0.7c-1.3,0.1-2.4,1.1-2.7,2.2
		c0,0.1,0,0.1-0.1,0.2c0,0.2-0.1,0.4-0.1,0.7c0,1.5,1,2.9,2.6,3.1c1.8,0.3,3.3-0.9,3.6-2.5c0.2-1.1-0.1-2-0.8-2.8
		C31,32.8,31,32.8,31,32.7"/>
	<path id="XMLID_221_" class="st0" d="M37.8,5.6c-0.3,0-0.5,0-0.8,0c0,0-0.1,0-0.1,0c-0.1,0-0.2,0-0.3,0c-9.9,0-19.7,0-29.6,0
		c-0.1,0-0.2,0-0.3,0c0-0.2-0.1-0.5-0.1-0.7C6.5,3.9,6.3,2.9,6.1,2C6,1.4,5.7,1,5.1,0.9C3.9,0.6,2.8,0.3,1.6,0C1.4,0,1.1,0,0.9,0.1
		C0.5,0.2,0.3,0.4,0.1,0.7c0,0.1,0,0.1-0.1,0.2L0,1C0,1.4,0,1.7,0.2,2c0,0,0,0.1,0,0.1l0,0c0,0,0.1,0.1,0.1,0.1
		C0.5,2.3,0.7,2.4,1,2.5C1.5,2.6,2,2.8,2.6,2.9C2.9,3,3.3,3.1,3.6,3.2c0.1,0,0.1,0.1,0.2,0.2c0.1,0.7,0.3,1.4,0.4,2.1
		c0.2,1,0.4,2,0.5,2.9c0.2,1,0.4,1.9,0.5,2.9c0.2,1,0.4,1.9,0.5,2.9c0.2,1,0.4,1.9,0.5,2.9c0.2,0.9,0.3,1.7,0.5,2.6
		c0.2,0.9,0.3,1.8,0.5,2.6c0.2,1,0.4,2,0.5,2.9c0.1,0.5,0.2,1,0.3,1.4c0,0.1,0,0.1,0,0.2c0,0,0,0.1,0,0.1c0.1,0.5,0.2,0.9,0.3,1.4
		c0,0.2,0.1,0.4,0.1,0.5c0.1,0.6,0.7,1,1.2,1c0.1,0,0.2,0,0.3,0c7.7,0,15.4,0,23.1,0c0.2,0,0.3,0,0.5,0c0.5-0.1,0.9-0.5,1-1.1
		c0-0.1,0-0.2,0-0.2c0,0,0,0,0-0.1c0,0,0-0.1,0-0.1c0-0.1,0-0.1-0.1-0.2c-0.2-0.5-0.5-0.7-1-0.8c-0.1,0-0.3,0-0.5,0l-21.8,0
		c-0.1,0-0.2,0-0.3,0c-0.1,0-0.1,0-0.1-0.1c0,0,0-0.1,0-0.1c-0.1-0.8-0.3-1.6-0.4-2.4c0-0.2-0.1-0.5-0.1-0.7c0,0,0-0.1,0-0.1
		c0.1,0,0.2,0,0.3,0c8,0,16,0,24,0c0.2,0,0.4,0,0.5-0.1c0.2-0.1,0.4-0.3,0.4-0.6c0-0.2,0.1-0.5,0.1-0.7c0.2-1,0.4-1.9,0.5-2.9
		c0.2-1,0.4-2,0.5-2.9c0.1-0.4,0.1-0.7,0.2-1.1c0-0.1,0-0.1,0-0.1c0-0.1,0-0.1,0-0.2c0.2-0.9,0.3-1.9,0.5-2.8c0.2-1,0.4-2,0.5-3
		c0-0.3,0.1-0.5,0.2-0.8c0.1-0.4,0.1-0.8,0.2-1.3c0.1-0.3,0.1-0.6,0.2-0.9c0-0.1,0-0.1,0-0.2C38.6,5.9,38.2,5.6,37.8,5.6 M25,11.6
		c0-0.4,0-0.7,0-1.1c0-0.9,0-1.9,0.1-2.8c0-0.1,0-0.1,0-0.2c0,0,0-0.1,0.1-0.1c0.1,0,0.1,0,0.2,0c1.6,0,3.2,0,4.9,0
		c0.1,0,0.1,0,0.2,0c0,0.3-0.1,0.6-0.1,1c0,0.2,0,0.4-0.1,0.5c-0.1,0.6-0.2,1.2-0.3,1.8c0,0.3-0.1,0.6-0.1,0.9c0,0.1,0,0.1-0.1,0.1
		c-0.1,0-0.1,0-0.2,0c-1.1,0-2.1,0-3.2,0c-0.4,0-0.7,0-1.1,0c-0.2,0-0.2,0-0.2-0.2C25,11.6,25,11.6,25,11.6 M13,7.4
		c0.1,0,0.1,0,0.2,0h2.4c0.8,0,1.6,0,2.3,0c0.1,0,0.1,0,0.2,0c0.1,0,0.1,0,0.1,0.1c0,0.1,0,0.2,0,0.2c0,0.3,0,0.5,0,0.8
		c0,1,0.1,2,0.1,3.1c0,0.1,0,0.1,0,0.2c0,0.1,0,0.1-0.1,0.1c-0.1,0-0.1,0-0.2,0h-4.2c-0.1,0-0.1,0-0.2,0c-0.1,0-0.1,0-0.1-0.1
		c0,0,0,0,0-0.1c-0.1-0.6-0.2-1.2-0.3-1.8c-0.1-0.7-0.2-1.5-0.3-2.2C13,7.6,13,7.6,13,7.4C13,7.4,13,7.4,13,7.4 M8,11.8
		c-0.1,0-0.1,0-0.1-0.1c0-0.1,0-0.1,0-0.2c-0.2-1.2-0.4-2.4-0.7-3.6c0-0.1-0.1-0.3-0.1-0.4c0-0.1,0-0.1,0.1-0.1c0.1,0,0.1,0,0.2,0
		h4.2c0.1,0,0.1,0,0.2,0c0.1,0,0.1,0,0.1,0.1c0,0,0,0.1,0,0.1c0,0.3,0.1,0.6,0.1,1c0,0.2,0.1,0.5,0.1,0.7c0,0.1,0,0.2,0,0.2
		c0,0,0,0,0,0.1c0.1,0.3,0.1,0.6,0.1,1c0,0,0,0.1,0,0.1c0,0.3,0.1,0.6,0.1,0.8c0.1,0.3,0,0.3-0.3,0.3c-1.4,0-2.7,0-4.1,0
		C8.2,11.8,8.1,11.8,8,11.8 M8.8,16.5C8.8,16.5,8.8,16.5,8.8,16.5c-0.2-1-0.3-1.8-0.5-2.7c0-0.3-0.1-0.6-0.1-0.8c0,0,0-0.1,0-0.1
		c0.1,0,0.1,0,0.2,0h4.1c0,0,0.1,0,0.1,0c0.1,0,0.1,0,0.1,0.1c0,0.2,0.1,0.5,0.1,0.7c0.1,0.7,0.2,1.5,0.3,2.2c0,0.3,0.1,0.5,0.1,0.8
		c0,0.1,0,0.1-0.1,0.1c-0.1,0-0.1,0-0.2,0c-1.3,0-2.6,0-3.9,0C8.8,16.8,8.8,16.8,8.8,16.5 M14.1,22.2c-0.1,0-0.1,0-0.2,0
		c-1.3,0-2.6,0-3.9,0c0,0,0,0,0,0c-0.2,0-0.2,0-0.2-0.2c0-0.2-0.1-0.4-0.1-0.6c-0.1-0.8-0.3-1.6-0.4-2.4c-0.1-0.4-0.1-0.8-0.2-1.2
		c0,0,0-0.1,0-0.1c0.1,0,0.1,0,0.2,0c1.3,0,2.7,0,4,0c0.1,0,0.1,0,0.2,0c0.1,0,0.1,0,0.1,0.1c0,0,0,0,0,0.1c0.1,0.5,0.1,0.9,0.2,1.4
		c0.1,0.9,0.3,1.7,0.4,2.6C14.1,22,14.1,22.1,14.1,22.2C14.2,22.2,14.1,22.2,14.1,22.2 M14.4,16.6c-0.1-0.4-0.1-0.7-0.2-1.1
		c-0.1-0.6-0.2-1.2-0.3-1.9c0-0.3-0.1-0.5-0.1-0.8c0,0,0,0,0,0c0.1,0,0.1,0,0.2,0c1.4,0,2.8,0,4.1,0c0.1,0,0.1,0,0.2,0
		c0,0,0,0,0,0.1c0,0,0,0.1,0,0.2c0,0.2,0,0.5,0,0.7c0,0.9,0.1,1.8,0.1,2.7c0,0.3,0,0.2-0.2,0.2h-3.7c0,0-0.1,0-0.1,0
		C14.4,16.8,14.4,16.7,14.4,16.6 M18.7,22.2C18.7,22.2,18.6,22.2,18.7,22.2c-0.1,0-0.1,0.1-0.2,0.1c-1.1,0-2.1,0-3.2,0
		c0,0-0.1,0-0.2,0c0-0.1,0-0.1,0-0.2C15.1,21.5,15,21,15,20.6c-0.1-0.6-0.2-1.3-0.3-1.9c0-0.3-0.1-0.5-0.1-0.8c0,0,0-0.1,0-0.1
		c0.1,0,0.1,0,0.2,0c1.2,0,2.4,0,3.6,0c0,0,0.1,0,0.2,0c0,0,0.1,0,0.1,0.1c0,0,0,0.1,0,0.1c0,0.7,0,1.3,0.1,2c0,0.7,0,1.3,0.1,2
		C18.7,22,18.7,22.1,18.7,22.2 M23.8,18.9c0,1-0.1,1.9-0.1,2.9c0,0.1,0,0.3,0,0.4c-0.2,0-3.7,0-3.9,0c0-0.1,0-0.2,0-0.3
		c0-0.9,0-1.8-0.1-2.7c0-0.1,0-0.3,0-0.4c0-0.3,0-0.6,0-0.8c0-0.1,0-0.1,0.1-0.1c0,0,0.1,0,0.1,0h3.7c0.1,0,0.1,0,0.2,0
		c0.1,0,0.1,0,0.1,0.1C23.8,18.2,23.8,18.5,23.8,18.9 M23.9,13.8c0,0.8,0,1.6-0.1,2.4c0,0.1,0,0.3,0,0.4c0,0.1,0,0.1-0.1,0.1
		c0,0-0.1,0-0.1,0c-1.3,0-2.6,0-3.9,0c-0.2,0-0.2,0-0.2-0.2c0-0.8,0-1.5-0.1-2.3c0-0.2,0-0.4,0-0.6c0-0.3,0-0.5,0-0.8
		c0-0.1,0.1-0.1,0.1-0.1c1.4,0,2.8,0,4.2,0c0,0,0.1,0,0.1,0c0,0,0.1,0,0,0.1c0,0,0,0,0,0.1C24,13.3,23.9,13.6,23.9,13.8 M24.1,7.6
		c0,0.4,0,0.9,0,1.3c0,0.9-0.1,1.8-0.1,2.8c0,0.2,0,0.2-0.2,0.2c0,0,0,0-0.1,0c-1.4,0-2.8,0-4.1,0c-0.1,0-0.1,0-0.2,0
		c-0.1,0-0.1,0-0.1-0.1c0,0,0-0.1,0-0.1c0-0.8,0-1.6-0.1-2.4c0-0.5,0-1.1,0-1.6c0,0,0-0.1,0-0.1c0,0,0-0.1,0.1-0.1
		c0.1,0,0.1,0,0.2,0c0.7,0,1.4,0,2.2,0c0.7,0,1.4,0,2.2,0c0.1,0,0.1,0,0.2,0c0,0,0.1,0,0.1,0.1C24.1,7.5,24.1,7.6,24.1,7.6
		 M28.7,19.2c-0.1,0.7-0.2,1.5-0.3,2.2c0,0.2-0.1,0.5-0.1,0.7c0,0.1,0,0.1-0.1,0.1c-0.1,0-0.1,0-0.2,0c-1,0-2,0-3,0
		c-0.3,0-0.2,0-0.2-0.2c0,0,0-0.1,0-0.1c0-1.1,0.1-2.2,0.1-3.3c0-0.2,0-0.4,0-0.6c0-0.1,0-0.1,0.1-0.1c0,0,0,0,0.1,0
		c1.2,0,2.5,0,3.7,0c0.1,0,0.1,0,0.2,0C28.8,18.3,28.7,18.7,28.7,19.2 M28.8,16.8c-1.2,0-2.5,0-3.7,0c-0.1,0-0.1,0-0.2,0
		c-0.1,0-0.1,0-0.1-0.1c0-0.1,0-0.1,0-0.2c0-0.3,0-0.6,0-1c0-0.7,0-1.4,0.1-2.1c0-0.2,0-0.4,0-0.6c0,0,0-0.1,0-0.1
		c0.1,0,0.1,0,0.2,0c1.4,0,2.8,0,4.2,0c0.1,0,0.1,0,0.2,0c0,0,0,0,0,0.1c0,0.1,0,0.2,0,0.3c-0.1,0.6-0.2,1.3-0.3,1.9
		c-0.1,0.5-0.1,1-0.2,1.4C29,16.8,29.1,16.8,28.8,16.8 M34.6,18.1c-0.1,0.8-0.3,1.6-0.4,2.4c-0.1,0.5-0.2,1.1-0.3,1.6
		c0,0,0,0.1-0.1,0.1c-0.1,0-0.1,0-0.2,0c-1.4,0-2.8,0-4.2,0c-0.1,0-0.1,0-0.2,0c-0.1,0-0.1,0-0.1-0.1c0.1-0.4,0.1-0.9,0.2-1.3
		c0.1-0.6,0.2-1.3,0.3-1.9c0.1-0.3,0.1-0.7,0.2-1c0,0,0-0.1,0-0.1c0,0,0.1,0,0.1,0c1.5,0,3,0,4.4,0c0,0,0.1,0,0.2,0
		C34.7,17.9,34.7,18,34.6,18.1 M35.5,13.5c-0.2,1-0.4,2-0.5,3c-0.1,0.3-0.1,0.3-0.3,0.3c-1.4,0-2.9,0-4.3,0h-0.1
		c-0.2,0-0.2,0-0.2-0.2c0-0.2,0-0.3,0.1-0.5c0.1-0.6,0.2-1.2,0.3-1.9c0.1-0.4,0.1-0.9,0.2-1.3c0,0,0,0,0,0c0.1,0,0.1,0,0.2,0
		c1.5,0,3,0,4.5,0c0.1,0,0.1,0,0.2,0c0,0,0,0,0,0C35.6,13.1,35.5,13.3,35.5,13.5 M36.5,7.6l0,0.2c0,0,0,0,0,0
		c-0.2,1.3-0.5,2.5-0.7,3.8c0,0.2,0,0.2-0.2,0.2c0,0-0.1,0-0.1,0c-1.5,0-2.9,0-4.4,0c0,0-0.1,0-0.1,0c-0.2,0-0.2,0-0.2-0.2
		c0-0.3,0.1-0.6,0.1-0.9c0.1-0.7,0.2-1.5,0.3-2.2c0.1-0.4,0.1-0.7,0.2-1.1c0,0,0-0.1,0.1-0.1c0.1,0,0.1,0,0.2,0c1.5,0,3.1,0,4.6,0
		c0.1,0,0.1,0,0.2,0C36.6,7.4,36.6,7.4,36.5,7.6C36.6,7.5,36.6,7.6,36.5,7.6"/>
</g>
</svg>
