<?xml version="1.0" encoding="utf-8"?>
<!-- Generator: Adobe Illustrator 19.0.0, SVG Export Plug-In . SVG Version: 6.00 Build 0)  -->
<svg version="1.1" id="Capa_1" xmlns="http://www.w3.org/2000/svg" xmlns:xlink="http://www.w3.org/1999/xlink" x="0px" y="0px"
	 viewBox="0 0 224.8 40.6" style="enable-background:new 0 0 224.8 40.6;" xml:space="preserve">
<style type="text/css">
	.st0{filter:url(#Adobe_OpacityMaskFilter);}
	.st1{enable-background:new    ;}
	.st2{filter:url(#Adobe_OpacityMaskFilter_1_);}
	.st3{clip-path:url(#XMLID_222_);mask:url(#XMLID_221_);fill:url(#XMLID_223_);}
	.st4{opacity:0.5;}
	.st5{clip-path:url(#XMLID_224_);}
	.st6{clip-path:url(#XMLID_225_);fill:url(#XMLID_226_);}
	.st7{fill:#008996;}
	.st8{clip-path:url(#XMLID_227_);fill:url(#XMLID_228_);}
	.st9{clip-path:url(#XMLID_229_);fill:url(#XMLID_230_);}
	.st10{filter:url(#Adobe_OpacityMaskFilter_2_);}
	.st11{filter:url(#Adobe_OpacityMaskFilter_3_);}
	.st12{clip-path:url(#XMLID_232_);mask:url(#XMLID_231_);fill:url(#XMLID_233_);}
	.st13{clip-path:url(#XMLID_234_);}
	.st14{clip-path:url(#XMLID_235_);fill:url(#XMLID_236_);}
	.st15{fill:#00A5AD;}
</style>
<defs>
	<filter id="Adobe_OpacityMaskFilter" filterUnits="userSpaceOnUse" x="124.9" y="-5.2" width="24.2" height="24">
		<feFlood  style="flood-color:white;flood-opacity:1" result="back"/>
		<feBlend  in="SourceGraphic" in2="back" mode="normal"/>
	</filter>
</defs>
<mask maskUnits="userSpaceOnUse" x="124.9" y="-5.2" width="24.2" height="24" id="XMLID_221_">
	<g id="XMLID_81_" class="st0">
		<g id="XMLID_82_" class="st1">
			<g id="XMLID_83_">
				<defs>
					<path id="XMLID_84_" d="M129.7,1.7h8.6c0,0,5.9,0,5.9,4.8v5.2C144.3,11.8,139.7,3,129.7,1.7"/>
				</defs>
				<clipPath id="XMLID_222_">
					<use xlink:href="#XMLID_84_"  style="overflow:visible;"/>
				</clipPath>
				<defs>
					<filter id="Adobe_OpacityMaskFilter_1_" filterUnits="userSpaceOnUse" x="124.9" y="-5.2" width="24.2" height="24">
						<feFlood  style="flood-color:white;flood-opacity:1" result="back"/>
						<feBlend  in="SourceGraphic" in2="back" mode="normal"/>
					</filter>
				</defs>
				<mask maskUnits="userSpaceOnUse" x="124.9" y="-5.2" width="24.2" height="24" id="XMLID_221_">
					<g id="XMLID_111_" class="st2">
						<g id="XMLID_112_" class="st1">
						</g>
					</g>
				</mask>
				
					<linearGradient id="XMLID_223_" gradientUnits="userSpaceOnUse" x1="-1255.0376" y1="-566.5887" x2="-1254.0376" y2="-566.5887" gradientTransform="matrix(2.5195 -3.422 -3.422 -2.5195 1361.2892 -5716.8984)">
					<stop  offset="0" style="stop-color:#1D1D1B"/>
					<stop  offset="0.1701" style="stop-color:#20201E"/>
					<stop  offset="0.3067" style="stop-color:#2A2A28"/>
					<stop  offset="0.4317" style="stop-color:#3B3B39"/>
					<stop  offset="0.5499" style="stop-color:#535351"/>
					<stop  offset="0.6632" style="stop-color:#717170"/>
					<stop  offset="0.7729" style="stop-color:#969696"/>
					<stop  offset="0.8796" style="stop-color:#C3C3C2"/>
					<stop  offset="0.9815" style="stop-color:#F5F5F5"/>
					<stop  offset="1" style="stop-color:#FFFFFF"/>
				</linearGradient>
				<polygon id="XMLID_85_" class="st3" points="124.9,8.3 134.8,-5.2 149.1,5.3 139.2,18.8 				"/>
			</g>
		</g>
	</g>
</mask>
<g id="XMLID_80_" class="st4">
	<g id="XMLID_86_">
		<defs>
			<rect id="XMLID_87_" x="129.7" y="1.7" width="14.6" height="10.1"/>
		</defs>
		<clipPath id="XMLID_224_">
			<use xlink:href="#XMLID_87_"  style="overflow:visible;"/>
		</clipPath>
		<g id="XMLID_88_" class="st5">
			<defs>
				<path id="XMLID_89_" d="M129.7,1.7h8.6c0,0,5.9,0,5.9,4.8v5.2C144.3,11.8,139.7,3,129.7,1.7"/>
			</defs>
			<clipPath id="XMLID_225_">
				<use xlink:href="#XMLID_89_"  style="overflow:visible;"/>
			</clipPath>
			
				<linearGradient id="XMLID_226_" gradientUnits="userSpaceOnUse" x1="-1255.0376" y1="-566.5887" x2="-1254.0376" y2="-566.5887" gradientTransform="matrix(2.5195 -3.422 -3.422 -2.5195 1361.2891 -5716.8984)">
				<stop  offset="0" style="stop-color:#FFFFFF"/>
				<stop  offset="1" style="stop-color:#FFFFFF"/>
			</linearGradient>
			<polygon id="XMLID_90_" class="st6" points="124.9,8.3 134.8,-5.2 149.1,5.3 139.2,18.8 			"/>
		</g>
	</g>
</g>
<g id="XMLID_79_">
	<path id="XMLID_122_" class="st7" d="M155.9,11c0-0.5,0.4-0.9,0.9-0.9h3.4c0.5,0,0.9,0.4,0.9,0.9v4.7c1.3-0.4,2.5-0.8,4.4-0.8
		c4.9,0,8.2,2.9,8.2,8.7c0,5.7-3.3,8.7-9.7,8.7c-3,0-6.6-0.8-8.2-1.7V11z M161.2,28.3c0.7,0.2,1.9,0.3,3.2,0.3c2.9,0,4-1.5,4-5
		c0-3.5-1-5-3.9-5c-0.8,0-2,0.2-3.3,0.6V28.3z"/>
	<path id="XMLID_117_" class="st7" d="M176.7,11.5c0-1.1,0.7-1.8,1.8-1.8h1.9c1.1,0,1.8,0.7,1.8,1.8v0.5c0,1.1-0.7,1.8-1.8,1.8h-1.9
		c-1.1,0-1.8-0.7-1.8-1.8V11.5z M177.7,32.1c-0.5,0-0.9-0.4-0.9-0.9V16.6c0-0.5,0.4-0.9,0.9-0.9h3.4c0.5,0,0.9,0.4,0.9,0.9v14.5
		c0,0.5-0.4,0.9-0.9,0.9H177.7z"/>
	<path id="XMLID_116_" class="st7" d="M192.5,32.4c-4.4,0-6.6-2.2-6.6-6.9V11c0-0.5,0.4-0.9,0.9-0.9h3.4c0.5,0,0.9,0.4,0.9,0.9v5.1
		h4.3c0.5,0,0.9,0.4,0.9,0.9v1.8c0,0.5-0.4,0.9-0.9,0.9h-4.3v5.6c0,2.1,1.1,3.3,2.7,3.3c0.8,0,1.4-0.2,2.1-0.2h0.6
		c0.5,0,0.9,0.4,0.9,0.9v1.6c0,0.5-0.4,0.8-0.9,0.9C195.6,32.3,193.9,32.4,192.5,32.4"/>
	<path id="XMLID_113_" class="st7" d="M204.2,25.3c0.2,2.5,1.4,3.6,3.9,3.6c1.3,0,2.5-0.4,3-1c0.4-0.5,1-0.8,1.8-0.8h2.3
		c0.5,0,0.9,0.4,0.9,0.9c0,3.3-3.4,4.4-8.4,4.4c-5.6,0-8.9-3-8.9-8.7c0-5.7,3.4-8.7,8.9-8.7c5.6,0,9,3,9,8.5v0.9
		c0,0.5-0.4,0.9-0.9,0.9H204.2z M204.2,22h7.1c-0.1-2.4-1.2-3.6-3.6-3.6C205.5,18.4,204.3,19.7,204.2,22"/>
	<path id="XMLID_110_" class="st7" d="M220.5,32.1c-0.5,0-0.9-0.4-0.9-0.9V11c0-0.5,0.4-0.9,0.9-0.9h3.4c0.5,0,0.9,0.4,0.9,0.9v20.1
		c0,0.5-0.4,0.9-0.9,0.9H220.5z"/>
	<path id="XMLID_109_" class="st7" d="M138.9,15.4h-8.1c-5.8,0-7.6,3.9-7.7,4.1c0.9-1.2,3-3.2,7.1-3.2h8.1c2.9,0,5.5-1.6,6.8-4
		C143.7,14.1,141.5,15.4,138.9,15.4"/>
	<g id="XMLID_106_">
		<defs>
			<path id="XMLID_107_" d="M130.8,0c-4.3,0-7.7,3.5-7.7,7.7c0,0.1,0,0.2,0,0.3l0,0v11.5c0,0,1.8-4.1,7.7-4.1h8.1
				c4.3,0,7.7-3.4,7.7-7.7c0-4.2-3.4-7.7-7.7-7.7H130.8z"/>
		</defs>
		<clipPath id="XMLID_227_">
			<use xlink:href="#XMLID_107_"  style="overflow:visible;"/>
		</clipPath>
		
			<radialGradient id="XMLID_228_" cx="-773.6049" cy="-178.6373" r="1" gradientTransform="matrix(25.7146 0 0 -25.7146 20016.2676 -4574.9307)" gradientUnits="userSpaceOnUse">
			<stop  offset="0" style="stop-color:#41B9BE"/>
			<stop  offset="0.3367" style="stop-color:#3EB7BC"/>
			<stop  offset="0.5519" style="stop-color:#36B1B7"/>
			<stop  offset="0.7331" style="stop-color:#27A6AE"/>
			<stop  offset="0.8945" style="stop-color:#1297A1"/>
			<stop  offset="1" style="stop-color:#008996"/>
		</radialGradient>
		<rect id="XMLID_108_" x="123.1" y="0" class="st8" width="23.5" height="19.4"/>
	</g>
	<g id="XMLID_103_">
		<defs>
			<path id="XMLID_104_" d="M131.6,19.2c-4.7,0-8.5,3.8-8.5,8.5c0,0.1,0,0.2,0,0.3l0,0v12.6c0,0,2-4.5,8.5-4.5h8.9
				c4.7,0,8.5-3.8,8.5-8.5c0-4.7-3.8-8.5-8.5-8.5H131.6z"/>
		</defs>
		<clipPath id="XMLID_229_">
			<use xlink:href="#XMLID_104_"  style="overflow:visible;"/>
		</clipPath>
		
			<radialGradient id="XMLID_230_" cx="-775.3018" cy="-169.8189" r="1" gradientTransform="matrix(27.9548 0 0 -27.9548 21797.3359 -4707.8716)" gradientUnits="userSpaceOnUse">
			<stop  offset="0" style="stop-color:#41B9BE"/>
			<stop  offset="0.3367" style="stop-color:#3EB7BC"/>
			<stop  offset="0.5519" style="stop-color:#36B1B7"/>
			<stop  offset="0.7331" style="stop-color:#27A6AE"/>
			<stop  offset="0.8945" style="stop-color:#1297A1"/>
			<stop  offset="1" style="stop-color:#008996"/>
		</radialGradient>
		<rect id="XMLID_105_" x="123.1" y="19.2" class="st9" width="25.9" height="21.4"/>
	</g>
	<path id="XMLID_102_" class="st7" d="M140.5,36.2h-8.9c-6.1,0-8.2,3.9-8.5,4.4c1-1.3,3.3-3.4,7.8-3.4h8.9c3.2,0,6-1.8,7.4-4.4
		C145.8,34.8,143.3,36.2,140.5,36.2"/>
	<defs>
		<filter id="Adobe_OpacityMaskFilter_2_" filterUnits="userSpaceOnUse" x="126.4" y="13.7" width="25.2" height="25">
			<feFlood  style="flood-color:white;flood-opacity:1" result="back"/>
			<feBlend  in="SourceGraphic" in2="back" mode="normal"/>
		</filter>
	</defs>
	<mask maskUnits="userSpaceOnUse" x="126.4" y="13.7" width="25.2" height="25" id="XMLID_231_">
		<g id="XMLID_92_" class="st10">
			<g id="XMLID_93_" class="st1">
				<g id="XMLID_94_">
					<defs>
						<path id="XMLID_95_" d="M131.4,20.9h9c0,0,6.2,0,6.2,5v5.5C146.6,31.4,141.8,22.2,131.4,20.9"/>
					</defs>
					<clipPath id="XMLID_232_">
						<use xlink:href="#XMLID_95_"  style="overflow:visible;"/>
					</clipPath>
					<defs>
						<filter id="Adobe_OpacityMaskFilter_3_" filterUnits="userSpaceOnUse" x="126.4" y="13.7" width="25.2" height="25">
							<feFlood  style="flood-color:white;flood-opacity:1" result="back"/>
							<feBlend  in="SourceGraphic" in2="back" mode="normal"/>
						</filter>
					</defs>
					<mask maskUnits="userSpaceOnUse" x="126.4" y="13.7" width="25.2" height="25" id="XMLID_231_">
						<g id="XMLID_120_" class="st11">
							<g id="XMLID_121_" class="st1">
							</g>
						</g>
					</mask>
					
						<linearGradient id="XMLID_233_" gradientUnits="userSpaceOnUse" x1="-1237.2007" y1="-547.2892" x2="-1236.2007" y2="-547.2892" gradientTransform="matrix(2.6211 -3.5599 -3.5599 -2.6211 1434.5966 -5814.1973)">
						<stop  offset="0" style="stop-color:#1D1D1B"/>
						<stop  offset="0.1701" style="stop-color:#20201E"/>
						<stop  offset="0.3067" style="stop-color:#2A2A28"/>
						<stop  offset="0.4317" style="stop-color:#3B3B39"/>
						<stop  offset="0.5499" style="stop-color:#535351"/>
						<stop  offset="0.6632" style="stop-color:#717170"/>
						<stop  offset="0.7729" style="stop-color:#969696"/>
						<stop  offset="0.8796" style="stop-color:#C3C3C2"/>
						<stop  offset="0.9815" style="stop-color:#F5F5F5"/>
						<stop  offset="1" style="stop-color:#FFFFFF"/>
					</linearGradient>
					<polygon id="XMLID_96_" class="st12" points="126.4,27.7 136.8,13.7 151.6,24.6 141.3,38.6 					"/>
				</g>
			</g>
		</g>
	</mask>
	<g id="XMLID_91_" class="st4">
		<g id="XMLID_97_">
			<defs>
				<rect id="XMLID_98_" x="131.4" y="20.9" width="15.2" height="10.5"/>
			</defs>
			<clipPath id="XMLID_234_">
				<use xlink:href="#XMLID_98_"  style="overflow:visible;"/>
			</clipPath>
			<g id="XMLID_99_" class="st13">
				<defs>
					<path id="XMLID_100_" d="M131.4,20.9h9c0,0,6.2,0,6.2,5v5.5C146.6,31.4,141.8,22.2,131.4,20.9"/>
				</defs>
				<clipPath id="XMLID_235_">
					<use xlink:href="#XMLID_100_"  style="overflow:visible;"/>
				</clipPath>
				
					<linearGradient id="XMLID_236_" gradientUnits="userSpaceOnUse" x1="-1237.2007" y1="-547.2892" x2="-1236.2007" y2="-547.2892" gradientTransform="matrix(2.6211 -3.5599 -3.5599 -2.6211 1434.5966 -5814.1978)">
					<stop  offset="0" style="stop-color:#FFFFFF"/>
					<stop  offset="1" style="stop-color:#FFFFFF"/>
				</linearGradient>
				<polygon id="XMLID_101_" class="st14" points="126.4,27.7 136.8,13.7 151.6,24.6 141.3,38.6 				"/>
			</g>
		</g>
	</g>
	<g id="XMLID_125_">
		<path id="XMLID_165_" class="st15" d="M0,9.3h19.2v4.8h-6.7v17.6H6.7V14.1H0V9.3z"/>
		<path id="XMLID_167_" class="st15" d="M26.5,7.3c0.6,0.6,0.8,1.3,0.8,2.2c0,0.9-0.3,1.6-0.8,2.2c-0.6,0.6-1.3,0.9-2.2,0.9
			c-0.9,0-1.6-0.3-2.2-0.9s-0.8-1.3-0.8-2.2c0-0.9,0.3-1.6,0.8-2.2c0.6-0.6,1.3-0.8,2.2-0.8C25.3,6.4,26,6.7,26.5,7.3z M21.6,14.4
			h5.7v17.3h-5.7V14.4z"/>
		<path id="XMLID_170_" class="st15" d="M45.7,16.7c1.5,1.7,2.3,3.9,2.3,6.8c0,0.4,0,0.8,0,1h-12c0.3,1,0.8,1.7,1.4,2.3
			c0.7,0.5,1.5,0.8,2.5,0.8c0.7,0,1.5-0.1,2.2-0.4s1.3-0.7,1.9-1.3l3,3c-0.9,1-2,1.8-3.2,2.3c-1.3,0.5-2.7,0.8-4.3,0.8
			c-1.9,0-3.5-0.4-4.9-1.1c-1.4-0.7-2.4-1.8-3.2-3.1s-1.1-2.9-1.1-4.6c0-1.8,0.4-3.3,1.1-4.7c0.7-1.4,1.8-2.4,3.2-3.1
			c1.4-0.7,2.9-1.1,4.7-1.1C42,14.2,44.2,15,45.7,16.7z M42.5,21.5c0-1-0.3-1.8-0.9-2.4c-0.6-0.6-1.4-0.9-2.3-0.9
			c-0.9,0-1.6,0.3-2.3,0.9c-0.6,0.6-1,1.4-1.2,2.4H42.5z"/>
		<path id="XMLID_173_" class="st15" d="M66.9,16c1.1,1.2,1.7,2.8,1.7,4.8v10.9h-5.7v-9.3c0-1-0.3-1.8-0.8-2.3
			c-0.5-0.6-1.2-0.8-2.1-0.8c-0.9,0-1.7,0.3-2.3,0.9c-0.6,0.6-1,1.4-1.1,2.4v9.2h-5.7V14.4h5.7v2.8c0.6-1,1.4-1.8,2.4-2.3
			c1-0.5,2.1-0.8,3.3-0.8C64.2,14.2,65.8,14.8,66.9,16z"/>
		<path id="XMLID_175_" class="st15" d="M90,8v23.7h-5.7v-2.2c-0.6,0.8-1.3,1.4-2.2,1.8c-0.9,0.4-1.8,0.6-2.9,0.6
			c-1.6,0-3-0.4-4.2-1.1c-1.2-0.7-2.2-1.8-2.8-3.2c-0.7-1.4-1-2.9-1-4.7c0-1.8,0.3-3.3,1-4.6c0.7-1.3,1.6-2.3,2.8-3.1
			c1.2-0.7,2.6-1.1,4.2-1.1c1.1,0,2.1,0.2,3,0.6c0.9,0.4,1.6,1,2.3,1.8V8H90z M83.2,26.3c0.7-0.8,1-1.8,1-3.1c0-1.3-0.3-2.3-1-3.1
			c-0.7-0.8-1.6-1.2-2.7-1.2c-1.1,0-2,0.4-2.7,1.2c-0.7,0.8-1,1.8-1,3.1s0.3,2.3,1,3.1c0.7,0.8,1.6,1.2,2.7,1.2
			C81.7,27.5,82.5,27.1,83.2,26.3z"/>
		<path id="XMLID_178_" class="st15" d="M107.8,15.8c1.3,1.1,2,2.6,2,4.6v11.3h-5.6v-2c-1.2,1.5-2.9,2.2-5.2,2.2
			c-1.8,0-3.3-0.5-4.3-1.5c-1.1-1-1.6-2.3-1.6-3.9c0-1.6,0.6-2.9,1.7-3.8c1.1-0.9,2.8-1.4,4.9-1.4h4.5v-0.2c0-0.8-0.3-1.5-0.8-1.9
			c-0.6-0.4-1.4-0.7-2.4-0.7c-0.7,0-1.5,0.1-2.4,0.4c-0.9,0.2-1.8,0.6-2.7,1l-1.6-3.8c1.4-0.6,2.8-1.1,4-1.4c1.3-0.3,2.6-0.5,4-0.5
			C104.7,14.2,106.5,14.7,107.8,15.8z M103,27.5c0.6-0.4,1-1,1.2-1.6v-1.5h-3.4c-1.6,0-2.4,0.6-2.4,1.8c0,0.6,0.2,1.1,0.6,1.4
			c0.4,0.4,1,0.5,1.7,0.5C101.7,28.1,102.4,27.9,103,27.5z"/>
	</g>
</g>
</svg>
