<?xml version="1.0" encoding="utf-8"?>
<!-- Generator: Adobe Illustrator 22.1.0, SVG Export Plug-In . SVG Version: 6.00 Build 0)  -->
<svg version="1.1" id="Capa_1" xmlns="http://www.w3.org/2000/svg" xmlns:xlink="http://www.w3.org/1999/xlink" x="0px" y="0px"
	 viewBox="0 0 109 43.1" style="enable-background:new 0 0 109 43.1;" xml:space="preserve">
<style type="text/css">
	.st0{fill:#AF2021;}
	.st1{display:none;fill:#FFFFFF;}
	.st2{fill:url(#SVGID_3_);}
	.st3{fill:url(#SVGID_4_);}
	.st4{clip-path:url(#SVGID_7_);}
	.st5{clip-path:url(#SVGID_8_);fill:url(#SVGID_9_);}
	.st6{opacity:0.5;fill:url(#SVGID_10_);enable-background:new    ;}
	.st7{clip-path:url(#SVGID_13_);}
	.st8{clip-path:url(#SVGID_14_);fill:url(#SVGID_15_);}
	.st9{opacity:0.5;fill:url(#SVGID_16_);enable-background:new    ;}
	.st10{fill:url(#SVGID_17_);}
	.st11{fill:url(#SVGID_18_);}
	.st12{fill:url(#SVGID_19_);}
	.st13{fill:url(#SVGID_20_);}
	.st14{fill:url(#SVGID_21_);}
	.st15{fill:url(#SVGID_22_);}
	.st16{fill:url(#SVGID_23_);}
</style>
<g>
	<g>
		<g>
			<g>
				<g>
					<path class="st0" d="M-2395.7-3548.6h-29.7c-15.6,0-28.2,12.7-28.2,28.2c0,0.4,0,0.6,0,1l0,0v42.1c0,0,6.6-14.9,28.2-14.9h29.7
						c15.6,0,28.2-12.6,28.2-28.2C-2367.5-3535.9-2380.1-3548.6-2395.7-3548.6z"/>
					<path class="st0" d="M-2389.8-3483.3h-32.8c-17.2,0-31.1,14-31.1,31.2c0,0.3,0,0.7,0,1.1l0,0v46.4c0,0,7.3-16.3,31.1-16.3h32.8
						c17.2,0,31.1-13.9,31.1-31.1C-2358.7-3469.3-2372.6-3483.3-2389.8-3483.3z"/>
				</g>
			</g>
		</g>
	</g>
</g>
<rect x="-2425.6" y="-3557.9" class="st1" width="22.5" height="165"/>
<g>
	<g>
		<path class="st0" d="M16.8,16.4H8.3c-6.2,0-8.1,4.2-8.1,4.3c1-1.3,3.2-3.4,7.6-3.4h8.6c3.1,0,5.8-1.7,7.2-4.3
			C22,15.1,19.6,16.4,16.8,16.4z"/>
		
			<radialGradient id="SVGID_3_" cx="-7536.0088" cy="-10806.8496" r="67.3759" gradientTransform="matrix(0.4038 0 0 -0.4038 3043.1536 -4343.7212)" gradientUnits="userSpaceOnUse">
			<stop  offset="0" style="stop-color:#C4291C"/>
			<stop  offset="0.403" style="stop-color:#C2281D"/>
			<stop  offset="0.6607" style="stop-color:#BA2520"/>
			<stop  offset="0.8769" style="stop-color:#AD2024"/>
			<stop  offset="1" style="stop-color:#A21C26"/>
		</radialGradient>
		<path class="st2" d="M16.8,0.1H8.3c-4.5,0-8.1,3.7-8.1,8.1c0,0.1,0,0.2,0,0.3l0,0v12.1c0,0,1.9-4.3,8.1-4.3h8.6
			c4.5,0,8.1-3.6,8.1-8.1C25,3.7,21.3,0.1,16.8,0.1z"/>
		
			<radialGradient id="SVGID_4_" cx="-7534.4258" cy="-10861.1553" r="73.2455" gradientTransform="matrix(0.4038 0 0 -0.4038 3043.1536 -4343.7212)" gradientUnits="userSpaceOnUse">
			<stop  offset="0" style="stop-color:#C4291C"/>
			<stop  offset="0.403" style="stop-color:#C2281D"/>
			<stop  offset="0.6607" style="stop-color:#BA2520"/>
			<stop  offset="0.8769" style="stop-color:#AD2024"/>
			<stop  offset="1" style="stop-color:#A21C26"/>
		</radialGradient>
		<path class="st3" d="M18.6,20.4H9.1c-5,0-9,4-9,9c0,0.1,0,0.2,0,0.3l0,0v13.4c0,0,2.1-4.7,9-4.7h9.5c5,0,9-4,9-9
			C27.5,24.4,23.5,20.4,18.6,20.4z"/>
		<path class="st0" d="M18.6,38.4H9.1c-6.4,0-8.8,4.1-9,4.7c1.1-1.4,3.6-3.7,8.3-3.7h9.4c3.4,0,6.3-1.9,7.9-4.6
			C24.1,36.9,21.5,38.4,18.6,38.4z"/>
		<g>
			<g>
				<defs>
					<polygon id="SVGID_5_" points="1,1 2,1 1,2 					"/>
				</defs>
				<defs>
					<polygon id="SVGID_6_" points="-1,-1 -2,-1 -1,-2 					"/>
				</defs>
				<clipPath id="SVGID_7_">
					<use xlink:href="#SVGID_5_"  style="overflow:visible;"/>
				</clipPath>
				<clipPath id="SVGID_8_" class="st4">
					<use xlink:href="#SVGID_6_"  style="overflow:visible;"/>
				</clipPath>
				
					<linearGradient id="SVGID_9_" gradientUnits="userSpaceOnUse" x1="-1544.2827" y1="-543.3579" x2="-1541.5098" y2="-539.5917" gradientTransform="matrix(1 0 0 -1 1562.4414 -517.1816)">
					<stop  offset="0" style="stop-color:#000000"/>
					<stop  offset="0.1624" style="stop-color:#030303"/>
					<stop  offset="0.2928" style="stop-color:#0D0D0D"/>
					<stop  offset="0.4122" style="stop-color:#1E1E1E"/>
					<stop  offset="0.525" style="stop-color:#363636"/>
					<stop  offset="0.6332" style="stop-color:#555555"/>
					<stop  offset="0.7379" style="stop-color:#7B7B7B"/>
					<stop  offset="0.8399" style="stop-color:#A7A7A7"/>
					<stop  offset="0.9371" style="stop-color:#DADADA"/>
					<stop  offset="1" style="stop-color:#FFFFFF"/>
				</linearGradient>
				<path class="st5" d="M9,22.2h9.5c0,0,6.5,0,6.5,5.3c0,4.2,0,5.8,0,5.8S20,23.6,9,22.2z"/>
			</g>
		</g>
		
			<linearGradient id="SVGID_10_" gradientUnits="userSpaceOnUse" x1="-1544.2827" y1="-543.3579" x2="-1541.5098" y2="-539.5917" gradientTransform="matrix(1 0 0 -1 1562.4414 -517.1816)">
			<stop  offset="0" style="stop-color:#FFFFFF"/>
			<stop  offset="0.9104" style="stop-color:#FFFFFF"/>
			<stop  offset="1" style="stop-color:#FFFFFF"/>
		</linearGradient>
		<path class="st6" d="M9,22.2h9.5c0,0,6.5,0,6.5,5.3c0,4.2,0,5.8,0,5.8S20,23.6,9,22.2z"/>
		<g>
			<g>
				<defs>
					<polygon id="SVGID_11_" points="1,1 2,1 1,2 					"/>
				</defs>
				<defs>
					<polygon id="SVGID_12_" points="-1,-1 -2,-1 -1,-2 					"/>
				</defs>
				<clipPath id="SVGID_13_">
					<use xlink:href="#SVGID_11_"  style="overflow:visible;"/>
				</clipPath>
				<clipPath id="SVGID_14_" class="st7">
					<use xlink:href="#SVGID_12_"  style="overflow:visible;"/>
				</clipPath>
				
					<linearGradient id="SVGID_15_" gradientUnits="userSpaceOnUse" x1="-1546.4326" y1="-522.9257" x2="-1543.7671" y2="-519.3054" gradientTransform="matrix(1 0 0 -1 1562.4414 -517.1816)">
					<stop  offset="0" style="stop-color:#000000"/>
					<stop  offset="0.1624" style="stop-color:#030303"/>
					<stop  offset="0.2928" style="stop-color:#0D0D0D"/>
					<stop  offset="0.4122" style="stop-color:#1E1E1E"/>
					<stop  offset="0.525" style="stop-color:#363636"/>
					<stop  offset="0.6332" style="stop-color:#555555"/>
					<stop  offset="0.7379" style="stop-color:#7B7B7B"/>
					<stop  offset="0.8399" style="stop-color:#A7A7A7"/>
					<stop  offset="0.9371" style="stop-color:#DADADA"/>
					<stop  offset="1" style="stop-color:#FFFFFF"/>
				</linearGradient>
				<path class="st8" d="M7.2,1.9h9.1c0,0,6.3,0,6.3,5.1c0,4,0,5.6,0,5.6S17.7,3.3,7.2,1.9z"/>
			</g>
		</g>
		
			<linearGradient id="SVGID_16_" gradientUnits="userSpaceOnUse" x1="-1546.4326" y1="-522.9257" x2="-1543.7671" y2="-519.3054" gradientTransform="matrix(1 0 0 -1 1562.4414 -517.1816)">
			<stop  offset="0" style="stop-color:#FFFFFF"/>
			<stop  offset="0.9104" style="stop-color:#FFFFFF"/>
			<stop  offset="1" style="stop-color:#FFFFFF"/>
		</linearGradient>
		<path class="st9" d="M7.2,1.9h9.1c0,0,6.3,0,6.3,5.1c0,4,0,5.6,0,5.6S17.7,3.3,7.2,1.9z"/>
	</g>
	<g>
		
			<linearGradient id="SVGID_17_" gradientUnits="userSpaceOnUse" x1="2.6999" y1="48.3318" x2="127.5815" y2="14.1936" gradientTransform="matrix(1 0 0 -1 0 54)">
			<stop  offset="0" style="stop-color:#5E5E5E"/>
			<stop  offset="8.838939e-03" style="stop-color:#717171"/>
			<stop  offset="2.909705e-02" style="stop-color:#979797"/>
			<stop  offset="5.099816e-02" style="stop-color:#B7B7B7"/>
			<stop  offset="7.451710e-02" style="stop-color:#D1D1D1"/>
			<stop  offset="0.1002" style="stop-color:#E6E6E6"/>
			<stop  offset="0.1293" style="stop-color:#F4F4F4"/>
			<stop  offset="0.1646" style="stop-color:#FCFCFC"/>
			<stop  offset="0.2232" style="stop-color:#FFFFFF"/>
			<stop  offset="0.527" style="stop-color:#A8A8A8"/>
			<stop  offset="0.8464" style="stop-color:#FFFFFF"/>
			<stop  offset="0.8678" style="stop-color:#FAFAFA"/>
			<stop  offset="0.8919" style="stop-color:#EDEDED"/>
			<stop  offset="0.9173" style="stop-color:#D6D6D6"/>
			<stop  offset="0.9436" style="stop-color:#B7B7B7"/>
			<stop  offset="0.9707" style="stop-color:#8E8E8E"/>
			<stop  offset="0.9979" style="stop-color:#5D5D5D"/>
			<stop  offset="1" style="stop-color:#595959"/>
		</linearGradient>
		<path class="st10" d="M21.3,1.2C20,0.4,18.5,0,16.9,0H15c-2.8,5.3-4.7,12.7-5.9,17.3h7C17.3,12.3,19,6.1,21.3,1.2z"/>
		
			<linearGradient id="SVGID_18_" gradientUnits="userSpaceOnUse" x1="-3.3335" y1="26.2438" x2="121.5481" y2="-7.8944" gradientTransform="matrix(1 0 0 -1 0 54)">
			<stop  offset="0" style="stop-color:#5E5E5E"/>
			<stop  offset="8.838939e-03" style="stop-color:#717171"/>
			<stop  offset="2.909705e-02" style="stop-color:#979797"/>
			<stop  offset="5.099816e-02" style="stop-color:#B7B7B7"/>
			<stop  offset="7.451710e-02" style="stop-color:#D1D1D1"/>
			<stop  offset="0.1002" style="stop-color:#E6E6E6"/>
			<stop  offset="0.1293" style="stop-color:#F4F4F4"/>
			<stop  offset="0.1646" style="stop-color:#FCFCFC"/>
			<stop  offset="0.2232" style="stop-color:#FFFFFF"/>
			<stop  offset="0.527" style="stop-color:#A8A8A8"/>
			<stop  offset="0.8464" style="stop-color:#FFFFFF"/>
			<stop  offset="0.8678" style="stop-color:#FAFAFA"/>
			<stop  offset="0.8919" style="stop-color:#EDEDED"/>
			<stop  offset="0.9173" style="stop-color:#D6D6D6"/>
			<stop  offset="0.9436" style="stop-color:#B7B7B7"/>
			<stop  offset="0.9707" style="stop-color:#8E8E8E"/>
			<stop  offset="0.9979" style="stop-color:#5D5D5D"/>
			<stop  offset="1" style="stop-color:#595959"/>
		</linearGradient>
		<path class="st11" d="M15.3,20.8c0-0.2,0.1-0.4,0.1-0.6H8.7c-0.1,0-0.1,0-0.2,0C7,26.7,4.8,36,1.3,41.7c1.5-1.2,3.8-2.4,7.3-2.4
			h0.8C12.5,33.3,14.4,25,15.3,20.8L15.3,20.8z"/>
	</g>
	<g>
		<g>
			<g>
				<g>
					<g>
						
							<radialGradient id="SVGID_19_" cx="44.6" cy="31.2365" r="10.8651" gradientTransform="matrix(1 0 0 -1 0 54)" gradientUnits="userSpaceOnUse">
							<stop  offset="0" style="stop-color:#C4291C"/>
							<stop  offset="5.995475e-02" style="stop-color:#C4291C"/>
							<stop  offset="1" style="stop-color:#C4291C"/>
						</radialGradient>
						<path class="st12" d="M35,11.8c0-0.6,0.4-1,1-1h3.7c0.6,0,1,0.4,1,1v5.1c1.4-0.4,2.7-0.8,4.7-0.8c5.3,0,8.8,3.2,8.8,9.4
							s-3.5,9.3-10.4,9.3c-3.2,0-7.1-0.8-8.8-1.9C35,32.9,35,11.8,35,11.8z M40.7,30.4c0.8,0.2,2.1,0.4,3.5,0.4
							c3.1,0,4.2-1.6,4.2-5.3s-1.1-5.4-4.1-5.4c-0.8,0-2.2,0.2-3.6,0.7C40.7,20.8,40.7,30.4,40.7,30.4z"/>
						
							<radialGradient id="SVGID_20_" cx="60.1877" cy="31.55" r="8.7143" gradientTransform="matrix(1 0 0 -1 0 54)" gradientUnits="userSpaceOnUse">
							<stop  offset="0" style="stop-color:#C4291C"/>
							<stop  offset="5.995475e-02" style="stop-color:#C4291C"/>
							<stop  offset="1" style="stop-color:#C4291C"/>
						</radialGradient>
						<path class="st13" d="M57.3,12.4c0-1.2,0.7-1.9,1.9-1.9h2.1c1.2,0,1.9,0.7,1.9,1.9V13c0,1.2-0.7,1.9-1.9,1.9h-2.1
							c-1.2,0-1.9-0.7-1.9-1.9V12.4z M58.4,34.4c-0.6,0-1-0.4-1-1V17.8c0-0.6,0.4-1,1-1H62c0.6,0,1,0.4,1,1v15.6c0,0.6-0.4,1-1,1
							H58.4z"/>
						
							<radialGradient id="SVGID_21_" cx="73.3779" cy="31.25" r="9.5267" gradientTransform="matrix(1 0 0 -1 0 54)" gradientUnits="userSpaceOnUse">
							<stop  offset="0" style="stop-color:#C4291C"/>
							<stop  offset="5.995475e-02" style="stop-color:#C4291C"/>
							<stop  offset="1" style="stop-color:#C4291C"/>
						</radialGradient>
						<path class="st14" d="M74.2,34.7c-4.7,0-7.1-2.4-7.1-7.4V11.8c0-0.6,0.4-1,1-1h3.7c0.6,0,1,0.4,1,1v5.5h4.6c0.6,0,1,0.4,1,1v2
							c0,0.6-0.4,1-1,1h-4.6v6c0,2.3,1.2,3.5,2.9,3.5c0.9,0,1.5-0.2,2.3-0.2h0.6c0.6,0,1,0.4,1,1v1.7c0,0.5-0.4,0.9-1,1
							C77.6,34.6,75.7,34.7,74.2,34.7"/>
						
							<radialGradient id="SVGID_22_" cx="90.553" cy="28.6246" r="9.4721" gradientTransform="matrix(1 0 0 -1 0 54)" gradientUnits="userSpaceOnUse">
							<stop  offset="0" style="stop-color:#C4291C"/>
							<stop  offset="5.995475e-02" style="stop-color:#C4291C"/>
							<stop  offset="1" style="stop-color:#C4291C"/>
						</radialGradient>
						<path class="st15" d="M86.7,27.1C87,29.8,88.2,31,91,31c1.4,0,2.7-0.4,3.2-1.1c0.4-0.5,1-0.9,1.9-0.9h2.5c0.6,0,1,0.4,1,1
							c0,3.5-3.6,4.7-9,4.7c-6,0-9.6-3.2-9.6-9.3s3.6-9.4,9.6-9.4s9.6,3.2,9.6,9.1V26c0,0.6-0.4,1-1,1L86.7,27.1L86.7,27.1z
							 M86.7,23.6h7.6c-0.1-2.5-1.3-3.9-3.8-3.9C88.1,19.8,86.8,21.1,86.7,23.6"/>
						
							<radialGradient id="SVGID_23_" cx="106.0284" cy="31.4" r="8.5783" gradientTransform="matrix(1 0 0 -1 0 54)" gradientUnits="userSpaceOnUse">
							<stop  offset="0" style="stop-color:#C4291C"/>
							<stop  offset="5.995475e-02" style="stop-color:#C4291C"/>
							<stop  offset="1" style="stop-color:#C4291C"/>
						</radialGradient>
						<path class="st16" d="M104.2,34.4c-0.6,0-1-0.4-1-1V11.8c0-0.6,0.4-1,1-1h3.7c0.6,0,1,0.4,1,1v21.6c0,0.6-0.4,1-1,1H104.2z"/>
					</g>
				</g>
			</g>
		</g>
	</g>
</g>
</svg>
