<?xml version="1.0" encoding="utf-8"?>
<!-- Generator: Adobe Illustrator 19.0.0, SVG Export Plug-In . SVG Version: 6.00 Build 0)  -->
<svg version="1.1" id="Capa_1" xmlns="http://www.w3.org/2000/svg" xmlns:xlink="http://www.w3.org/1999/xlink" x="0px" y="0px"
	 viewBox="0 0 100 100" style="enable-background:new 0 0 100 100;" xml:space="preserve">
<style type="text/css">
	.st0{fill:#A4A4A4;}
</style>
<g>
	<g id="XMLID_1_">
		<path id="XMLID_118_" class="st0" d="M88.1,25.9L87.5,25l-2.7,1.7l0.6,0.9c4.2,6.7,6.5,14.4,6.5,22.4c0,23.1-18.8,41.9-41.9,41.9
			S8.1,73.1,8.1,50S26.9,8.1,50,8.1c7.6,0,15.1,2.1,21.6,6l0.9,0.6l1.7-2.8l-0.9-0.6c-7-4.2-15-6.4-23.2-6.4
			C25.1,4.9,4.9,25.1,4.9,50S25.1,95.1,50,95.1S95.1,74.9,95.1,50C95.1,41.4,92.7,33.1,88.1,25.9z"/>
		<path id="XMLID_119_" class="st0" d="M57.4,36.4L57.4,36.4c0.6,0,1.1-0.2,1.5-0.6c0.4-0.4,0.6-1,0.6-1.6s-0.3-1.1-0.7-1.5
			s-0.9-0.6-1.6-0.6l0,0c-1.2,0-2.1,1-2.1,2.2c0,0.6,0.2,1.1,0.6,1.5C56.2,36.1,56.8,36.4,57.4,36.4z"/>
		<path id="XMLID_120_" class="st0" d="M44.5,36.4L44.5,36.4c0.6,0,1.1-0.2,1.5-0.6c0.4-0.4,0.6-1,0.6-1.5c0-0.6-0.2-1.1-0.7-1.5
			c-0.4-0.4-1-0.6-1.5-0.6c-1.2,0-2.1,1-2.1,2.1c0,0.6,0.2,1.1,0.6,1.5C43.4,36.1,44,36.4,44.5,36.4z"/>
		<path id="XMLID_123_" class="st0" d="M69.2,61.3c0.3,0,0.6,0,0.9-0.1c1.8-0.4,3.1-2,3.1-3.8c0-1.4,0-2.8,0-4.2v-2.4V49
			c0-1.6,0-3.1,0-4.7c0-2.3-1.7-4.1-4-4.1c-1.1,0-2.1,0.4-2.9,1.2c-0.2,0.2-0.3,0.4-0.4,0.6v-0.5h0.3L66,40.4
			c-0.7-4.8-3.1-8.6-7-11.2l1.5-2.5c0.2-0.2,0.4-0.6,0.5-0.9c0.2-0.6-0.1-1.3-0.5-1.7c-0.4-0.4-1.1-0.4-1.7,0.1
			c-0.4,0.2-0.5,0.5-0.6,0.7L56.4,28c-1.8-0.7-3.6-1-5.6-1c-1.9,0-3.7,0.4-5.5,1.1L43.7,25c-0.7-1.3-1.6-1-2-0.8
			c-0.5,0.2-0.7,0.6-0.8,0.8c-0.1,0.3-0.1,0.6,0,0.9l-0.2,0.2H41c0.1,0.2,0.1,0.3,0.2,0.4l1.6,3c-4,2.7-6.3,6.3-6.9,11.1l-0.2,1.1
			H36v0.6c-0.8-1.3-2.3-2-3.9-1.8c-1.9,0.3-3.4,1.9-3.4,3.9c0,1.6,0,3.1,0,4.7v2v2.5c0,1.4,0,2.8,0,4.2c0,1.2,0.5,2.3,1.5,3.1
			c0.7,0.6,1.6,0.9,2.5,0.9c0.3,0,0.6,0,0.9-0.1c1.1-0.2,1.9-0.8,2.5-1.7c0,1.1,0,2.3,0,3.4c0,0.9,0.4,1.8,1,2.4s1.5,0.9,2.3,0.8
			c0.8,0,1.5,0,2.3,0h0.1v1.7c0,1.6,0,3.1,0,4.7c0,2,1.7,3.8,3.8,3.9c1.1,0,2.1-0.3,2.9-1c0.8-0.7,1.3-1.6,1.3-2.7
			c0.1-1.6,0.1-3.2,0.1-4.8v-1.8h2.4v1.6c0,1.5,0,3,0,4.6c0,1.1,0.4,2.2,1.2,2.9c0.7,0.7,1.7,1.1,2.8,1.1h0.1l0,0
			c2.2,0,3.9-1.8,3.9-4.1c0-1.5,0-3,0-4.6v-1.6h0.1c0.8,0,1.5,0,2.2,0c1,0.1,1.8-0.2,2.5-0.8c0.7-0.6,1-1.5,1-2.6s0-2.1,0-3.2
			C66.7,60.7,67.9,61.3,69.2,61.3z M44.5,30.3l0.8-0.4c1.9-0.8,3.7-1.2,5.6-1.2c1.9,0,3.7,0.4,5.6,1.2l0.8,0.4
			c3.6,2.2,5.8,5.1,6.7,9.1H38C38.8,35.4,40.9,32.5,44.5,30.3z M69.2,42.1v-0.6l0,0V42.1c1.2,0,2,0.9,2,2.1c0,1.6,0,3.1,0,4.7v4.2
			c0,1.4,0,2.8,0,4.2c0,0.9-0.7,1.7-1.5,1.9c-1,0.2-1.9-0.2-2.3-1.1c-0.1-0.3-0.2-0.7-0.2-1c0-4.3,0-8.6,0-13c0-0.6,0.2-1.2,0.6-1.5
			C68.2,42.3,68.7,42.1,69.2,42.1z M63.6,63.9c-0.3,0.3-0.7,0.3-1,0.3c-0.8,0-1.5,0-2.4,0h-2.1v8.1c0,1.2-0.8,2.1-1.9,2.1
			c-0.6,0-1.1-0.2-1.5-0.6s-0.6-0.9-0.6-1.5c0-1.5,0-3,0-4.5v-3.6h-6.3l-0.1,1.1c0,0.2,0,0.3,0,0.5V68c0,1.5,0,3.1-0.1,4.7
			c0,0.5-0.2,0.9-0.6,1.2c-0.4,0.3-0.9,0.6-1.5,0.5c-1,0-1.8-0.9-1.8-1.9c0-1.6,0-3.1,0-4.7v-3.6h-2.1c-0.8,0-1.6,0-2.4,0
			c-0.3,0-0.6-0.1-0.9-0.3c-0.2-0.2-0.4-0.6-0.4-1c0-4.8,0-9.6,0-14.4v-5.7H64v5c0,5,0,10,0,15C64,63.1,63.9,63.6,63.6,63.9z
			 M30.6,48.7c0-1.5,0-3.1,0-4.6c0-1,0.7-1.8,1.7-2c0.1,0,0.2,0,0.3,0c0.9,0,1.7,0.6,2,1.5c0.1,0.2,0.1,0.4,0.1,0.7
			c0,4.2,0,8.5,0,12.7c0,1.2-0.6,2-1.6,2.2c-0.6,0.1-1.2,0-1.7-0.4s-0.7-0.9-0.7-1.6c0-1.5,0-3.1,0-4.6v-2L30.6,48.7z"/>
	</g>
	<path id="XMLID_27_" class="st0" d="M80.5,23c1.7,0,3.2-1.4,3.2-3.2c0-1.7-1.4-3.2-3.2-3.2c-1.7,0-3.2,1.4-3.2,3.2
		C77.3,21.6,78.8,23,80.5,23z"/>
</g>
</svg>
