<?xml version="1.0" encoding="utf-8"?>
<!-- Generator: Adobe Illustrator 19.0.0, SVG Export Plug-In . SVG Version: 6.00 Build 0)  -->
<svg version="1.1" id="Capa_1" xmlns="http://www.w3.org/2000/svg" xmlns:xlink="http://www.w3.org/1999/xlink" x="0px" y="0px"
	 viewBox="0 0 100 100" style="enable-background:new 0 0 100 100;" xml:space="preserve">
<style type="text/css">
	.st0{fill:#A4A4A4;}
</style>
<g id="XMLID_23_">
	<path id="XMLID_24_" class="st0" d="M88.1,25.9L87.5,25l-2.7,1.7l0.6,0.9c4.2,6.7,6.5,14.4,6.5,22.4c0,23.1-18.8,41.9-41.9,41.9
		C26.9,91.9,8.1,73.1,8.1,50C8.1,26.9,26.9,8.1,50,8.1c7.6,0,15.1,2.1,21.6,6l0.9,0.6l1.7-2.8l-0.9-0.6c-7-4.2-15-6.4-23.2-6.4
		C25.1,4.9,4.9,25.1,4.9,50c0,24.9,20.2,45.1,45.1,45.1c24.9,0,45.1-20.2,45.1-45.1C95.1,41.4,92.7,33.1,88.1,25.9z"/>
	<path id="XMLID_66_" class="st0" d="M80.5,23c1.7,0,3.2-1.4,3.2-3.2c0-1.7-1.4-3.2-3.2-3.2c-1.7,0-3.2,1.4-3.2,3.2
		C77.3,21.6,78.8,23,80.5,23z"/>
	<path id="XMLID_69_" class="st0" d="M50.6,33.8c-8.4,0-15.2,6.8-15.2,15.2c0,8.4,6.8,15.2,15.2,15.2c8.4,0,15.2-6.8,15.2-15.2
		C65.8,40.7,59,33.8,50.6,33.8z M50.6,62.4c-7.4,0-13.3-6-13.3-13.3c0-7.4,6-13.3,13.3-13.3c7.3,0,13.3,6,13.3,13.3
		C63.9,56.4,58,62.4,50.6,62.4z"/>
	<path id="XMLID_72_" class="st0" d="M50.6,38.6c-5.8,0-10.4,4.7-10.4,10.4c0,5.8,4.7,10.4,10.4,10.4c5.8,0,10.4-4.7,10.4-10.4
		C61,43.3,56.3,38.6,50.6,38.6z M50.6,40.5c4.7,0,8.5,3.8,8.5,8.5c0,4.7-3.8,8.5-8.5,8.5c-4.7,0-8.5-3.8-8.5-8.5
		C42,44.3,45.9,40.5,50.6,40.5z"/>
	<path id="XMLID_73_" class="st0" d="M45.8,52.6l1.7-0.8l-0.3-0.6c-1.8-3.9,1.1-6,1.3-6.1l0.5-0.4l-1.1-1.6l-0.5,0.4
		c-1.6,1.2-3.8,4.3-1.9,8.4L45.8,52.6z"/>
	<path id="XMLID_76_" class="st0" d="M74,29H27.8c-3.7,0-6.8,3-6.8,6.8v27.1c0,3.7,3,6.8,6.8,6.8H74c3.7,0,6.8-3,6.8-6.8V35.8
		C80.8,32.1,77.7,29,74,29z M78.7,62.9c0,2.6-2.1,4.6-4.6,4.6H27.8c-2.6,0-4.6-2.1-4.6-4.6V35.8c0-2.6,2.1-4.6,4.6-4.6H74
		c2.6,0,4.6,2.1,4.6,4.6V62.9z"/>
</g>
</svg>
