<?xml version="1.0" encoding="utf-8"?>
<!-- Generator: Adobe Illustrator 19.0.0, SVG Export Plug-In . SVG Version: 6.00 Build 0)  -->
<svg version="1.1" id="Capa_1" xmlns="http://www.w3.org/2000/svg" xmlns:xlink="http://www.w3.org/1999/xlink" x="0px" y="0px"
	 viewBox="0 0 100 100" style="enable-background:new 0 0 100 100;" xml:space="preserve">
<style type="text/css">
	.st0{fill:#A4A4A4;}
</style>
<g id="XMLID_56_">
	<path id="XMLID_57_" class="st0" d="M88.1,25.9L87.5,25l-2.7,1.7l0.6,0.9c4.2,6.7,6.5,14.4,6.5,22.4c0,23.1-18.8,41.9-41.9,41.9
		C26.9,91.9,8.1,73.1,8.1,50C8.1,26.9,26.9,8.1,50,8.1c7.6,0,15.1,2.1,21.6,6l0.9,0.6l1.7-2.8l-0.9-0.6c-7-4.2-15-6.4-23.2-6.4
		C25.1,4.9,4.9,25.1,4.9,50c0,24.9,20.2,45.1,45.1,45.1c24.9,0,45.1-20.2,45.1-45.1C95.1,41.4,92.7,33.1,88.1,25.9z"/>
	<path id="XMLID_58_" class="st0" d="M80.5,23c1.7,0,3.2-1.4,3.2-3.2c0-1.7-1.4-3.2-3.2-3.2c-1.7,0-3.2,1.4-3.2,3.2
		C77.3,21.6,78.8,23,80.5,23z"/>
	<path id="XMLID_61_" class="st0" d="M68,40.7c0.4,0,0.8-0.4,0.8-0.8v-6.4c0-0.4-0.2-0.8-0.5-1.1l-6.2-6.2c-0.3-0.3-0.7-0.5-1.2-0.5
		H34.5c-1.4,0-2.5,1.1-2.5,2.5v8.7c-0.5,0.3-0.8,0.8-0.8,1.4v3.4c0,0.9,0.7,1.6,1.6,1.6h0.9v2.6c0,0.5-0.4,0.9-0.9,0.9
		c-0.4,0-0.8,0.4-0.8,0.8v24.3c0,1.4,1.1,2.5,2.5,2.5h10.1c0.4,0,0.8-0.4,0.8-0.8c0-0.5,0.4-0.9,0.9-0.9h8.4c0.5,0,0.9,0.4,0.9,0.9
		c0,0.4,0.4,0.8,0.8,0.8h10.1c1.4,0,2.5-1.1,2.5-2.5V43.3c0-0.4-0.4-0.8-0.8-0.8c-0.5,0-0.9-0.4-0.9-0.9
		C67.2,41.1,67.6,40.7,68,40.7z M32.8,41.7C32.8,41.7,32.7,41.6,32.8,41.7l-0.1-3.4c0,0,0-0.1,0.1-0.1c0.5,0,0.9,0.4,0.9,0.9v2.6
		H32.8z M67.3,39.3c-1,0.3-1.7,1.3-1.7,2.3c0,1.1,0.7,2,1.7,2.3v27.9c0,0.5-0.4,0.9-0.9,0.9H57c-0.3-1-1.3-1.7-2.3-1.7h-8.4
		c-1.1,0-2,0.7-2.3,1.7h-9.4c-0.5,0-0.9-0.4-0.9-0.9V48.1c1-0.3,1.7-1.3,1.7-2.3v-6.7c0-1.1-0.7-2-1.7-2.3v-8.6
		c0-0.5,0.4-0.9,0.9-0.9H61c0,0,0,0,0,0l6.2,6.2c0,0,0,0,0,0V39.3z"/>
	<path id="XMLID_65_" class="st0" d="M61.3,33.3H39.5c-1.4,0-2.5,1.1-2.5,2.5v30.2c0,1.4,1.1,2.5,2.5,2.5h21.8
		c1.4,0,2.5-1.1,2.5-2.5V35.7C63.8,34.4,62.7,33.3,61.3,33.3z M62.2,65.9c0,0.5-0.4,0.9-0.9,0.9H39.5c-0.5,0-0.9-0.4-0.9-0.9V35.7
		c0-0.5,0.4-0.9,0.9-0.9h21.8c0.5,0,0.9,0.4,0.9,0.9V65.9z"/>
</g>
</svg>
