<?xml version="1.0" encoding="utf-8"?>
<!-- Generator: Adobe Illustrator 19.0.0, SVG Export Plug-In . SVG Version: 6.00 Build 0)  -->
<svg version="1.1" id="Capa_1" xmlns="http://www.w3.org/2000/svg" xmlns:xlink="http://www.w3.org/1999/xlink" x="0px" y="0px"
	 viewBox="0 0 100 100" style="enable-background:new 0 0 100 100;" xml:space="preserve">
<style type="text/css">
	.st0{fill:#A4A4A4;}
</style>
<g id="XMLID_43_">
	<path id="XMLID_44_" class="st0" d="M88.1,25.9L87.5,25l-2.7,1.7l0.6,0.9c4.2,6.7,6.5,14.4,6.5,22.4c0,23.1-18.8,41.9-41.9,41.9
		C26.9,91.9,8.1,73.1,8.1,50C8.1,26.9,26.9,8.1,50,8.1c7.6,0,15.1,2.1,21.6,6l0.9,0.5l1.7-2.8l-0.9-0.6c-7-4.2-15-6.4-23.2-6.4
		C25.1,4.9,4.9,25.1,4.9,50c0,24.9,20.2,45.1,45.1,45.1c24.9,0,45.1-20.2,45.1-45.1C95.1,41.4,92.7,33.1,88.1,25.9z"/>
	<circle id="XMLID_45_" class="st0" cx="80.5" cy="19.9" r="3.2"/>
	<path id="XMLID_48_" class="st0" d="M36.9,19.3c-3,0-5.4,2.4-5.4,5.4v53.2c0,3,2.4,5.4,5.4,5.4h26.2c3,0,5.4-2.4,5.4-5.4V24.7
		c0-3-2.4-5.4-5.4-5.4H36.9z M66.6,77.2v0.7c0,2-1.6,3.5-3.5,3.5H36.9c-2,0-3.5-1.6-3.5-3.5v-0.7H66.6z M66.6,26.9v48.3H33.4V26.9
		H66.6z M36.9,21.1h26.2c2,0,3.5,1.6,3.5,3.5v0.5H33.4v-0.5C33.4,22.7,35,21.1,36.9,21.1z"/>
</g>
</svg>
