<?xml version="1.0" encoding="utf-8"?>
<!-- Generator: Adobe Illustrator 19.0.0, SVG Export Plug-In . SVG Version: 6.00 Build 0)  -->
<svg version="1.1" id="Capa_1" xmlns="http://www.w3.org/2000/svg" xmlns:xlink="http://www.w3.org/1999/xlink" x="0px" y="0px"
	 viewBox="0 0 100 100" style="enable-background:new 0 0 100 100;" xml:space="preserve">
<style type="text/css">
	.st0{fill:#A4A4A4;}
</style>
<g id="XMLID_25_">
	<path id="XMLID_26_" class="st0" d="M88.1,25.9L87.5,25l-2.7,1.7l0.6,0.9c4.2,6.7,6.5,14.4,6.5,22.4c0,23.1-18.8,41.9-41.9,41.9
		C26.9,91.9,8.1,73.1,8.1,50C8.1,26.9,26.9,8.1,50,8.1c7.6,0,15.1,2.1,21.6,6l0.9,0.6l1.7-2.8l-0.9-0.6c-7-4.2-15-6.4-23.2-6.4
		C25.1,4.9,4.9,25.1,4.9,50c0,24.9,20.2,45.1,45.1,45.1c24.9,0,45.1-20.2,45.1-45.1C95.1,41.4,92.7,33.1,88.1,25.9z"/>
	<path id="XMLID_27_" class="st0" d="M80.5,23c1.7,0,3.2-1.4,3.2-3.2c0-1.7-1.4-3.2-3.2-3.2c-1.7,0-3.2,1.4-3.2,3.2
		C77.3,21.6,78.8,23,80.5,23z"/>
	<path id="XMLID_30_" class="st0" d="M67.4,35.8c0-2.2-1.8-4.1-4.1-4.1h-4.9v-7.2c0-0.6-0.5-1.1-1.1-1.1c-0.6,0-1.1,0.5-1.1,1.1v7.2
		H51v-7.2c0-0.6-0.5-1.1-1.1-1.1c-0.6,0-1.1,0.5-1.1,1.1v7.2h-5.6v-7.2c0-0.6-0.5-1.1-1.1-1.1c-0.6,0-1.1,0.5-1.1,1.1v7.2h-4.6
		c-2.2,0-4.1,1.8-4.1,4.1v4.7h-7.7c-0.6,0-1.1,0.5-1.1,1.1c0,0.6,0.5,1.1,1.1,1.1h7.7V48h-7.7c-0.6,0-1.1,0.5-1.1,1.1
		c0,0.6,0.5,1.1,1.1,1.1h7.7v5.6h-7.7c-0.6,0-1.1,0.5-1.1,1.1c0,0.6,0.5,1.1,1.1,1.1h7.7v4.7c0,2.2,1.8,4.1,4.1,4.1h4.8v7.8
		c0,0.6,0.5,1.1,1.1,1.1c0.6,0,1.1-0.5,1.1-1.1v-7.8h5.3v7.8c0,0.6,0.5,1.1,1.1,1.1c0.6,0,1.1-0.5,1.1-1.1v-7.8h5.6v7.8
		c0,0.6,0.5,1.1,1.1,1.1c0.6,0,1.1-0.5,1.1-1.1v-7.8h4.7c2.2,0,4.1-1.8,4.1-4.1v-4.5h7.9c0.6,0,1.1-0.5,1.1-1.1
		c0-0.6-0.5-1.1-1.1-1.1h-7.9v-5.3h7.9c0.6,0,1.1-0.5,1.1-1.1c0-0.6-0.5-1.1-1.1-1.1h-7.9V43h7.9c0.6,0,1.1-0.5,1.1-1.1
		c0-0.6-0.5-1.1-1.1-1.1h-7.9V35.8z M65.2,62.7c0,1.1-0.9,1.9-1.9,1.9H36.5c-1.1,0-1.9-0.9-1.9-1.9V35.8c0-1.1,0.9-1.9,1.9-1.9h26.8
		c1.1,0,1.9,0.9,1.9,1.9V62.7z"/>
</g>
</svg>
