<?xml version="1.0" encoding="UTF-8"?>
<svg width="32px" height="38px" viewBox="0 0 32 38" version="1.1" xmlns="http://www.w3.org/2000/svg" xmlns:xlink="http://www.w3.org/1999/xlink">
    <!-- Generator: Sketch 49.3 (51167) - http://www.bohemiancoding.com/sketch -->
    <title>Group 50</title>
    <desc>Created with Sketch.</desc>
    <defs></defs>
    <g id="Landing-Huawei-P20-Pro" stroke="none" stroke-width="1" fill="none" fill-rule="evenodd">
        <g transform="translate(-1201.000000, -5242.000000)" id="Bateria">
            <g transform="translate(0.000000, 4680.000000)">
                <g id="Group-16-Copy-4" transform="translate(1151.000000, 159.000000)">
                    <g id="Page-1" transform="translate(50.000000, 403.000000)">
                        <g id="Group-50">
                            <g id="Reservalo" transform="translate(0.000000, 4.000000)" fill="#FEE945">
                                <path d="M23.1242143,32.8535818 L2.79654762,32.8535818 C1.76645238,32.8535818 0.928880952,32.0165636 0.92702381,31.0280909 L2.78602381,9.73234545 C2.78602381,8.70369091 3.62359524,7.86667273 4.65369048,7.86667273 L7.48769048,7.86667273 L7.48769048,10.9680909 C7.48769048,11.2240182 7.69569048,11.4317273 7.95197619,11.4317273 C8.2082619,11.4317273 8.4162619,11.2240182 8.4162619,10.9680909 L8.4162619,7.86667273 L17.5045,7.86667273 L17.5045,10.9680909 C17.5045,11.2240182 17.7125,11.4317273 17.9687857,11.4317273 C18.2250714,11.4317273 18.4330714,11.2240182 18.4330714,10.9680909 L18.4330714,7.86667273 L21.2670714,7.86667273 C22.2971667,7.86667273 23.1353571,8.70369091 23.1372143,9.77252727 L24.9925,30.9872909 C24.9925,32.0165636 24.1543095,32.8535818 23.1242143,32.8535818 Z M8.4162619,6.0826 C8.4162619,3.58081818 10.4547857,1.54514545 12.9600714,1.54514545 C15.4659762,1.54514545 17.5045,3.58081818 17.5045,6.0826 L17.5045,6.9394 L8.4162619,6.9394 L8.4162619,6.0826 Z M24.0639286,9.73234545 C24.0639286,8.19183636 22.809119,6.9394 21.2670714,6.9394 L18.4330714,6.9394 L18.4330714,6.0826 C18.4330714,3.06958182 15.9779286,0.617872727 12.9600714,0.617872727 C9.94283333,0.617872727 7.48769048,3.06958182 7.48769048,6.0826 L7.48769048,6.9394 L4.65369048,6.9394 C3.11164286,6.9394 1.85745238,8.19183636 1.85869048,9.69154545 L0.00030952381,30.9872909 C0.00030952381,32.5278 1.2545,33.7808545 2.79654762,33.7808545 L23.1242143,33.7808545 C24.6662619,33.7808545 25.9210714,32.5278 25.9192143,30.9471091 L24.0639286,9.73234545 Z" id="Fill-1"></path>
                                <path d="M11.3774143,19.3314727 L13.8201762,19.3314727 C15.1009857,19.3314727 16.1385095,18.2978727 16.1385095,17.0182364 C16.1385095,15.7410727 15.1009857,14.7019091 13.8201762,14.7019091 L11.3774143,14.7019091 C10.0959857,14.7019091 9.05784286,15.7410727 9.05784286,17.0182364 L9.05784286,17.0986 L9.05784286,20.5505273 C9.05784286,20.5505273 9.60074762,19.3314727 11.3774143,19.3314727" id="Fill-4"></path>
                                <path d="M14.3076143,20.47548 L11.6153762,20.47548 C10.1996143,20.47548 9.05809048,21.6215891 9.05809048,23.03228 L9.05809048,23.1188255 L9.05809048,26.9224982 C9.05809048,26.9224982 9.65670952,25.5835164 11.6153762,25.5835164 L14.3076143,25.5835164 C15.7196619,25.5835164 16.8630429,24.43988 16.8630429,23.03228 C16.8630429,21.6215891 15.7196619,20.47548 14.3076143,20.47548" id="Fill-6"></path>
                            </g>
                            <circle id="Oval-3" fill="#F8E12E" cx="29" cy="3" r="3"></circle>
                        </g>
                    </g>
                </g>
            </g>
        </g>
    </g>
</svg>