<svg id="Capa_1" data-name="Capa 1" xmlns="http://www.w3.org/2000/svg" viewBox="0 0 73.13 97.54"><defs><style>.cls-1{fill:none;stroke:#53959c;stroke-miterlimit:10;stroke-width:3.5px;}</style></defs><title>DELIVERY</title><polyline class="cls-1" points="24.5 66.97 24.5 50.66 71.38 50.66 71.38 89.39 24.5 89.39 24.5 79.2"/><polyline class="cls-1" points="40.8 50.66 40.8 58.81 55.07 58.81 55.07 50.66"/><path class="cls-1" d="M92.2,62.81l-4.56-7.6a8.18,8.18,0,0,0-4.41-3.54l-9.37-3.12" transform="translate(-24.9 -12.15)"/><path class="cls-1" d="M49.4,48.55l-11,4.71A8.14,8.14,0,0,0,33.94,58L27,77.42a6.12,6.12,0,0,0,3.72,7.82L59.59,95.42" transform="translate(-24.9 -12.15)"/><line class="cls-1" x1="16.35" y1="77.16" x2="16.35" y2="97.54"/><line class="cls-1" x1="55.07" y1="89.39" x2="55.07" y2="97.54"/><path class="cls-1" d="M73.86,34.28V39.9a6.17,6.17,0,0,1-1.79,4.33L66.9,49.39A4,4,0,0,1,64,50.59H59.24a4,4,0,0,1-2.88-1.2l-5.17-5.16A6.17,6.17,0,0,1,49.4,39.9V24.09A10.19,10.19,0,0,1,59.59,13.9h4.08A10.19,10.19,0,0,1,73.86,24.09v6.12" transform="translate(-24.9 -12.15)"/><line class="cls-1" x1="30.61" y1="18.05" x2="63.22" y2="18.05"/><line class="cls-1" x1="65.26" y1="81.23" x2="61.19" y2="81.23"/><line class="cls-1" x1="59.15" y1="81.23" x2="55.07" y2="81.23"/></svg>