<svg id="Capa_1" data-name="Capa 1" xmlns="http://www.w3.org/2000/svg" viewBox="0 0 80.95 98.57"><defs><style>.cls-1{fill:none;stroke:#53959c;stroke-miterlimit:10;stroke-width:3.5px;}</style></defs><title>GARANTIA</title><path class="cls-1" d="M62.88,17.09C59.12,22.44,34,33.4,24.14,33.4V72.12c0,18.2,36.57,38.12,38.72,38.69,2.15-.57,38.72-21.88,38.72-36.65V33.4C90.83,33.4,66.65,22.44,62.88,17.09Z" transform="translate(-22.39 -14.05)"/><line class="cls-1" x1="40.47" y1="47.85" x2="40.47" y2="72.31"/><polyline class="cls-1" points="64.93 37.66 64.93 62.12 40.47 72.31 16.02 62.12 16.02 37.66"/><polygon class="cls-1" points="64.93 37.66 40.47 47.85 16.02 37.66 16.02 35.62 40.47 25.43 64.93 35.62 64.93 37.66"/><line class="cls-1" x1="54.67" y1="41.93" x2="28.31" y2="30.5"/></svg>