<svg xmlns="http://www.w3.org/2000/svg" width="153" height="76" viewBox="0 0 153 76">
    <g fill="#FFF" fill-rule="evenodd">
        <path d="M30.85 16.816C19.244 16.816 9.804 26.318 9.804 38s9.44 21.184 21.046 21.184h46.3c11.606 0 21.046-9.502 21.046-21.184s-9.44-21.184-21.046-21.184h-46.3zM77.15 61h-46.3C18.222 61 8 50.71 8 38s10.222-23 22.85-23h46.3C89.778 15 100 25.29 100 38S89.778 61 77.15 61z"/>
        <path d="M76.248 21.96c-8.598 0-15.634 7.082-15.634 15.737 0 8.656 7.036 15.737 15.634 15.737 8.6 0 15.634-7.081 15.634-15.737 0-8.655-7.035-15.736-15.634-15.736m0 33.289c-9.62 0-17.438-7.868-17.438-17.553 0-9.684 7.817-17.552 17.438-17.552 9.621 0 17.438 7.868 17.438 17.552 0 9.685-7.817 17.553-17.438 17.553"/>
        <path d="M76.248 25.532c-6.674 0-12.086 5.447-12.086 12.165 0 6.719 5.412 12.166 12.086 12.166 6.675 0 12.087-5.447 12.087-12.166 0-6.718-5.412-12.165-12.087-12.165m0 26.147c-7.636 0-13.89-6.295-13.89-13.982 0-7.687 6.254-13.981 13.89-13.981 7.637 0 13.89 6.294 13.89 13.981S83.886 51.68 76.249 51.68"/>
        <path d="M76.248 29.224c-4.649 0-8.418 3.793-8.418 8.473 0 4.68 3.77 8.474 8.418 8.474 4.65 0 8.419-3.794 8.419-8.474s-3.77-8.473-8.419-8.473"/>
        <path d="M76.248 21.96c-8.598 0-15.634 7.082-15.634 15.737 0 8.656 7.036 15.737 15.634 15.737 8.6 0 15.634-7.081 15.634-15.737 0-8.655-7.035-15.736-15.634-15.736m0 33.289c-9.62 0-17.438-7.868-17.438-17.553 0-9.684 7.817-17.552 17.438-17.552 9.621 0 17.438 7.868 17.438 17.552 0 9.685-7.817 17.553-17.438 17.553"/>
        <path d="M76.248 25.532c-6.674 0-12.086 5.447-12.086 12.165 0 6.719 5.412 12.166 12.086 12.166 6.675 0 12.087-5.447 12.087-12.166 0-6.718-5.412-12.165-12.087-12.165m0 26.147c-7.636 0-13.89-6.295-13.89-13.982 0-7.687 6.254-13.981 13.89-13.981 7.637 0 13.89 6.294 13.89 13.981S83.886 51.68 76.249 51.68"/>
        <path d="M76.248 29.224c-4.649 0-8.418 3.793-8.418 8.473 0 4.68 3.77 8.474 8.418 8.474 4.65 0 8.419-3.794 8.419-8.474s-3.77-8.473-8.419-8.473M31.752 21.96c-8.6 0-15.634 7.082-15.634 15.737 0 8.656 7.035 15.737 15.634 15.737 8.598 0 15.634-7.081 15.634-15.737 0-8.655-7.036-15.736-15.634-15.736m0 33.289c-9.621 0-17.438-7.868-17.438-17.553 0-9.684 7.817-17.552 17.438-17.552 9.62 0 17.438 7.868 17.438 17.552 0 9.685-7.817 17.553-17.438 17.553"/>
        <path d="M31.752 25.532c-6.675 0-12.087 5.447-12.087 12.165 0 6.719 5.412 12.166 12.087 12.166 6.674 0 12.086-5.447 12.086-12.166 0-6.718-5.412-12.165-12.086-12.165m0 26.147c-7.637 0-13.89-6.295-13.89-13.982 0-7.687 6.253-13.981 13.89-13.981 7.636 0 13.89 6.294 13.89 13.981S39.388 51.68 31.752 51.68"/>
        <path d="M31.752 29.224c-4.65 0-8.419 3.793-8.419 8.473 0 4.68 3.77 8.474 8.419 8.474 4.649 0 8.418-3.794 8.418-8.474s-3.77-8.473-8.418-8.473M126.672 21.828c-8.714 0-15.844 7.13-15.844 15.844 0 8.715 7.13 15.845 15.844 15.845 8.715 0 15.845-7.13 15.845-15.845 0-8.714-7.13-15.844-15.845-15.844m0 33.517c-9.75 0-17.672-7.922-17.672-17.673C109 27.922 116.922 20 126.672 20s17.673 7.922 17.673 17.672-7.922 17.673-17.673 17.673"/>
        <path d="M126.455 25.206c-6.764 0-12.249 5.485-12.249 12.249s5.485 12.249 12.249 12.249 12.249-5.485 12.249-12.25c0-6.763-5.485-12.248-12.25-12.248m0 26.326c-7.738 0-14.076-6.338-14.076-14.077 0-7.74 6.338-14.077 14.077-14.077 7.74 0 14.077 6.338 14.077 14.077 0 7.74-6.338 14.077-14.077 14.077"/>
        <path d="M126.54 29.008a8.531 8.531 0 1 0 0 17.063 8.531 8.531 0 0 0 0-17.063"/>
    </g>
</svg>
