<?xml version="1.0" encoding="UTF-8"?>
<svg width="51px" height="51px" viewBox="0 0 51 51" version="1.1" xmlns="http://www.w3.org/2000/svg" xmlns:xlink="http://www.w3.org/1999/xlink">
    <!-- Generator: Sketch 49.3 (51167) - http://www.bohemiancoding.com/sketch -->
    <title>Group 51</title>
    <desc>Created with Sketch.</desc>
    <defs></defs>
    <g id="Landing-Huawei-P20-Pro" stroke="none" stroke-width="1" fill="none" fill-rule="evenodd">
        <g transform="translate(-831.000000, -5886.000000)" id="Reserva">
            <g transform="translate(0.000000, 5460.000000)">
                <g id="Group-48" transform="translate(207.000000, 109.000000)">
                    <g id="Group-41" transform="translate(600.000000, 106.000000)">
                        <g id="Group-40" transform="translate(11.000000, 79.000000)">
                            <g id="Group-37">
                                <g id="Group-35" transform="translate(0.000000, 133.000000)">
                                    <g id="Group-31">
                                        <g id="Group-27" transform="translate(14.000000, 0.000000)">
                                            <g id="Group-51">
                                                <circle id="Oval-2" stroke="#CFCFCF" fill="#FFFFFF" cx="24.5" cy="24.5" r="24.5"></circle>
                                                <g id="Page-1" transform="translate(8.000000, 18.000000)" fill="#313233">
                                                    <polygon id="Fill-1" points="8.50345512 7 9 5 6 7"></polygon>
                                                    <path d="M23.4532432,3.91840242 L17.5682918,3.91840242 C17.5682918,3.91840242 16.5931691,3.88309371 16.2681282,4.71284851 C15.9430872,5.5426033 15.4469722,6.76075396 15.3614351,7.87297848 C15.275898,8.985203 15.9773021,9.00285735 16.1141614,9.00285735 L19.6860532,9.00285735 L19.9291154,8.06717641 L17.6367215,8.06717641 L18.2012663,5.61322073 L23.0768801,5.61322073 L21.7938238,11.6686653 L14.9508571,11.6686653 C14.9508571,11.6686653 13.0690412,11.8452089 12.6413558,9.90322958 C12.2136704,7.96125027 13.1887931,5.12483059 13.1887931,5.12483059 C13.1887931,5.12483059 13.8217676,2.77086919 15.4982944,1.88815132 C16.2681282,1.32702523 17.5853993,1.42913803 17.5853993,1.42913803 L24.017788,1.42913803 L23.4532432,3.91840242 Z M12.401852,7.39631083 C12.1623481,9.03816607 12.401852,9.86792087 12.401852,9.86792087 L10.9990438,9.86792087 L10.5542509,11.6686653 L7.88549392,11.6686653 L8.29607193,9.86792087 L2.61640954,9.86792087 C1.93211287,9.86792087 1.52153487,9.72668601 1.31624586,8.94989428 C1.11095686,8.17310256 1.93211287,7.46692826 1.93211287,7.46692826 L10.1094581,1.74691646 C10.1094581,1.74691646 10.6556637,1.19115729 11.8201998,1.3585206 C12.83378,1.50413374 12.5129817,2.62963433 12.5129817,2.62963433 L11.5122663,7.39631083 L12.401852,7.39631083 Z M30.0378477,8.01887409 L28.9107561,8.01887409 L27.8448956,8.01887409 L27.3263356,8.01887409 C27.0657554,8.01887409 26.8526654,7.79473437 26.8526654,7.52087998 C26.8526654,7.24688435 27.0657554,7.02274463 27.3263356,7.02274463 L27.8448956,7.02274463 L30.4247491,7.02274463 C30.6853292,7.02274463 30.8985561,6.79860491 30.8985561,6.52460928 C30.8985561,6.25075489 30.6853292,6.02647393 30.4247491,6.02647393 L26.3679365,6.02647393 L25.666943,6.02647393 C25.4063628,6.02647393 25.1932728,5.80233421 25.1932728,5.52833858 C25.1932728,5.25448419 25.4063628,5.03034447 25.666943,5.03034447 L26.3679365,5.03034447 L27.0802893,5.03034447 C27.3408695,5.03034447 27.5540963,4.80620475 27.5540963,4.53220912 C27.5540963,4.2582135 27.3408695,4.03407377 27.0802893,4.03407377 L26.8355848,4.03407377 L26.488099,4.03407377 C26.2275188,4.03407377 26.0144288,3.80993405 26.0144288,3.53593843 C26.0144288,3.26208403 26.2275188,3.03794431 26.488099,3.03794431 L26.8355848,3.03794431 L28.7312235,3.03794431 L29.1654781,3.03794431 L30.120072,3.03794431 C30.3806522,3.03794431 30.593879,2.81380459 30.593879,2.53980896 C30.593879,2.26581334 30.3806522,2.04167362 30.120072,2.04167362 L29.1654781,2.04167362 L28.7312235,2.04167362 L27.371526,2.04167362 C27.0486748,2.04167362 26.8355848,1.81753389 26.8355848,1.5436795 C26.8355848,1.26968388 27.0486748,1.04554415 27.309255,1.04554415 L28.9621052,1.04554415 C29.2226853,1.04554415 29.4359122,0.821404432 29.4359122,0.547408806 C29.4359122,0.273413179 29.2226853,0.0492734574 28.9621052,0.0492734574 L26.2539327,0.0492734574 L25.444136,0.0492734574 L23.9957536,0.0492734574 L16.2859199,0.0492734574 C14.7120375,0.0492734574 14.734893,1.11121836 13.4803035,0.499247719 C11.450269,-0.701248584 9.48866417,0.640482578 9.48866417,0.640482578 L1.4823931,5.983821 C1.4823931,5.983821 -0.433637587,6.97246502 0.0909442423,9.32642642 C0.661237089,11.3271594 2.4859826,11.1624796 2.4859826,11.1624796 L5.47403245,11.1624796 C5.47403245,11.1624796 6.4549033,11.0446897 6.6601923,11.7744502 C7.12154512,13.0925952 8.64465265,12.9985328 8.64465265,12.9985328 L22.9569913,12.9985328 L27.5079479,12.9999451 C27.7685281,12.9999451 27.9817549,12.7758054 27.9817549,12.5018098 C27.9817549,12.2278141 27.7685281,12.0038156 27.5079479,12.0038156 L26.8526654,12.0038156 L25.8208829,12.0038156 C25.5603027,12.0038156 25.3472127,11.7796759 25.3472127,11.5056803 C25.3472127,11.2316847 25.5603027,11.0075449 25.8208829,11.0075449 L26.8526654,11.0075449 L29.2186896,11.0075449 C29.4792698,11.0075449 29.6924966,10.7834052 29.6924966,10.5094096 C29.6924966,10.2355552 29.4792698,10.0114155 29.2186896,10.0114155 L27.1833176,10.0114155 L26.5051796,10.0114155 C26.2445994,10.0114155 26.0315094,9.78713453 26.0315094,9.51328013 C26.0315094,9.23928451 26.2445994,9.01514479 26.5051796,9.01514479 L27.1833176,9.01514479 L28.9107561,9.01514479 L30.0378477,9.01514479 L31.526193,9.01514479 C31.7867732,9.01514479 32,8.79100507 32,8.51700944 C32,8.24315505 31.7867732,8.01887409 31.526193,8.01887409 L30.0378477,8.01887409 Z" id="Fill-2"></path>
                                                </g>
                                            </g>
                                        </g>
                                    </g>
                                </g>
                            </g>
                        </g>
                    </g>
                </g>
            </g>
        </g>
    </g>
</svg>