<svg xmlns="http://www.w3.org/2000/svg" viewBox="0 0 48.75 48.75"><defs><style>.cls-1{fill:#fff;stroke:#cfcfcf;stroke-miterlimit:10;stroke-width:0.75px;}.cls-2{fill:#3d3d3d;}</style></defs><title>Asset 1</title><g id="Layer_2" data-name="Layer 2"><g id="Layer_1-2" data-name="Layer 1"><circle class="cls-1" cx="24.38" cy="24.38" r="24"/><path class="cls-2" d="M35.87,26.31a2.61,2.61,0,0,1-2.64,2.57H24.78L17.39,33l1.95-4.09H15.39a2.61,2.61,0,0,1-2.64-2.57v-7a2.61,2.61,0,0,1,2.64-2.57H33.23a2.61,2.61,0,0,1,2.64,2.57v7ZM33.23,15.53H15.39a3.88,3.88,0,0,0-3.93,3.82v7a3.88,3.88,0,0,0,3.93,3.82h1.93l-1.47,3.1a1,1,0,0,0,.23,1.13,1,1,0,0,0,1.17.13l7.87-4.36h8.11a3.88,3.88,0,0,0,3.93-3.82v-7a3.88,3.88,0,0,0-3.93-3.82Z"/><path class="cls-2" d="M20.72,24.12a1.54,1.54,0,0,1-.26.87,1.62,1.62,0,0,1-.76.61,2.81,2.81,0,0,1-1.17.22,2.7,2.7,0,0,1-1.35-.3,1.7,1.7,0,0,1-.61-.58,1.26,1.26,0,0,1-.24-.7.49.49,0,0,1,.14-.34.54.54,0,0,1,.36-.14.44.44,0,0,1,.3.11.94.94,0,0,1,.21.33,2.44,2.44,0,0,0,.23.43.87.87,0,0,0,.34.28,1.23,1.23,0,0,0,.58.11,1.32,1.32,0,0,0,.81-.22.67.67,0,0,0,.31-.56.6.6,0,0,0-.16-.44,1.2,1.2,0,0,0-.44-.25,5.71,5.71,0,0,0-.71-.19,5,5,0,0,1-1-.32,1.53,1.53,0,0,1-.64-.49,1.24,1.24,0,0,1-.23-.78,1.36,1.36,0,0,1,.24-.79,1.66,1.66,0,0,1,.72-.53,3.23,3.23,0,0,1,1.11-.18,2.88,2.88,0,0,1,.88.12,1.83,1.83,0,0,1,.62.33,1.33,1.33,0,0,1,.35.42,1,1,0,0,1,.12.44.5.5,0,0,1-.14.35.48.48,0,0,1-.36.16.39.39,0,0,1-.29-.1,1.29,1.29,0,0,1-.22-.3,1.29,1.29,0,0,0-.36-.48,1.08,1.08,0,0,0-.67-.17,1.14,1.14,0,0,0-.7.19.53.53,0,0,0-.27.44.45.45,0,0,0,.09.28.63.63,0,0,0,.25.2,1.44,1.44,0,0,0,.32.13c.11,0,.29.08.53.14a6.78,6.78,0,0,1,.85.24,2.62,2.62,0,0,1,.65.31,1.3,1.3,0,0,1,.41.46,1.47,1.47,0,0,1,.15.69m2.81.8-.88-3.42v3.71a.68.68,0,0,1-.14.46.5.5,0,0,1-.38.15.48.48,0,0,1-.37-.15.68.68,0,0,1-.14-.46V21a.53.53,0,0,1,.19-.48.9.9,0,0,1,.5-.12h.35a1.3,1.3,0,0,1,.46.06.34.34,0,0,1,.2.19,2.73,2.73,0,0,1,.16.47l.8,2.94.8-2.94a2.56,2.56,0,0,1,.16-.46.32.32,0,0,1,.21-.2,1.21,1.21,0,0,1,.45-.06h.35a1,1,0,0,1,.51.12.55.55,0,0,1,.18.48v4.25a.63.63,0,0,1-.14.46.48.48,0,0,1-.38.15.46.46,0,0,1-.36-.15.63.63,0,0,1-.14-.46V21.5L25,24.92c0,.17-.09.33-.14.49a.63.63,0,0,1-.2.28.59.59,0,0,1-.41.13.54.54,0,0,1-.33-.08.53.53,0,0,1-.21-.21,1.48,1.48,0,0,1-.12-.29l-.09-.32m8.76-.8A1.54,1.54,0,0,1,32,25a1.64,1.64,0,0,1-.75.61,2.89,2.89,0,0,1-1.18.22,2.7,2.7,0,0,1-1.35-.3,1.7,1.7,0,0,1-.61-.58,1.26,1.26,0,0,1-.24-.7A.49.49,0,0,1,28,23.9a.54.54,0,0,1,.36-.14.44.44,0,0,1,.3.11.94.94,0,0,1,.21.33,2.44,2.44,0,0,0,.23.43.87.87,0,0,0,.34.28,1.27,1.27,0,0,0,.59.11,1.36,1.36,0,0,0,.81-.22.68.68,0,0,0,.3-.56A.6.6,0,0,0,31,23.8a1,1,0,0,0-.44-.25,6.06,6.06,0,0,0-.7-.19,4.86,4.86,0,0,1-1-.32,1.53,1.53,0,0,1-.64-.49,1.24,1.24,0,0,1-.23-.78,1.36,1.36,0,0,1,.24-.79,1.66,1.66,0,0,1,.72-.53,3.23,3.23,0,0,1,1.11-.18,2.88,2.88,0,0,1,.88.12,1.83,1.83,0,0,1,.62.33,1.33,1.33,0,0,1,.35.42.88.88,0,0,1,.12.44.5.5,0,0,1-.14.35.48.48,0,0,1-.35.16.4.4,0,0,1-.3-.1,1.25,1.25,0,0,1-.21-.3,1.44,1.44,0,0,0-.37-.48A1.08,1.08,0,0,0,30,21a1.16,1.16,0,0,0-.7.19.53.53,0,0,0-.27.44.45.45,0,0,0,.09.28.71.71,0,0,0,.25.2,1.44,1.44,0,0,0,.32.13c.11,0,.29.08.54.14a7.12,7.12,0,0,1,.84.24,2.46,2.46,0,0,1,.65.31,1.3,1.3,0,0,1,.41.46,1.47,1.47,0,0,1,.15.69"/></g></g></svg>