<svg xmlns="http://www.w3.org/2000/svg" width="24" height="18" viewBox="0 0 24 18">
    <g fill="none" fill-rule="nonzero">
        <path fill="#5A5A5A" d="M23.895 4.798C23.749 2.233 21.616.114 19.14.076L15.804.025c-2.09-.032-5.508-.034-7.597-.001L4.8.077C2.321.115.207 2.237.087 4.808l-.01.207c-.101 2.186-.101 5.741 0 7.926l.01.211c.12 2.568 2.234 4.698 4.712 4.75l3.413.067c1.04.02 2.41.031 3.782.031 1.384 0 2.77-.01 3.82-.031l3.33-.068c2.475-.05 4.606-2.175 4.752-4.738l.012-.216c.124-2.188.124-5.749 0-7.937l-.012-.212zm-1.5 8.058l-.012.214c-.1 1.733-1.596 3.226-3.269 3.259l-3.33.068c-2.074.04-5.468.042-7.543 0l-3.413-.068C3.13 16.294 1.68 14.836 1.6 13.076l-.01-.21c-.1-2.143-.1-5.631 0-7.775l.01-.207c.081-1.758 1.528-3.21 3.225-3.236l3.405-.052c1.025-.016 2.374-.025 3.726-.025 1.385 0 2.774.009 3.825.025l3.336.051c1.7.026 3.165 1.481 3.266 3.243l.012.212c.121 2.137.121 5.616 0 7.754z"/>
        <path fill="#595959" d="M15.623 8.316l-5.587-3.227a.65.65 0 0 0-.694.023.794.794 0 0 0-.342.662v6.452c0 .272.13.522.342.663a.66.66 0 0 0 .694.022l5.587-3.226A.785.785 0 0 0 16 9a.786.786 0 0 0-.377-.685zm-5.21 2.629v-3.89L13.78 9l-3.368 1.945z"/>
    </g>
</svg>
