<?xml version="1.0" encoding="utf-8"?>
<!-- Generator: Adobe Illustrator 19.0.0, SVG Export Plug-In . SVG Version: 6.00 Build 0)  -->
<svg version="1.1" id="Capa_1" xmlns="http://www.w3.org/2000/svg" xmlns:xlink="http://www.w3.org/1999/xlink" x="0px" y="0px"
	 viewBox="-164.5 115.5 141.5 94.4" style="enable-background:new -164.5 115.5 141.5 94.4;" xml:space="preserve">
<style type="text/css">
	.st0{fill:none;stroke:#009EA6;stroke-width:5.898;stroke-miterlimit:10;}
</style>
<g>
	<path class="st0" d="M-73.1,139.1h23.4c1.9,0,3.8,1,4.9,2.6l10,18.1h2.9c3.3,0,5.9,2.2,5.9,6.5v20c0,3.3-2.6,5.9-5.9,5.9h-5.9"/>
	<polyline class="st0" points="-123.2,118.5 -73.1,118.5 -73.1,192.2 -117.3,192.2 	"/>
	<line class="st0" x1="-140.9" y1="192.2" x2="-155.7" y2="192.2"/>
	<ellipse class="st0" cx="-49.5" cy="195.2" rx="11.8" ry="11.8"/>
	<ellipse class="st0" cx="-129.1" cy="195.2" rx="11.8" ry="11.8"/>
	<line class="st0" x1="-73.1" y1="192.2" x2="-61.3" y2="192.2"/>
	<polyline class="st0" points="-67.2,162.7 -46.6,162.7 -46.6,159.7 -52.5,150.9 	"/>
	<line class="st0" x1="-164.5" y1="153.9" x2="-114.4" y2="153.9"/>
	<line class="st0" x1="-140.9" y1="136.2" x2="-96.7" y2="136.2"/>
</g>
</svg>
