<?xml version="1.0" encoding="utf-8"?>
<!-- Generator: Adobe Illustrator 19.0.0, SVG Export Plug-In . SVG Version: 6.00 Build 0)  -->
<svg version="1.1" id="Capa_1" xmlns="http://www.w3.org/2000/svg" xmlns:xlink="http://www.w3.org/1999/xlink" x="0px" y="0px"
	 viewBox="-370.7 207.5 69.2 104.9" style="enable-background:new -370.7 207.5 69.2 104.9;" xml:space="preserve">
<style type="text/css">
	.st0{fill:#009EA6;}
</style>
<g>
	<path class="st0" d="M-324,260.7c-0.4,0-0.7-0.1-1-0.3l-11-5.8l-11,5.8c-0.8,0.4-1.7,0.3-2.4-0.2c-0.7-0.5-1-1.3-0.9-2.2l2.1-12.2
		l-8.9-8.7c-0.6-0.6-0.8-1.5-0.6-2.3c0.3-0.8,1-1.4,1.8-1.5l12.3-1.8l5.5-11.1c0.8-1.5,3.3-1.5,4,0l5.5,11.1l12.3,1.8
		c0.8,0.1,1.5,0.7,1.8,1.5c0.3,0.8,0,1.7-0.6,2.3l-8.9,8.7l2.1,12.2c0.1,0.8-0.2,1.7-0.9,2.2C-323.1,260.5-323.6,260.7-324,260.7
		 M-336.1,249.9c0.4,0,0.7,0.1,1,0.3l8,4.2l-1.5-8.9c-0.1-0.7,0.1-1.5,0.6-2l6.5-6.3l-9-1.3c-0.7-0.1-1.4-0.6-1.7-1.2l-4-8.1l-4,8.1
		c-0.3,0.7-1,1.1-1.7,1.2l-9,1.3l6.5,6.3c0.5,0.5,0.8,1.3,0.6,2l-1.5,8.9l8-4.2C-336.8,250-336.4,249.9-336.1,249.9"/>
	<path class="st0" d="M-336.1,276.7c-19.1,0-34.6-15.5-34.6-34.6c0-19.1,15.5-34.6,34.6-34.6c19.1,0,34.6,15.5,34.6,34.6
		C-301.5,261.2-317,276.7-336.1,276.7 M-336.1,212c-16.6,0-30.2,13.5-30.2,30.2s13.5,30.2,30.2,30.2s30.2-13.5,30.2-30.2
		S-319.4,212-336.1,212"/>
	<path class="st0" d="M-316.8,312.4c-0.6,0-1.2-0.2-1.6-0.7l-18.5-18.6l-16.9,16.9c-0.6,0.6-1.6,0.8-2.4,0.5
		c-0.8-0.3-1.4-1.2-1.4-2.1V267h4.5v36.1l14.7-14.7c0.4-0.4,1-0.7,1.6-0.7h0c0.6,0,1.2,0.2,1.6,0.7l16.3,16.4v-36h4.5v41.4
		c0,0.9-0.5,1.7-1.4,2.1C-316.2,312.3-316.5,312.4-316.8,312.4"/>
</g>
</svg>
