<?xml version="1.0" encoding="utf-8"?>
<!-- Generator: Adobe Illustrator 19.0.0, SVG Export Plug-In . SVG Version: 6.00 Build 0)  -->
<svg version="1.1" id="Capa_1" xmlns="http://www.w3.org/2000/svg" xmlns:xlink="http://www.w3.org/1999/xlink" x="0px" y="0px"
	 viewBox="-250 215.1 114.5 102.6" style="enable-background:new -250 215.1 114.5 102.6;" xml:space="preserve">
<style type="text/css">
	.st0{fill:#009EA6;}
</style>
<g>
	<g>
		<path class="st0" d="M-235.5,275h-4.7c-5.4,0-9.8-4.4-9.8-9.8v-40.3c0-5.4,4.4-9.8,9.8-9.8h66.4c5.4,0,9.8,4.4,9.8,9.8v30.8h-5.4
			v-30.8c0-2.4-2-4.4-4.4-4.4h-66.4c-2.4,0-4.4,2-4.4,4.4v40.3c0,2.4,2,4.4,4.4,4.4h4.7V275z"/>
	</g>
	<g>
		<rect x="-240.2" y="248.3" class="st0" width="14.2" height="5.4"/>
	</g>
	<g>
		<path class="st0" d="M-164,244.1h-86v-17.2h86V244.1z M-244.6,238.8h75.3v-6.5h-75.3V238.8z"/>
	</g>
	<g>
		<path class="st0" d="M-135.5,317.7h-97.9v-59.9h97.9V317.7z M-228,312.3h87.2v-49.2H-228V312.3z"/>
	</g>
	<g>
		<path class="st0" d="M-152.1,308.2h-64.7v-2.7c0-1.7-0.6-4.4-4.4-4.4h-2.7v-26.7h2.7c3.9,0,4.4-2.8,4.4-4.4v-2.7h64.7v2.7
			c0,2.4,2,4.4,4.4,4.4h2.7v26.7h-2.7c-2.4,0-4.4,2-4.4,4.4V308.2z M-211.7,302.8h54.6c0.9-3.3,3.5-5.8,6.7-6.7v-16.7
			c-3.3-0.9-5.8-3.5-6.7-6.7h-54.6c-0.8,3.5-3.3,6-6.8,6.8V296C-215,296.9-212.5,299.3-211.7,302.8z"/>
	</g>
	<g>
		<rect x="-207" y="286.2" class="st0" width="4.7" height="5.4"/>
	</g>
	<g>
		<rect x="-166.7" y="286.2" class="st0" width="4.7" height="5.4"/>
	</g>
	<g>
		<path class="st0" d="M-184.4,301.1C-184.4,301.1-184.4,301.1-184.4,301.1c-3.6,0-6.9-1.4-9.4-3.9c-2.5-2.5-3.9-5.9-3.9-9.4
			c0-7.4,6-13.4,13.4-13.4c0,0,0,0,0,0c3.6,0,6.9,1.4,9.4,3.9c2.5,2.5,3.9,5.9,3.9,9.4C-171.1,295.1-177.1,301.1-184.4,301.1z
			 M-184.4,279.7c-4.4,0-8,3.6-8,8c0,2.1,0.8,4.1,2.3,5.7s3.5,2.3,5.7,2.3c0,0,0,0,0,0c4.4,0,8-3.6,8-8c0-2.1-0.8-4.1-2.3-5.7
			S-182.3,279.7-184.4,279.7C-184.4,279.7-184.4,279.7-184.4,279.7z"/>
	</g>
</g>
</svg>
