<svg id="Capa_1" data-name="Capa 1" xmlns="http://www.w3.org/2000/svg" viewBox="0 0 76.87 97.25"><defs><style>.cls-1{fill:none;stroke:#53959c;stroke-miterlimit:10;stroke-width:3.5px;}</style></defs><title>RESERVA</title><path class="cls-1" d="M87.93,23.71h8.16a4.08,4.08,0,0,1,4.07,4.08V103.2a4.07,4.07,0,0,1-4.07,4.07H30.87a4.08,4.08,0,0,1-4.08-4.07V27.79a4.08,4.08,0,0,1,4.08-4.08H39" transform="translate(-25.04 -11.77)"/><polyline class="cls-1" points="62.89 20.09 66.97 20.09 66.97 87.35 9.9 87.35 9.9 20.09 13.98 20.09"/><path class="cls-1" d="M77.74,21.67H71.63a8.15,8.15,0,1,0-16.3,0H49.21a6.12,6.12,0,0,0-6.11,6.12V33.9H83.86V27.79A6.12,6.12,0,0,0,77.74,21.67Z" transform="translate(-25.04 -11.77)"/><line class="cls-1" x1="38.43" y1="7.86" x2="38.43" y2="11.94"/><polyline class="cls-1" points="22.13 56.78 34.36 66.97 54.74 40.47"/></svg>