<?xml version="1.0" encoding="UTF-8"?>
<svg width="59px" height="33px" viewBox="0 0 59 33" version="1.1" xmlns="http://www.w3.org/2000/svg" xmlns:xlink="http://www.w3.org/1999/xlink">
    <!-- Generator: Sketch 49.3 (51167) - http://www.bohemiancoding.com/sketch -->
    <title>Bateria</title>
    <desc>Created with Sketch.</desc>
    <defs></defs>
    <g id="Landing-Huawei-P20-Pro" stroke="none" stroke-width="1" fill="none" fill-rule="evenodd">
        <g transform="translate(-135.000000, -5073.000000)" fill="#FFFFFF" id="Bateria">
            <g transform="translate(0.000000, 4680.000000)">
                <g id="Group-26" transform="translate(135.000000, 164.000000)">
                    <g id="Bateria" transform="translate(0.000000, 229.000000)">
                        <g id="Page-1">
                            <path d="M57.1269841,20.777625 L54.0777143,20.777625 C53.5607619,20.777625 53.1412063,21.1882917 53.1412063,21.6942917 L53.1412063,26.8890417 C53.1412063,29.247625 51.1778175,31.1666667 48.7639683,31.1666667 L6.25072222,31.1666667 C3.83687302,31.1666667 1.87301587,29.247625 1.87301587,26.8890417 L1.87301587,6.11095833 C1.87301587,3.752375 3.83687302,1.83333333 6.25072222,1.83333333 L48.7639683,1.83333333 C51.1778175,1.83333333 53.1412063,3.752375 53.1412063,6.11095833 L53.1412063,11.30525 C53.1412063,11.8117083 53.5607619,12.2219167 54.0777143,12.2219167 L57.1269841,12.2219167 L57.1269841,20.777625 Z M58.0634921,10.3885833 L55.0142222,10.3885833 L55.0142222,6.11095833 C55.0142222,2.74129167 52.2103175,0 48.7639683,0 L6.25072222,0 C2.80390476,0 0,2.74129167 0,6.11095833 L0,26.8890417 C0,30.2587083 2.80390476,33 6.25072222,33 L48.7639683,33 C52.2103175,33 55.0142222,30.2587083 55.0142222,26.8890417 L55.0142222,22.6109583 L58.0634921,22.6109583 C58.5804444,22.6109583 59,22.2002917 59,21.6942917 L59,11.30525 C59,10.79925 58.5804444,10.3885833 58.0634921,10.3885833 Z" id="Fill-1"></path>
                            <path d="M5.61904762,5.04166667 C5.10209524,5.04166667 4.68253968,5.45233333 4.68253968,5.95833333 L4.68253968,27.0416667 C4.68253968,27.5476667 5.10209524,27.9583333 5.61904762,27.9583333 C6.136,27.9583333 6.55555556,27.5476667 6.55555556,27.0416667 L6.55555556,5.95833333 C6.55555556,5.45233333 6.136,5.04166667 5.61904762,5.04166667" id="Fill-3"></path>
                            <path d="M11.0039683,5.04166667 C10.4870159,5.04166667 10.0674603,5.45233333 10.0674603,5.95833333 L10.0674603,27.0416667 C10.0674603,27.5476667 10.4870159,27.9583333 11.0039683,27.9583333 C11.5209206,27.9583333 11.9404762,27.5476667 11.9404762,27.0416667 L11.9404762,5.95833333 C11.9404762,5.45233333 11.5209206,5.04166667 11.0039683,5.04166667" id="Fill-5"></path>
                            <path d="M16.3888889,5.04166667 C15.8719365,5.04166667 15.452381,5.45233333 15.452381,5.95833333 L15.452381,27.0416667 C15.452381,27.5476667 15.8719365,27.9583333 16.3888889,27.9583333 C16.9058413,27.9583333 17.3253968,27.5476667 17.3253968,27.0416667 L17.3253968,5.95833333 C17.3253968,5.45233333 16.9058413,5.04166667 16.3888889,5.04166667" id="Fill-7"></path>
                            <path d="M21.7738095,5.04166667 C21.2568571,5.04166667 20.8373016,5.45233333 20.8373016,5.95833333 L20.8373016,27.0416667 C20.8373016,27.5476667 21.2568571,27.9583333 21.7738095,27.9583333 C22.2907619,27.9583333 22.7103175,27.5476667 22.7103175,27.0416667 L22.7103175,5.95833333 C22.7103175,5.45233333 22.2907619,5.04166667 21.7738095,5.04166667" id="Fill-9"></path>
                            <path d="M27.1587302,5.04166667 C26.6417778,5.04166667 26.2222222,5.45233333 26.2222222,5.95833333 L26.2222222,27.0416667 C26.2222222,27.5476667 26.6417778,27.9583333 27.1587302,27.9583333 C27.6756825,27.9583333 28.0952381,27.5476667 28.0952381,27.0416667 L28.0952381,5.95833333 C28.0952381,5.45233333 27.6756825,5.04166667 27.1587302,5.04166667" id="Fill-11"></path>
                            <path d="M32.5436508,5.04166667 C32.0266984,5.04166667 31.6071429,5.45233333 31.6071429,5.95833333 L31.6071429,27.0416667 C31.6071429,27.5476667 32.0266984,27.9583333 32.5436508,27.9583333 C33.0606032,27.9583333 33.4801587,27.5476667 33.4801587,27.0416667 L33.4801587,5.95833333 C33.4801587,5.45233333 33.0606032,5.04166667 32.5436508,5.04166667" id="Fill-13"></path>
                            <path d="M37.9285714,5.04166667 C37.411619,5.04166667 36.9920635,5.45233333 36.9920635,5.95833333 L36.9920635,27.0416667 C36.9920635,27.5476667 37.411619,27.9583333 37.9285714,27.9583333 C38.4455238,27.9583333 38.8650794,27.5476667 38.8650794,27.0416667 L38.8650794,5.95833333 C38.8650794,5.45233333 38.4455238,5.04166667 37.9285714,5.04166667" id="Fill-15"></path>
                            <path d="M43.3134921,5.04166667 C42.7965397,5.04166667 42.3769841,5.45233333 42.3769841,5.95833333 L42.3769841,27.0416667 C42.3769841,27.5476667 42.7965397,27.9583333 43.3134921,27.9583333 C43.8304444,27.9583333 44.25,27.5476667 44.25,27.0416667 L44.25,5.95833333 C44.25,5.45233333 43.8304444,5.04166667 43.3134921,5.04166667" id="Fill-17"></path>
                            <path d="M48.6984127,5.04166667 C48.1814603,5.04166667 47.7619048,5.45233333 47.7619048,5.95833333 L47.7619048,27.0416667 C47.7619048,27.5476667 48.1814603,27.9583333 48.6984127,27.9583333 C49.2153651,27.9583333 49.6349206,27.5476667 49.6349206,27.0416667 L49.6349206,5.95833333 C49.6349206,5.45233333 49.2153651,5.04166667 48.6984127,5.04166667" id="Fill-19"></path>
                        </g>
                    </g>
                </g>
            </g>
        </g>
    </g>
</svg>