<?xml version="1.0" encoding="UTF-8"?>
<svg width="34px" height="19px" viewBox="0 0 34 19" version="1.1" xmlns="http://www.w3.org/2000/svg" xmlns:xlink="http://www.w3.org/1999/xlink">
    <!-- Generator: Sketch 49.3 (51167) - http://www.bohemiancoding.com/sketch -->
    <title>Bateria</title>
    <desc>Created with Sketch.</desc>
    <defs></defs>
    <g id="Landing-Huawei-P20-Pro" stroke="none" stroke-width="1" fill="none" fill-rule="evenodd">
        <g id="Landing-Huawei-P20-Pro-Modal" transform="translate(-186.000000, -5238.000000)" fill="#4A4A4A">
            <g id="Modal" transform="translate(135.000000, 4750.000000)">
                <g id="Group-47" transform="translate(47.000000, 32.000000)">
                    <g id="Group-45" transform="translate(4.000000, 456.000000)">
                        <g id="Bateria">
                            <path d="M32.9206349,11.962875 L31.1634286,11.962875 C30.8655238,11.962875 30.623746,12.1993194 30.623746,12.4906528 L30.623746,15.4815694 C30.623746,16.8395417 29.4923016,17.9444444 28.1012698,17.9444444 L3.60211111,17.9444444 C2.21107937,17.9444444 1.07936508,16.8395417 1.07936508,15.4815694 L1.07936508,3.51843056 C1.07936508,2.16045833 2.21107937,1.05555556 3.60211111,1.05555556 L28.1012698,1.05555556 C29.4923016,1.05555556 30.623746,2.16045833 30.623746,3.51843056 L30.623746,6.50908333 C30.623746,6.80068056 30.8655238,7.03686111 31.1634286,7.03686111 L32.9206349,7.03686111 L32.9206349,11.962875 Z M33.4603175,5.98130556 L31.7031111,5.98130556 L31.7031111,3.51843056 C31.7031111,1.57831944 30.0873016,0 28.1012698,0 L3.60211111,0 C1.61580952,0 0,1.57831944 0,3.51843056 L0,15.4815694 C0,17.4216806 1.61580952,19 3.60211111,19 L28.1012698,19 C30.0873016,19 31.7031111,17.4216806 31.7031111,15.4815694 L31.7031111,13.0184306 L33.4603175,13.0184306 C33.7582222,13.0184306 34,12.7819861 34,12.4906528 L34,6.50908333 C34,6.21775 33.7582222,5.98130556 33.4603175,5.98130556 Z" id="Fill-1"></path>
                            <path d="M3.23809524,2.90277778 C2.94019048,2.90277778 2.6984127,3.13922222 2.6984127,3.43055556 L2.6984127,15.5694444 C2.6984127,15.8607778 2.94019048,16.0972222 3.23809524,16.0972222 C3.536,16.0972222 3.77777778,15.8607778 3.77777778,15.5694444 L3.77777778,3.43055556 C3.77777778,3.13922222 3.536,2.90277778 3.23809524,2.90277778" id="Fill-3"></path>
                            <path d="M6.34126984,2.90277778 C6.04336508,2.90277778 5.8015873,3.13922222 5.8015873,3.43055556 L5.8015873,15.5694444 C5.8015873,15.8607778 6.04336508,16.0972222 6.34126984,16.0972222 C6.6391746,16.0972222 6.88095238,15.8607778 6.88095238,15.5694444 L6.88095238,3.43055556 C6.88095238,3.13922222 6.6391746,2.90277778 6.34126984,2.90277778" id="Fill-5"></path>
                            <path d="M9.44444444,2.90277778 C9.14653968,2.90277778 8.9047619,3.13922222 8.9047619,3.43055556 L8.9047619,15.5694444 C8.9047619,15.8607778 9.14653968,16.0972222 9.44444444,16.0972222 C9.74234921,16.0972222 9.98412698,15.8607778 9.98412698,15.5694444 L9.98412698,3.43055556 C9.98412698,3.13922222 9.74234921,2.90277778 9.44444444,2.90277778" id="Fill-7"></path>
                            <path d="M12.547619,2.90277778 C12.2497143,2.90277778 12.0079365,3.13922222 12.0079365,3.43055556 L12.0079365,15.5694444 C12.0079365,15.8607778 12.2497143,16.0972222 12.547619,16.0972222 C12.8455238,16.0972222 13.0873016,15.8607778 13.0873016,15.5694444 L13.0873016,3.43055556 C13.0873016,3.13922222 12.8455238,2.90277778 12.547619,2.90277778" id="Fill-9"></path>
                            <path d="M15.6507937,2.90277778 C15.3528889,2.90277778 15.1111111,3.13922222 15.1111111,3.43055556 L15.1111111,15.5694444 C15.1111111,15.8607778 15.3528889,16.0972222 15.6507937,16.0972222 C15.9486984,16.0972222 16.1904762,15.8607778 16.1904762,15.5694444 L16.1904762,3.43055556 C16.1904762,3.13922222 15.9486984,2.90277778 15.6507937,2.90277778" id="Fill-11"></path>
                            <path d="M18.7539683,2.90277778 C18.4560635,2.90277778 18.2142857,3.13922222 18.2142857,3.43055556 L18.2142857,15.5694444 C18.2142857,15.8607778 18.4560635,16.0972222 18.7539683,16.0972222 C19.051873,16.0972222 19.2936508,15.8607778 19.2936508,15.5694444 L19.2936508,3.43055556 C19.2936508,3.13922222 19.051873,2.90277778 18.7539683,2.90277778" id="Fill-13"></path>
                            <path d="M21.8571429,2.90277778 C21.5592381,2.90277778 21.3174603,3.13922222 21.3174603,3.43055556 L21.3174603,15.5694444 C21.3174603,15.8607778 21.5592381,16.0972222 21.8571429,16.0972222 C22.1550476,16.0972222 22.3968254,15.8607778 22.3968254,15.5694444 L22.3968254,3.43055556 C22.3968254,3.13922222 22.1550476,2.90277778 21.8571429,2.90277778" id="Fill-15"></path>
                            <path d="M24.9603175,2.90277778 C24.6624127,2.90277778 24.4206349,3.13922222 24.4206349,3.43055556 L24.4206349,15.5694444 C24.4206349,15.8607778 24.6624127,16.0972222 24.9603175,16.0972222 C25.2582222,16.0972222 25.5,15.8607778 25.5,15.5694444 L25.5,3.43055556 C25.5,3.13922222 25.2582222,2.90277778 24.9603175,2.90277778" id="Fill-17"></path>
                            <path d="M28.0634921,2.90277778 C27.7655873,2.90277778 27.5238095,3.13922222 27.5238095,3.43055556 L27.5238095,15.5694444 C27.5238095,15.8607778 27.7655873,16.0972222 28.0634921,16.0972222 C28.3613968,16.0972222 28.6031746,15.8607778 28.6031746,15.5694444 L28.6031746,3.43055556 C28.6031746,3.13922222 28.3613968,2.90277778 28.0634921,2.90277778" id="Fill-19"></path>
                        </g>
                    </g>
                </g>
            </g>
        </g>
    </g>
</svg>