<?xml version="1.0" encoding="UTF-8"?>
<svg width="40px" height="33px" viewBox="0 0 40 33" version="1.1" xmlns="http://www.w3.org/2000/svg" xmlns:xlink="http://www.w3.org/1999/xlink">
    <!-- Generator: Sketch 49.3 (51167) - http://www.bohemiancoding.com/sketch -->
    <title>Procesador</title>
    <desc>Created with Sketch.</desc>
    <defs></defs>
    <g id="Landing-Huawei-P20-Pro" stroke="none" stroke-width="1" fill="none" fill-rule="evenodd">
        <g id="Landing-Huawei-P20-Pro-Modal" transform="translate(-183.000000, -5171.000000)">
            <g id="Modal" transform="translate(135.000000, 4750.000000)">
                <g id="Group-47" transform="translate(47.000000, 32.000000)">
                    <g id="Group-43" transform="translate(1.000000, 389.000000)">
                        <g id="Procesador">
                            <polygon id="Fill-1" fill="#FFFFFF" points="14.8333333 24 17.8333333 24 17.8333333 19.6666667 14.8333333 19.6666667"></polygon>
                            <path d="M37.3334,17.5 C36.4144,17.5 35.6667333,16.7523333 35.6667333,15.8333333 C35.6667333,14.9143333 36.4144,14.1666667 37.3334,14.1666667 C38.2524,14.1666667 39.0000667,14.9143333 39.0000667,15.8333333 C39.0000667,16.7523333 38.2524,17.5 37.3334,17.5 Z M26.8334,24 L26.8334,27.6666667 L21.8334,27.6666667 L20.8334,27.6666667 L19.1667333,27.6666667 L18.1667333,27.6666667 L12.8334,27.6666667 L12.8334,21.3333333 L12.8334,20.3333333 L12.8334,6 L26.8334,6 L26.8334,23 L26.8334,24 Z M34.3334,21.8333333 C35.2524,21.8333333 36.0000667,22.581 36.0000667,23.5 C36.0000667,24.419 35.2524,25.1666667 34.3334,25.1666667 C33.4144,25.1666667 32.6667333,24.419 32.6667333,23.5 C32.6667333,22.581 33.4144,21.8333333 34.3334,21.8333333 Z M2.66673333,22.5 C1.74773333,22.5 1.00006667,21.7523333 1.00006667,20.8333333 C1.00006667,19.9143333 1.74773333,19.1666667 2.66673333,19.1666667 C3.58573333,19.1666667 4.3334,19.9143333 4.3334,20.8333333 C4.3334,21.7523333 3.58573333,22.5 2.66673333,22.5 Z M6.3334,13.1666667 C5.4144,13.1666667 4.66673333,12.419 4.66673333,11.5 C4.66673333,10.581 5.4144,9.83333333 6.3334,9.83333333 C7.2524,9.83333333 8.00006667,10.581 8.00006667,11.5 C8.00006667,12.419 7.2524,13.1666667 6.3334,13.1666667 Z M37.3334,13.1666667 C35.9194,13.1666667 34.7617333,14.274 34.6750667,15.6666667 L27.8334,15.6666667 L27.8334,5 L21.8334,5 L21.8334,0 L20.8334,0 L20.8334,5 L19.1667333,5 L19.1667333,0 L18.1667333,0 L18.1667333,5 L11.8334,5 L11.8334,11 L8.9514,11 C8.7164,9.768 7.63273333,8.83333333 6.3334,8.83333333 C4.86306667,8.83333333 3.66673333,10.0296667 3.66673333,11.5 C3.66673333,12.9703333 4.86306667,14.1666667 6.3334,14.1666667 C7.63273333,14.1666667 8.7164,13.232 8.9514,12 L11.8334,12 L11.8334,20.3333333 L5.28473333,20.3333333 C5.04973333,19.1013333 3.96606667,18.1666667 2.66673333,18.1666667 C1.1964,18.1666667 6.66666667e-05,19.363 6.66666667e-05,20.8333333 C6.66666667e-05,22.3036667 1.1964,23.5 2.66673333,23.5 C3.96606667,23.5 5.04973333,22.5653333 5.28473333,21.3333333 L11.8334,21.3333333 L11.8334,28.6666667 L18.1667333,28.6666667 L18.1667333,33 L19.1667333,33 L19.1667333,28.6666667 L20.8334,28.6666667 L20.8334,33 L21.8334,33 L21.8334,28.6666667 L27.8334,28.6666667 L27.8334,24 L31.7154,24 C31.9504,25.232 33.0340667,26.1666667 34.3334,26.1666667 C35.8037333,26.1666667 37.0000667,24.9703333 37.0000667,23.5 C37.0000667,22.0296667 35.8037333,20.8333333 34.3334,20.8333333 C33.0340667,20.8333333 31.9504,21.768 31.7154,23 L27.8334,23 L27.8334,16.6666667 L34.8017333,16.6666667 C35.1527333,17.7296667 36.1540667,18.5 37.3334,18.5 C38.8037333,18.5 40.0000667,17.3036667 40.0000667,15.8333333 C40.0000667,14.363 38.8037333,13.1666667 37.3334,13.1666667 Z" id="Fill-2" fill="#4A4A4A"></path>
                        </g>
                    </g>
                </g>
            </g>
        </g>
    </g>
</svg>