<?xml version="1.0" encoding="UTF-8"?>
<svg width="22px" height="64px" viewBox="0 0 22 64" version="1.1" xmlns="http://www.w3.org/2000/svg" xmlns:xlink="http://www.w3.org/1999/xlink">
    <!-- Generator: Sketch 49.3 (51167) - http://www.bohemiancoding.com/sketch -->
    <title>Group 23</title>
    <desc>Created with Sketch.</desc>
    <defs></defs>
    <g id="Landing-Huawei-P20-Pro" stroke="none" stroke-width="1" fill="none" fill-rule="evenodd">
        <g transform="translate(-135.000000, -1055.000000)" fill="#FFFFFF" id="Camara-1">
            <g transform="translate(0.000000, 780.000000)">
                <g id="Group-46" transform="translate(135.000000, 141.000000)">
                    <g id="Group-43" transform="translate(0.000000, 134.000000)">
                        <g id="Group-23">
                            <g id="Camara" transform="translate(11.000000, 21.500000) rotate(-270.000000) translate(-11.000000, -21.500000) translate(-10.000000, 11.000000)">
                                <g id="Page-1">
                                    <path d="M10.4313725,0.828947368 C5.13333333,0.828947368 0.823529412,5.16710526 0.823529412,10.5 C0.823529412,15.8328947 5.13333333,20.1710526 10.4313725,20.1710526 L31.5686275,20.1710526 C36.8666667,20.1710526 41.1764706,15.8328947 41.1764706,10.5 C41.1764706,5.16710526 36.8666667,0.828947368 31.5686275,0.828947368 L10.4313725,0.828947368 Z M31.5686275,21 L10.4313725,21 C4.66666667,21 0,16.3026316 0,10.5 C0,4.69736842 4.66666667,0 10.4313725,0 L31.5686275,0 C37.3333333,0 42,4.69736842 42,10.5 C42,16.3026316 37.3333333,21 31.5686275,21 Z" id="Fill-1"></path>
                                    <path d="M31.1568627,3.17763158 C27.2313725,3.17763158 24.0196078,6.41052632 24.0196078,10.3618421 C24.0196078,14.3131579 27.2313725,17.5460526 31.1568627,17.5460526 C35.0823529,17.5460526 38.2941176,14.3131579 38.2941176,10.3618421 C38.2941176,6.41052632 35.0823529,3.17763158 31.1568627,3.17763158 M31.1568627,18.375 C26.7647059,18.375 23.1960784,14.7828947 23.1960784,10.3618421 C23.1960784,5.94078947 26.7647059,2.34868421 31.1568627,2.34868421 C35.5490196,2.34868421 39.1176471,5.94078947 39.1176471,10.3618421 C39.1176471,14.7828947 35.5490196,18.375 31.1568627,18.375" id="Fill-3"></path>
                                    <path d="M31.1568627,4.80786711 C28.1098039,4.80786711 25.6392157,7.29470921 25.6392157,10.3618145 C25.6392157,13.4289197 28.1098039,15.9157618 31.1568627,15.9157618 C34.2039216,15.9157618 36.6745098,13.4289197 36.6745098,10.3618145 C36.6745098,7.29470921 34.2039216,4.80786711 31.1568627,4.80786711 M31.1568627,16.7447092 C27.6705882,16.7447092 24.8156863,13.871025 24.8156863,10.3618145 C24.8156863,6.85260395 27.6705882,3.97891974 31.1568627,3.97891974 C34.6431373,3.97891974 37.4980392,6.85260395 37.4980392,10.3618145 C37.4980392,13.871025 34.6431373,16.7447092 31.1568627,16.7447092" id="Fill-5"></path>
                                    <path d="M31.1568627,6.49342105 C29.0343529,6.49342105 27.3137255,8.22536842 27.3137255,10.3618421 C27.3137255,12.4983158 29.0343529,14.2302632 31.1568627,14.2302632 C33.2793725,14.2302632 35,12.4983158 35,10.3618421 C35,8.22536842 33.2793725,6.49342105 31.1568627,6.49342105" id="Fill-7"></path>
                                    <path d="M10.8431373,3.17763158 C6.91764706,3.17763158 3.70588235,6.41052632 3.70588235,10.3618421 C3.70588235,14.3131579 6.91764706,17.5460526 10.8431373,17.5460526 C14.7686275,17.5460526 17.9803922,14.3131579 17.9803922,10.3618421 C17.9803922,6.41052632 14.7686275,3.17763158 10.8431373,3.17763158 M10.8431373,18.375 C6.45098039,18.375 2.88235294,14.7828947 2.88235294,10.3618421 C2.88235294,5.94078947 6.45098039,2.34868421 10.8431373,2.34868421 C15.2352941,2.34868421 18.8039216,5.94078947 18.8039216,10.3618421 C18.8039216,14.7828947 15.2352941,18.375 10.8431373,18.375" id="Fill-9"></path>
                                    <path d="M10.8431373,4.80786711 C7.79607843,4.80786711 5.3254902,7.29470921 5.3254902,10.3618145 C5.3254902,13.4289197 7.79607843,15.9157618 10.8431373,15.9157618 C13.8901961,15.9157618 16.3607843,13.4289197 16.3607843,10.3618145 C16.3607843,7.29470921 13.8901961,4.80786711 10.8431373,4.80786711 M10.8431373,16.7447092 C7.35686275,16.7447092 4.50196078,13.871025 4.50196078,10.3618145 C4.50196078,6.85260395 7.35686275,3.97891974 10.8431373,3.97891974 C14.3294118,3.97891974 17.1843137,6.85260395 17.1843137,10.3618145 C17.1843137,13.871025 14.3294118,16.7447092 10.8431373,16.7447092" id="Fill-11"></path>
                                    <path d="M10.8431373,6.49342105 C8.72062745,6.49342105 7,8.22536842 7,10.3618421 C7,12.4983158 8.72062745,14.2302632 10.8431373,14.2302632 C12.9656471,14.2302632 14.6862745,12.4983158 14.6862745,10.3618421 C14.6862745,8.22536842 12.9656471,6.49342105 10.8431373,6.49342105" id="Fill-13"></path>
                                </g>
                            </g>
                            <g id="tercer-lente" transform="translate(3.000000, 48.000000)">
                                <g id="Page-1">
                                    <path d="M0.64,8 C0.64,12.0631579 3.98933333,15.3684211 8.10666667,15.3684211 C12.224,15.3684211 15.36,12.0631579 15.36,8 C15.36,3.93684211 12.224,0.631578947 8.10666667,0.631578947 C3.98933333,0.631578947 0.64,3.93684211 0.64,8 Z M0,8 C0,3.57894737 3.62666667,0 8.10666667,0 C12.5866667,0 16,3.57894737 16,8 C16,12.4210526 12.5866667,16 8.10666667,16 C3.62666667,16 0,12.4210526 0,8 Z" id="Fill-1"></path>
                                    <path d="M8,2.42105263 C4.94933333,2.42105263 2.45333333,4.88421053 2.45333333,7.89473684 C2.45333333,10.9052632 4.94933333,13.3684211 8,13.3684211 C11.0506667,13.3684211 13.5466667,10.9052632 13.5466667,7.89473684 C13.5466667,4.88421053 11.0506667,2.42105263 8,2.42105263 M8,14 C4.58666667,14 1.81333333,11.2631579 1.81333333,7.89473684 C1.81333333,4.52631579 4.58666667,1.78947368 8,1.78947368 C11.4133333,1.78947368 14.1866667,4.52631579 14.1866667,7.89473684 C14.1866667,11.2631579 11.4133333,14 8,14" id="Fill-3"></path>
                                    <path d="M8,3.66313684 C5.632,3.66313684 3.712,5.55787368 3.712,7.89471579 C3.712,10.2315579 5.632,12.1262947 8,12.1262947 C10.368,12.1262947 12.288,10.2315579 12.288,7.89471579 C12.288,5.55787368 10.368,3.66313684 8,3.66313684 M8,12.7578737 C5.29066667,12.7578737 3.072,10.5684 3.072,7.89471579 C3.072,5.22103158 5.29066667,3.03155789 8,3.03155789 C10.7093333,3.03155789 12.928,5.22103158 12.928,7.89471579 C12.928,10.5684 10.7093333,12.7578737 8,12.7578737" id="Fill-5"></path>
                                    <path d="M8,4.94736842 C6.35050667,4.94736842 5.01333333,6.26694737 5.01333333,7.89473684 C5.01333333,9.52252632 6.35050667,10.8421053 8,10.8421053 C9.64949333,10.8421053 10.9866667,9.52252632 10.9866667,7.89473684 C10.9866667,6.26694737 9.64949333,4.94736842 8,4.94736842" id="Fill-7"></path>
                                </g>
                            </g>
                        </g>
                    </g>
                </g>
            </g>
        </g>
    </g>
</svg>