<svg xmlns="http://www.w3.org/2000/svg" width="53" height="53" viewBox="0 0 53 53">
    <g fill="#000" fill-rule="evenodd">
        <path d="M45.68 38.43v6.199a.701.701 0 0 1-.701.7H38.78v6.2a.702.702 0 0 1-1.402 0v-6.2h-3.244v6.2a.7.7 0 0 1-1.402 0v-6.2h-3.244v6.2a.701.701 0 0 1-1.401 0v-6.2h-3.244v6.2a.7.7 0 0 1-1.402 0v-6.2h-3.244v6.2a.701.701 0 0 1-1.402 0v-6.2h-3.244v6.2a.7.7 0 0 1-1.402 0v-6.2H7.95a.7.7 0 0 1-.7-.7v-6.2H1.05a.7.7 0 1 1 0-1.401H7.25v-3.244H1.05a.701.701 0 0 1 0-1.402H7.25v-3.244H1.05a.701.701 0 0 1 0-1.402H7.25v-3.243H1.05a.7.7 0 1 1 0-1.402H7.25v-3.244H1.05a.701.701 0 0 1 0-1.402H7.25V15.2H1.05a.7.7 0 1 1 0-1.402H7.25V7.6a.7.7 0 0 1 .7-.701h6.199V.7a.702.702 0 0 1 1.402 0V6.9h3.244V.7a.7.7 0 1 1 1.402 0V6.9h3.244V.7a.701.701 0 1 1 1.402 0V6.9h3.244V.7a.701.701 0 0 1 1.401 0V6.9h3.244V.7a.701.701 0 1 1 1.402 0V6.9h3.244V.7a.7.7 0 1 1 1.402 0V6.9h6.199c.387 0 .7.313.7.701v6.198h6.199a.702.702 0 0 1 0 1.402H45.68v3.244h6.198a.702.702 0 1 1 0 1.402H45.68v3.244h6.198a.702.702 0 0 1 0 1.402H45.68v3.244h6.198a.702.702 0 1 1 0 1.401H45.68v3.244h6.198a.702.702 0 0 1 0 1.402H45.68v3.244h6.198a.702.702 0 0 1 0 1.402H45.68zM8.652 43.927h35.626V8.302H8.652v35.625z"/>
        <path d="M12.2 40.38h28.53V11.85H12.2v28.53zm-.701-29.933H41.43c.387 0 .7.314.7.702V41.08a.7.7 0 0 1-.7.7H11.5a.7.7 0 0 1-.702-.7V11.148c0-.387.314-.7.702-.7z"/>
    </g>
</svg>
