<svg xmlns="http://www.w3.org/2000/svg" width="39" height="48" viewBox="0 0 39 48">
    <g fill="#2D2D2D" fill-rule="evenodd">
        <path d="M36.086 17.81a2.919 2.919 0 0 1 2.91 2.923v11.666c0 1.61-1.306 2.92-2.91 2.92a2.918 2.918 0 0 1-2.91-2.92V20.733a2.92 2.92 0 0 1 2.91-2.922zM37.333 32.4V20.733c0-.692-.56-1.255-1.247-1.255-.688 0-1.248.563-1.248 1.255v11.666c0 .69.56 1.253 1.248 1.253s1.247-.562 1.247-1.253zM3.659 17.81a2.92 2.92 0 0 1 2.911 2.923v11.666a2.92 2.92 0 0 1-2.911 2.92A2.918 2.918 0 0 1 .75 32.4V20.733a2.919 2.919 0 0 1 2.909-2.922zM4.907 32.4V20.733c0-.692-.56-1.255-1.248-1.255-.687 0-1.247.563-1.247 1.255v11.666c0 .69.56 1.253 1.247 1.253.688 0 1.248-.562 1.248-1.253zM25.577 5.034c4.014 2.08 6.767 6.275 6.768 11.11a.832.832 0 0 1-.832.833H8.233a.832.832 0 0 1-.831-.834c0-4.834 2.754-9.03 6.767-11.109l-2.075-3.47A.835.835 0 0 1 12.379.42a.83.83 0 0 1 1.14.286l2.19 3.662a12.362 12.362 0 0 1 4.164-.732c1.462 0 2.859.266 4.164.732l2.19-3.662a.829.829 0 0 1 1.14-.286.834.834 0 0 1 .287 1.144l-2.077 3.47zM9.097 15.31H30.65C30.225 9.72 25.553 5.304 19.873 5.304c-5.68 0-10.351 4.416-10.777 10.005z"/>
        <path d="M15.167 9.776H14.07a.55.55 0 0 0-.549.55v1.099c0 .302.246.55.549.55h1.096a.55.55 0 0 0 .548-.55v-1.1a.548.548 0 0 0-.548-.55M30.682 35.463a2.36 2.36 0 0 1-2.358 2.358h-1.8a.833.833 0 0 0-.832.834v5.842a1.664 1.664 0 0 1-3.325 0v-5.842a.833.833 0 0 0-.832-.834H18.21a.833.833 0 0 0-.832.834v5.842a1.664 1.664 0 0 1-3.325 0v-5.842a.833.833 0 0 0-.831-.834h-1.8a2.36 2.36 0 0 1-2.358-2.358V19.478h21.618v15.985zm.83-17.652H8.233a.832.832 0 0 0-.831.833v16.819a4.028 4.028 0 0 0 4.019 4.027h.968v5.007a3.333 3.333 0 0 0 3.326 3.33 3.331 3.331 0 0 0 3.325-3.33V39.49h1.665v5.007c0 1.836 1.49 3.33 3.325 3.33a3.333 3.333 0 0 0 3.326-3.33V39.49h.968a4.027 4.027 0 0 0 4.02-4.027V18.644a.832.832 0 0 0-.832-.833zM25.675 9.776h-1.096a.548.548 0 0 0-.548.55v1.099c0 .302.245.55.548.55h1.097a.549.549 0 0 0 .547-.55v-1.1a.55.55 0 0 0-.548-.55"/>
    </g>
</svg>
