<svg xmlns="http://www.w3.org/2000/svg" width="32" height="39" viewBox="0 0 32 39">
    <path fill="#2D2D2D" fill-rule="evenodd" d="M27.587 13.85h.65V4.39h-3.399v9.462h2.749zm-1.45-1.299h.8V5.688h-.8v6.863zm-5.08-8.162h-.65v9.462h3.399V4.389h-2.75zm.65 8.162h.8V5.688h-.8v6.863zM16.624 4.39h-.65v9.462h3.399V4.389h-2.749zm.65 8.162h.8V5.688h-.8v6.863zm-5.08-8.162h-.65v9.462h3.398V4.389h-2.748zm.65 8.162h.799V5.688h-.8v6.863zM29.105 36.47a3.559 3.559 0 0 0 1.045-2.523V5.565c0-.985-.4-1.877-1.045-2.523a3.552 3.552 0 0 0-2.52-1.044h-15.17l-9.467 9.73v22.218c0 .984.4 1.875 1.045 2.52h.001a3.554 3.554 0 0 0 2.52 1.046h21.072c.984 0 1.875-.399 2.52-1.043zm2.344-2.523c0 1.34-.545 2.555-1.426 3.436a4.849 4.849 0 0 1-3.437 1.429H5.514a4.847 4.847 0 0 1-3.437-1.427v-.002A4.847 4.847 0 0 1 .65 33.946v-22.48l.186-.45L10.872.7h15.715c1.34 0 2.555.546 3.437 1.43a4.843 4.843 0 0 1 1.426 3.435v28.38z"/>
</svg>
