<svg xmlns="http://www.w3.org/2000/svg" width="41" height="42" viewBox="0 0 41 42">
    <path fill="#2D2D2D" fill-rule="evenodd" d="M33.924 7.526A18.923 18.923 0 0 0 20.5 1.966a18.922 18.922 0 0 0-13.424 5.56 18.92 18.92 0 0 0-5.56 13.424 18.92 18.92 0 0 0 5.56 13.424 18.923 18.923 0 0 0 13.424 5.56c5.242 0 9.988-2.125 13.424-5.56a18.922 18.922 0 0 0 5.56-13.424c0-5.243-2.125-9.988-5.56-13.424zM20.5.6c5.62 0 10.707 2.278 14.39 5.96a20.287 20.287 0 0 1 5.96 14.39c0 5.62-2.278 10.707-5.96 14.39A20.288 20.288 0 0 1 20.5 41.3a20.288 20.288 0 0 1-14.39-5.96A20.288 20.288 0 0 1 .15 20.95c0-5.62 2.278-10.707 5.96-14.39A20.286 20.286 0 0 1 20.5.6zm11.368 8.982A16.027 16.027 0 0 0 20.5 4.873c-4.44 0-8.46 1.8-11.368 4.709A16.03 16.03 0 0 0 4.423 20.95c0 4.44 1.8 8.459 4.709 11.368A16.026 16.026 0 0 0 20.5 37.027c4.44 0 8.459-1.8 11.368-4.71a16.024 16.024 0 0 0 4.708-11.367c0-4.44-1.799-8.459-4.708-11.368zM20.5 3.507c4.817 0 9.177 1.953 12.334 5.11a17.39 17.39 0 0 1 5.109 12.333c0 4.816-1.953 9.177-5.11 12.334A17.39 17.39 0 0 1 20.5 38.392a17.388 17.388 0 0 1-12.334-5.108A17.39 17.39 0 0 1 3.058 20.95c0-4.817 1.952-9.177 5.108-12.334A17.387 17.387 0 0 1 20.5 3.507zm-3.743 10.825a7.514 7.514 0 0 1 1.516-1.658 8.56 8.56 0 0 0-3.832 2.217 8.542 8.542 0 0 0-2.51 6.06 8.54 8.54 0 0 0 2.51 6.058 8.54 8.54 0 0 0 6.059 2.509 8.541 8.541 0 0 0 6.059-2.51 8.564 8.564 0 0 0 2.217-3.83 7.542 7.542 0 0 1-1.658 1.515 7.648 7.648 0 0 1-2.718 2.784 7.565 7.565 0 0 1-3.9 1.078c-2.1 0-4.002-.851-5.378-2.227a7.583 7.583 0 0 1-2.227-5.378c0-1.423.393-2.758 1.078-3.9a7.637 7.637 0 0 1 2.784-2.718zm3.743-3.316a10.158 10.158 0 0 1 1.423.103.682.682 0 0 1-.001 1.35 6.07 6.07 0 0 0-2.334.928 6.14 6.14 0 0 0-1.78 1.815.672.672 0 0 1-.255.234 6.272 6.272 0 0 0-2.412 2.303 6.21 6.21 0 0 0-.88 3.201c0 1.723.698 3.283 1.827 4.412a6.218 6.218 0 0 0 4.412 1.827 6.21 6.21 0 0 0 3.201-.88 6.273 6.273 0 0 0 2.303-2.413.67.67 0 0 1 .248-.261 6.143 6.143 0 0 0 1.8-1.773 6.06 6.06 0 0 0 .931-2.35.681.681 0 0 1 1.348.015 9.885 9.885 0 0 1 .103 1.423 9.903 9.903 0 0 1-2.91 7.024 9.903 9.903 0 0 1-7.024 2.91 9.902 9.902 0 0 1-7.024-2.91 9.9 9.9 0 0 1-2.91-7.024 9.901 9.901 0 0 1 2.91-7.024 9.902 9.902 0 0 1 7.024-2.91zm2.64 7.293a3.722 3.722 0 0 0-2.64-1.094 3.72 3.72 0 0 0-2.64 1.094 3.72 3.72 0 0 0-1.095 2.641 3.72 3.72 0 0 0 1.094 2.64 3.719 3.719 0 0 0 2.64 1.094 3.721 3.721 0 0 0 2.642-1.093 3.72 3.72 0 0 0 1.094-2.64 3.72 3.72 0 0 0-1.094-2.642zm-2.64-2.46c1.408 0 2.684.571 3.607 1.495A5.085 5.085 0 0 1 25.6 20.95a5.087 5.087 0 0 1-1.494 3.607A5.085 5.085 0 0 1 20.5 26.05a5.084 5.084 0 0 1-3.607-1.494A5.085 5.085 0 0 1 15.4 20.95c0-1.408.57-2.684 1.494-3.606a5.084 5.084 0 0 1 3.607-1.495z"/>
</svg>
