<svg xmlns="http://www.w3.org/2000/svg" width="31" height="49" viewBox="0 0 31 49">
    <path fill="#000" fill-rule="evenodd" d="M1.382 47.153A4.184 4.184 0 0 1 .15 44.19V4.497c0-1.155.472-2.204 1.232-2.965A4.182 4.182 0 0 1 4.347.3h22.406c1.133 0 2.166.457 2.924 1.195.759.74 1.24 1.764 1.27 2.897v.037a.687.687 0 0 1 .003.068v39.692l-.003.043v.062a4.187 4.187 0 0 1-1.27 2.896 4.18 4.18 0 0 1-2.924 1.196H4.347a4.182 4.182 0 0 1-2.965-1.233zm.19-2.964c0 .762.313 1.455.816 1.958a2.766 2.766 0 0 0 1.96.816h22.405c.751 0 1.435-.302 1.935-.79.503-.49.822-1.166.84-1.912v-.007l.001-.032v-.002l.001-.031h-.003V4.497c0-.019 0-.037.002-.055v-.017a2.766 2.766 0 0 0-.841-1.912 2.765 2.765 0 0 0-1.935-.79H4.347c-.763 0-1.456.312-1.959.815a2.764 2.764 0 0 0-.815 1.959v39.692zm6.296-8.377a.71.71 0 1 1 1.229.711l-4.28 7.35 1.473-.307a.71.71 0 0 1 .289 1.389l-3.024.633a.71.71 0 0 1-.857-.594l-.55-3.308a.71.71 0 0 1 1.402-.228l.228 1.378 4.09-7.024zm15.577-23.666a.71.71 0 1 1-1.229-.711l4.281-7.351-1.473.308a.71.71 0 0 1-.289-1.39l3.024-.633a.71.71 0 0 1 .857.595l.549 3.308a.71.71 0 0 1-1.401.228l-.228-1.38-4.091 7.026z"/>
</svg>
