<?xml version="1.0" encoding="UTF-8"?>
<svg width="17px" height="48px" viewBox="0 0 17 48" version="1.1" xmlns="http://www.w3.org/2000/svg" xmlns:xlink="http://www.w3.org/1999/xlink">
    <!-- Generator: Sketch 49.3 (51167) - http://www.bohemiancoding.com/sketch -->
    <title>Camara</title>
    <desc>Created with Sketch.</desc>
    <defs></defs>
    <g id="Landing-Huawei-P20-Pro---Cambios" stroke="none" stroke-width="1" fill="none" fill-rule="evenodd">
        <g id="Landing-Huawei-P20-Pro" transform="translate(-1205.000000, -1812.000000)" fill="#FFFFFF">
            <g id="Camara-trple-" transform="translate(1213.541667, 1836.000000) rotate(-270.000000) translate(-1213.541667, -1836.000000) translate(1187.541667, 1822.458333)">
                <g id="Page-1" transform="translate(2.718954, 5.328947)" stroke-width="1">
                    <g>
                        <path d="M7.69934641,0.631578947 C3.78888889,0.631578947 0.607843137,3.93684211 0.607843137,8 C0.607843137,12.0631579 3.78888889,15.3684211 7.69934641,15.3684211 L23.3006536,15.3684211 C27.2111111,15.3684211 30.3921569,12.0631579 30.3921569,8 C30.3921569,3.93684211 27.2111111,0.631578947 23.3006536,0.631578947 L7.69934641,0.631578947 Z M23.3006536,16 L7.69934641,16 C3.44444444,16 0,12.4210526 0,8 C0,3.57894737 3.44444444,0 7.69934641,0 L23.3006536,0 C27.5555556,0 31,3.57894737 31,8 C31,12.4210526 27.5555556,16 23.3006536,16 Z" id="Fill-1"></path>
                        <path d="M22.996732,2.42105263 C20.0993464,2.42105263 17.7287582,4.88421053 17.7287582,7.89473684 C17.7287582,10.9052632 20.0993464,13.3684211 22.996732,13.3684211 C25.8941176,13.3684211 28.2647059,10.9052632 28.2647059,7.89473684 C28.2647059,4.88421053 25.8941176,2.42105263 22.996732,2.42105263 M22.996732,14 C19.754902,14 17.120915,11.2631579 17.120915,7.89473684 C17.120915,4.52631579 19.754902,1.78947368 22.996732,1.78947368 C26.2385621,1.78947368 28.872549,4.52631579 28.872549,7.89473684 C28.872549,11.2631579 26.2385621,14 22.996732,14" id="Fill-3"></path>
                        <path d="M22.996732,3.66313684 C20.7477124,3.66313684 18.924183,5.55787368 18.924183,7.89471579 C18.924183,10.2315579 20.7477124,12.1262947 22.996732,12.1262947 C25.2457516,12.1262947 27.069281,10.2315579 27.069281,7.89471579 C27.069281,5.55787368 25.2457516,3.66313684 22.996732,3.66313684 M22.996732,12.7578737 C20.4235294,12.7578737 18.3163399,10.5684 18.3163399,7.89471579 C18.3163399,5.22103158 20.4235294,3.03155789 22.996732,3.03155789 C25.5699346,3.03155789 27.6771242,5.22103158 27.6771242,7.89471579 C27.6771242,10.5684 25.5699346,12.7578737 22.996732,12.7578737" id="Fill-5"></path>
                        <path d="M22.996732,4.94736842 C21.4301176,4.94736842 20.1601307,6.26694737 20.1601307,7.89473684 C20.1601307,9.52252632 21.4301176,10.8421053 22.996732,10.8421053 C24.5633464,10.8421053 25.8333333,9.52252632 25.8333333,7.89473684 C25.8333333,6.26694737 24.5633464,4.94736842 22.996732,4.94736842" id="Fill-7"></path>
                        <path d="M22.996732,2.42105263 C20.0993464,2.42105263 17.7287582,4.88421053 17.7287582,7.89473684 C17.7287582,10.9052632 20.0993464,13.3684211 22.996732,13.3684211 C25.8941176,13.3684211 28.2647059,10.9052632 28.2647059,7.89473684 C28.2647059,4.88421053 25.8941176,2.42105263 22.996732,2.42105263 M22.996732,14 C19.754902,14 17.120915,11.2631579 17.120915,7.89473684 C17.120915,4.52631579 19.754902,1.78947368 22.996732,1.78947368 C26.2385621,1.78947368 28.872549,4.52631579 28.872549,7.89473684 C28.872549,11.2631579 26.2385621,14 22.996732,14" id="Fill-3-Copy"></path>
                        <path d="M22.996732,3.66313684 C20.7477124,3.66313684 18.924183,5.55787368 18.924183,7.89471579 C18.924183,10.2315579 20.7477124,12.1262947 22.996732,12.1262947 C25.2457516,12.1262947 27.069281,10.2315579 27.069281,7.89471579 C27.069281,5.55787368 25.2457516,3.66313684 22.996732,3.66313684 M22.996732,12.7578737 C20.4235294,12.7578737 18.3163399,10.5684 18.3163399,7.89471579 C18.3163399,5.22103158 20.4235294,3.03155789 22.996732,3.03155789 C25.5699346,3.03155789 27.6771242,5.22103158 27.6771242,7.89471579 C27.6771242,10.5684 25.5699346,12.7578737 22.996732,12.7578737" id="Fill-5-Copy"></path>
                        <path d="M22.996732,4.94736842 C21.4301176,4.94736842 20.1601307,6.26694737 20.1601307,7.89473684 C20.1601307,9.52252632 21.4301176,10.8421053 22.996732,10.8421053 C24.5633464,10.8421053 25.8333333,9.52252632 25.8333333,7.89473684 C25.8333333,6.26694737 24.5633464,4.94736842 22.996732,4.94736842" id="Fill-7-Copy"></path>
                        <path d="M8.00326797,2.42105263 C5.10588235,2.42105263 2.73529412,4.88421053 2.73529412,7.89473684 C2.73529412,10.9052632 5.10588235,13.3684211 8.00326797,13.3684211 C10.9006536,13.3684211 13.2712418,10.9052632 13.2712418,7.89473684 C13.2712418,4.88421053 10.9006536,2.42105263 8.00326797,2.42105263 M8.00326797,14 C4.76143791,14 2.12745098,11.2631579 2.12745098,7.89473684 C2.12745098,4.52631579 4.76143791,1.78947368 8.00326797,1.78947368 C11.245098,1.78947368 13.879085,4.52631579 13.879085,7.89473684 C13.879085,11.2631579 11.245098,14 8.00326797,14" id="Fill-9"></path>
                        <path d="M8.00326797,3.66313684 C5.75424837,3.66313684 3.93071895,5.55787368 3.93071895,7.89471579 C3.93071895,10.2315579 5.75424837,12.1262947 8.00326797,12.1262947 C10.2522876,12.1262947 12.075817,10.2315579 12.075817,7.89471579 C12.075817,5.55787368 10.2522876,3.66313684 8.00326797,3.66313684 M8.00326797,12.7578737 C5.43006536,12.7578737 3.32287582,10.5684 3.32287582,7.89471579 C3.32287582,5.22103158 5.43006536,3.03155789 8.00326797,3.03155789 C10.5764706,3.03155789 12.6836601,5.22103158 12.6836601,7.89471579 C12.6836601,10.5684 10.5764706,12.7578737 8.00326797,12.7578737" id="Fill-11"></path>
                        <path d="M8.00326797,4.94736842 C6.43665359,4.94736842 5.16666667,6.26694737 5.16666667,7.89473684 C5.16666667,9.52252632 6.43665359,10.8421053 8.00326797,10.8421053 C9.56988235,10.8421053 10.8398693,9.52252632 10.8398693,7.89473684 C10.8398693,6.26694737 9.56988235,4.94736842 8.00326797,4.94736842" id="Fill-13"></path>
                    </g>
                </g>
                <path d="M43.052045,7.75474656 C40.090321,7.75474656 37.6670923,10.2877318 37.6670923,13.3836027 C37.6670923,16.4794736 40.090321,19.0124589 43.052045,19.0124589 C46.013769,19.0124589 48.4369977,16.4794736 48.4369977,13.3836027 C48.4369977,10.2877318 46.013769,7.75474656 43.052045,7.75474656 M43.052045,19.6619423 C39.738228,19.6619423 37.0457516,16.8475142 37.0457516,13.3836027 C37.0457516,9.91969125 39.738228,7.10526316 43.052045,7.10526316 C46.3658621,7.10526316 49.0583384,9.91969125 49.0583384,13.3836027 C49.0583384,16.8475142 46.3658621,19.6619423 43.052045,19.6619423" id="Fill-3"></path>
                <path d="M42.9781171,8.95478758 C40.6791566,8.95478758 38.8151345,10.9032378 38.8151345,13.3063264 C38.8151345,15.709415 40.6791566,17.6578652 42.9781171,17.6578652 C45.2770777,17.6578652 47.1410998,15.709415 47.1410998,13.3063264 C47.1410998,10.9032378 45.2770777,8.95478758 42.9781171,8.95478758 M42.9781171,18.3073486 C40.3477749,18.3073486 38.1937938,16.0558061 38.1937938,13.3063264 C38.1937938,10.5568466 40.3477749,8.30530417 42.9781171,8.30530417 C45.6084594,8.30530417 47.7624405,10.5568466 47.7624405,13.3063264 C47.7624405,16.0558061 45.6084594,18.3073486 42.9781171,18.3073486" id="Fill-5"></path>
                <path d="M43.0067873,10.3053725 C41.4053852,10.3053725 40.1071974,11.6623599 40.1071974,13.3362951 C40.1071974,15.0102303 41.4053852,16.3672177 43.0067873,16.3672177 C44.6081894,16.3672177 45.9063772,15.0102303 45.9063772,13.3362951 C45.9063772,11.6623599 44.6081894,10.3053725 43.0067873,10.3053725" id="Fill-7"></path>
            </g>
        </g>
    </g>
</svg>