<?xml version="1.0" encoding="UTF-8"?>
<svg width="36px" height="18px" viewBox="0 0 36 18" version="1.1" xmlns="http://www.w3.org/2000/svg" xmlns:xlink="http://www.w3.org/1999/xlink">
    <!-- Generator: Sketch 49.3 (51167) - http://www.bohemiancoding.com/sketch -->
    <title>Camara</title>
    <desc>Created with Sketch.</desc>
    <defs></defs>
    <g id="Landing-Huawei-P20-Pro" stroke="none" stroke-width="1" fill="none" fill-rule="evenodd">
        <g transform="translate(-135.000000, -1159.000000)" fill="#FFFFFF" id="Camara-1">
            <g transform="translate(0.000000, 780.000000)">
                <g id="Group-46" transform="translate(135.000000, 141.000000)">
                    <g id="Group-45" transform="translate(0.000000, 237.000000)">
                        <g id="Camara" transform="translate(0.000000, 1.000000)">
                            <g id="Page-1">
                                <path d="M8.94117647,0.710526316 C4.4,0.710526316 0.705882353,4.42894737 0.705882353,9 C0.705882353,13.5710526 4.4,17.2894737 8.94117647,17.2894737 L27.0588235,17.2894737 C31.6,17.2894737 35.2941176,13.5710526 35.2941176,9 C35.2941176,4.42894737 31.6,0.710526316 27.0588235,0.710526316 L8.94117647,0.710526316 Z M27.0588235,18 L8.94117647,18 C4,18 0,13.9736842 0,9 C0,4.02631579 4,0 8.94117647,0 L27.0588235,0 C32,0 36,4.02631579 36,9 C36,13.9736842 32,18 27.0588235,18 Z" id="Fill-1"></path>
                                <path d="M26.7058824,2.72368421 C23.3411765,2.72368421 20.5882353,5.49473684 20.5882353,8.88157895 C20.5882353,12.2684211 23.3411765,15.0394737 26.7058824,15.0394737 C30.0705882,15.0394737 32.8235294,12.2684211 32.8235294,8.88157895 C32.8235294,5.49473684 30.0705882,2.72368421 26.7058824,2.72368421 M26.7058824,15.75 C22.9411765,15.75 19.8823529,12.6710526 19.8823529,8.88157895 C19.8823529,5.09210526 22.9411765,2.01315789 26.7058824,2.01315789 C30.4705882,2.01315789 33.5294118,5.09210526 33.5294118,8.88157895 C33.5294118,12.6710526 30.4705882,15.75 26.7058824,15.75" id="Fill-3"></path>
                                <path d="M26.7058824,4.12102895 C24.0941176,4.12102895 21.9764706,6.25260789 21.9764706,8.88155526 C21.9764706,11.5105026 24.0941176,13.6420816 26.7058824,13.6420816 C29.3176471,13.6420816 31.4352941,11.5105026 31.4352941,8.88155526 C31.4352941,6.25260789 29.3176471,4.12102895 26.7058824,4.12102895 M26.7058824,14.3526079 C23.7176471,14.3526079 21.2705882,11.88945 21.2705882,8.88155526 C21.2705882,5.87366053 23.7176471,3.41050263 26.7058824,3.41050263 C29.6941176,3.41050263 32.1411765,5.87366053 32.1411765,8.88155526 C32.1411765,11.88945 29.6941176,14.3526079 26.7058824,14.3526079" id="Fill-5"></path>
                                <path d="M26.7058824,5.56578947 C24.8865882,5.56578947 23.4117647,7.05031579 23.4117647,8.88157895 C23.4117647,10.7128421 24.8865882,12.1973684 26.7058824,12.1973684 C28.5251765,12.1973684 30,10.7128421 30,8.88157895 C30,7.05031579 28.5251765,5.56578947 26.7058824,5.56578947" id="Fill-7"></path>
                                <path d="M9.29411765,2.72368421 C5.92941176,2.72368421 3.17647059,5.49473684 3.17647059,8.88157895 C3.17647059,12.2684211 5.92941176,15.0394737 9.29411765,15.0394737 C12.6588235,15.0394737 15.4117647,12.2684211 15.4117647,8.88157895 C15.4117647,5.49473684 12.6588235,2.72368421 9.29411765,2.72368421 M9.29411765,15.75 C5.52941176,15.75 2.47058824,12.6710526 2.47058824,8.88157895 C2.47058824,5.09210526 5.52941176,2.01315789 9.29411765,2.01315789 C13.0588235,2.01315789 16.1176471,5.09210526 16.1176471,8.88157895 C16.1176471,12.6710526 13.0588235,15.75 9.29411765,15.75" id="Fill-9"></path>
                                <path d="M9.29411765,4.12102895 C6.68235294,4.12102895 4.56470588,6.25260789 4.56470588,8.88155526 C4.56470588,11.5105026 6.68235294,13.6420816 9.29411765,13.6420816 C11.9058824,13.6420816 14.0235294,11.5105026 14.0235294,8.88155526 C14.0235294,6.25260789 11.9058824,4.12102895 9.29411765,4.12102895 M9.29411765,14.3526079 C6.30588235,14.3526079 3.85882353,11.88945 3.85882353,8.88155526 C3.85882353,5.87366053 6.30588235,3.41050263 9.29411765,3.41050263 C12.2823529,3.41050263 14.7294118,5.87366053 14.7294118,8.88155526 C14.7294118,11.88945 12.2823529,14.3526079 9.29411765,14.3526079" id="Fill-11"></path>
                                <path d="M9.29411765,5.56578947 C7.47482353,5.56578947 6,7.05031579 6,8.88157895 C6,10.7128421 7.47482353,12.1973684 9.29411765,12.1973684 C11.1134118,12.1973684 12.5882353,10.7128421 12.5882353,8.88157895 C12.5882353,7.05031579 11.1134118,5.56578947 9.29411765,5.56578947" id="Fill-13"></path>
                            </g>
                        </g>
                    </g>
                </g>
            </g>
        </g>
    </g>
</svg>