<?xml version="1.0" encoding="UTF-8"?>
<svg width="16px" height="16px" viewBox="0 0 16 16" version="1.1" xmlns="http://www.w3.org/2000/svg" xmlns:xlink="http://www.w3.org/1999/xlink">
    <!-- Generator: Sketch 52.2 (67145) - http://www.bohemiancoding.com/sketch -->
    <title>tercer lente</title>
    <desc>Created with Sketch.</desc>
    <g id="Page-1" stroke="none" stroke-width="1" fill="none" fill-rule="evenodd">
        <g id="Artboard" transform="translate(-119.000000, -379.000000)" fill="#FFFFFF">
            <g id="tercer-lente" transform="translate(119.000000, 379.000000)">
                <g id="Page-1">
                    <path d="M0.64,8 C0.64,12.0631579 3.98933333,15.3684211 8.10666667,15.3684211 C12.224,15.3684211 15.36,12.0631579 15.36,8 C15.36,3.93684211 12.224,0.631578947 8.10666667,0.631578947 C3.98933333,0.631578947 0.64,3.93684211 0.64,8 Z M0,8 C0,3.57894737 3.62666667,0 8.10666667,0 C12.5866667,0 16,3.57894737 16,8 C16,12.4210526 12.5866667,16 8.10666667,16 C3.62666667,16 0,12.4210526 0,8 Z" id="Fill-1"></path>
                    <path d="M8,2.42105263 C4.94933333,2.42105263 2.45333333,4.88421053 2.45333333,7.89473684 C2.45333333,10.9052632 4.94933333,13.3684211 8,13.3684211 C11.0506667,13.3684211 13.5466667,10.9052632 13.5466667,7.89473684 C13.5466667,4.88421053 11.0506667,2.42105263 8,2.42105263 M8,14 C4.58666667,14 1.81333333,11.2631579 1.81333333,7.89473684 C1.81333333,4.52631579 4.58666667,1.78947368 8,1.78947368 C11.4133333,1.78947368 14.1866667,4.52631579 14.1866667,7.89473684 C14.1866667,11.2631579 11.4133333,14 8,14" id="Fill-3"></path>
                    <path d="M8,3.66313684 C5.632,3.66313684 3.712,5.55787368 3.712,7.89471579 C3.712,10.2315579 5.632,12.1262947 8,12.1262947 C10.368,12.1262947 12.288,10.2315579 12.288,7.89471579 C12.288,5.55787368 10.368,3.66313684 8,3.66313684 M8,12.7578737 C5.29066667,12.7578737 3.072,10.5684 3.072,7.89471579 C3.072,5.22103158 5.29066667,3.03155789 8,3.03155789 C10.7093333,3.03155789 12.928,5.22103158 12.928,7.89471579 C12.928,10.5684 10.7093333,12.7578737 8,12.7578737" id="Fill-5"></path>
                    <path d="M8,4.94736842 C6.35050667,4.94736842 5.01333333,6.26694737 5.01333333,7.89473684 C5.01333333,9.52252632 6.35050667,10.8421053 8,10.8421053 C9.64949333,10.8421053 10.9866667,9.52252632 10.9866667,7.89473684 C10.9866667,6.26694737 9.64949333,4.94736842 8,4.94736842" id="Fill-7"></path>
                </g>
            </g>
        </g>
    </g>
</svg>