<svg xmlns="http://www.w3.org/2000/svg" viewBox="0 0 12 16">
  <defs>
    <style>
      .cls-1 {
        fill: #4a4a4a;
        fill-rule: evenodd;
      }
    </style>
  </defs>
  <g id="Group_2" data-name="Group 2" transform="translate(-100 -100)">
    <path id="Path_5" data-name="Path 5" class="cls-1" d="M111.131,114.523a.607.607,0,0,1-.607.606h-9.048a.607.607,0,0,1-.607-.607V104.7l3.1-3.832h6.556a.608.608,0,0,1,.607.607v13.044ZM110.524,100H103.76a.44.44,0,0,0-.338.162l-3.326,4.112a.441.441,0,0,0-.1.275v9.973A1.479,1.479,0,0,0,101.476,116h9.048A1.479,1.479,0,0,0,112,114.522V101.477A1.478,1.478,0,0,0,110.525,100Z"/>
    <path id="Path_6" data-name="Path 6" class="cls-1" d="M104.259,109.593h-1.267l1.267-1.7Zm1.227.062a.9.9,0,0,0-.363-.062H105v-2.268c0-.34-.15-.509-.448-.509a.334.334,0,0,0-.237.092,2.4,2.4,0,0,0-.251.3l-1.561,2.077-.11.144c-.028.04-.057.08-.084.122a.564.564,0,0,0-.062.12.437.437,0,0,0,.119.456.62.62,0,0,0,.42.125h1.479v.545a.479.479,0,0,0,.1.333.34.34,0,0,0,.266.112.347.347,0,0,0,.268-.109.489.489,0,0,0,.1-.336v-.545h.179a.59.59,0,0,0,.336-.078.278.278,0,0,0,.113-.247.265.265,0,0,0-.137-.27Zm4.228-.713a1.316,1.316,0,0,0-.309-.032h-.992a.411.411,0,0,0-.286.094.305.305,0,0,0-.1.238.261.261,0,0,0,.126.248.727.727,0,0,0,.369.074h.678v.7a2.922,2.922,0,0,1-.541.224,1.971,1.971,0,0,1-.57.08,1.211,1.211,0,0,1-.973-.408,1.727,1.727,0,0,1-.349-1.162,2.1,2.1,0,0,1,.09-.636,1.363,1.363,0,0,1,.258-.486,1.121,1.121,0,0,1,.408-.3,1.344,1.344,0,0,1,.542-.105,1.16,1.16,0,0,1,.484.088.853.853,0,0,1,.3.217,3.393,3.393,0,0,1,.275.38.413.413,0,0,0,.619.052.374.374,0,0,0,.123-.28.754.754,0,0,0-.107-.348,1.3,1.3,0,0,0-.315-.372,1.7,1.7,0,0,0-.545-.292,2.379,2.379,0,0,0-.772-.116,2.718,2.718,0,0,0-.948.154,1.942,1.942,0,0,0-.71.444,1.879,1.879,0,0,0-.442.706,2.668,2.668,0,0,0-.151.917,2.631,2.631,0,0,0,.155.923,1.965,1.965,0,0,0,.444.7,1.9,1.9,0,0,0,.7.442,2.6,2.6,0,0,0,.907.152,3.082,3.082,0,0,0,.79-.1,3.576,3.576,0,0,0,.754-.307,1.087,1.087,0,0,0,.221-.153.427.427,0,0,0,.121-.177.866.866,0,0,0,.032-.263v-.823a.582.582,0,0,0-.078-.334.348.348,0,0,0-.205-.144" transform="translate(0 0.041)"/>
  </g>
</svg>
