<svg xmlns="http://www.w3.org/2000/svg" width="21" height="27" viewBox="0 0 21 27">
    <g fill="none" fill-rule="evenodd">
        <path fill="#4A4A4A" d="M2.018 25.769a.768.768 0 0 1-.773-.763v-2.328h12.093v2.328a.769.769 0 0 1-.774.763H2.018zm-.773-4.319h12.093V9.983H1.245V21.45zm11.32-14.74a.77.77 0 0 1 .773.762v1.283H1.245V7.472c0-.42.347-.762.773-.762h10.546zM2.017 5.483C.906 5.483 0 6.375 0 7.472v17.534c0 1.098.906 1.99 2.018 1.99h10.546c1.112 0 2.018-.892 2.018-1.99V7.472c0-1.097-.906-1.99-2.018-1.99H2.018z"/>
        <path fill="#4A4A4A" d="M8.9 23.414H6.077a.619.619 0 0 0-.622.615c0 .338.28.614.622.614H8.9a.619.619 0 0 0 .622-.614.618.618 0 0 0-.622-.615M7.31 8.28c.242 0 .439-.225.439-.502s-.197-.502-.439-.502h-.508c-.242 0-.438.225-.438.502s.196.502.438.502h.508z"/>
        <path fill="#4A4A4A" stroke="#4A4A4A" stroke-width="1.3" d="M14.545 3.69c1.774.97 2.661 2.453 2.661 4.45"/>
        <path stroke="#4A4A4A" stroke-width="1.3" d="M15.49 1.105c2.966 1.553 4.449 3.87 4.449 6.954"/>
    </g>
</svg>
