<svg xmlns="http://www.w3.org/2000/svg" width="25" height="20" viewBox="0 0 25 20">
    <g fill="#4A4A4A" fill-rule="evenodd">
        <path d="M22.995 11.437c0 1.417-1.186 2.57-2.644 2.57h-7.448L5.51 18.099l1.95-4.092H4.518c-1.458 0-2.643-1.153-2.643-2.57V4.474c0-1.417 1.185-2.571 2.643-2.571h15.834c1.458 0 2.644 1.154 2.644 2.571v6.963zM4.517.652C2.351.653.588 2.366.588 4.474v6.963c0 2.106 1.763 3.82 3.93 3.82h.93l-1.477 3.096a.954.954 0 0 0 .232 1.128 1.024 1.024 0 0 0 1.175.13l7.866-4.354h7.107c2.167 0 3.93-1.714 3.93-3.82V4.474c0-2.108-1.763-3.821-3.93-3.821H4.517z"/>
        <path d="M8.842 9.244c0 .325-.084.616-.257.875-.172.259-.424.461-.756.609-.331.146-.725.219-1.179.219-.545 0-.995-.1-1.348-.3a1.754 1.754 0 0 1-.611-.578c-.158-.239-.237-.474-.237-.7 0-.132.048-.245.142-.34a.494.494 0 0 1 .36-.14c.117 0 .217.036.3.11.08.073.15.181.208.325.07.171.146.314.228.429.081.115.196.21.344.285.149.074.343.111.583.111.332 0 .602-.075.81-.226.207-.149.31-.338.31-.561a.588.588 0 0 0-.167-.435 1.099 1.099 0 0 0-.433-.254 7.323 7.323 0 0 0-.711-.186 5.52 5.52 0 0 1-.995-.317 1.609 1.609 0 0 1-.637-.496c-.158-.207-.236-.467-.236-.777 0-.295.082-.558.248-.788.166-.229.406-.405.72-.53a3.063 3.063 0 0 1 1.107-.184c.34 0 .632.042.88.124.247.081.452.19.615.324.163.137.283.279.359.427a.97.97 0 0 1 .113.437.51.51 0 0 1-.141.35.456.456 0 0 1-.353.155c-.128 0-.225-.03-.292-.094a1.245 1.245 0 0 1-.217-.305 1.383 1.383 0 0 0-.361-.474c-.14-.115-.367-.171-.678-.171-.289 0-.522.062-.698.185-.177.124-.266.271-.266.445 0 .107.03.2.09.279.06.077.143.145.248.2.106.057.212.1.32.132.108.033.287.079.535.14.313.07.594.149.847.234.252.085.467.189.645.311.176.123.315.276.414.464.099.186.147.415.147.686M11.656 10.046l-.884-3.42v3.706c0 .205-.048.36-.142.462a.486.486 0 0 1-.375.153.485.485 0 0 1-.37-.152c-.094-.1-.142-.255-.142-.463V6.084c0-.234.063-.392.188-.475.126-.08.295-.122.509-.122h.346c.208 0 .361.018.455.054a.38.38 0 0 1 .208.199c.045.095.097.25.154.465l.803 2.94.802-2.94c.058-.215.11-.37.154-.465a.383.383 0 0 1 .21-.199c.094-.036.245-.054.454-.054h.346c.213 0 .383.042.509.122.124.083.187.24.187.475v4.248c0 .205-.046.36-.14.462a.49.49 0 0 1-.379.153.477.477 0 0 1-.365-.153c-.095-.103-.144-.257-.144-.462V6.626l-.885 3.42a7.208 7.208 0 0 1-.14.49.671.671 0 0 1-.203.283c-.098.086-.233.128-.406.128a.64.64 0 0 1-.332-.082.61.61 0 0 1-.21-.211 1.185 1.185 0 0 1-.12-.284l-.088-.324M20.414 9.244c0 .325-.085.616-.257.875-.173.259-.425.461-.756.609-.332.146-.725.219-1.18.219-.544 0-.994-.1-1.348-.3a1.754 1.754 0 0 1-.61-.578c-.159-.239-.237-.474-.237-.7 0-.132.047-.245.141-.34a.494.494 0 0 1 .36-.14c.117 0 .217.036.3.11.08.073.15.181.208.325.07.171.147.314.229.429.08.115.195.21.343.285.15.074.343.111.584.111.332 0 .602-.075.809-.226.208-.149.31-.338.31-.561a.588.588 0 0 0-.166-.435 1.099 1.099 0 0 0-.434-.254 7.323 7.323 0 0 0-.71-.186 5.52 5.52 0 0 1-.996-.317 1.609 1.609 0 0 1-.636-.496c-.158-.207-.237-.467-.237-.777 0-.295.082-.558.248-.788.166-.229.407-.405.72-.53a3.063 3.063 0 0 1 1.107-.184c.34 0 .633.042.881.124.247.081.451.19.615.324.163.137.282.279.358.427a.97.97 0 0 1 .113.437.51.51 0 0 1-.141.35.456.456 0 0 1-.352.155c-.129 0-.225-.03-.292-.094a1.245 1.245 0 0 1-.217-.305 1.383 1.383 0 0 0-.362-.474c-.14-.115-.366-.171-.677-.171-.29 0-.522.062-.698.185-.178.124-.267.271-.267.445 0 .107.03.2.09.279.06.077.143.145.249.2.105.057.212.1.32.132.108.033.286.079.535.14.312.07.594.149.847.234.252.085.467.189.644.311.176.123.315.276.414.464.099.186.148.415.148.686"/>
    </g>
</svg>
